<svg width="48" height="48" viewBox="0 0 48 48" fill="none" xmlns="http://www.w3.org/2000/svg">
<g clip-path="url(#clip0)">
<path d="M27.8092 14.8224C28.2047 14.8224 28.5253 14.5017 28.5253 14.1062C28.5253 13.7107 28.2047 13.3901 27.8092 13.3901C27.4137 13.3901 27.0931 13.7107 27.0931 14.1062C27.0931 14.5017 27.4137 14.8224 27.8092 14.8224Z" fill="white"/>
<path d="M19.7447 14.8224C20.1402 14.8224 20.4608 14.5017 20.4608 14.1062C20.4608 13.7107 20.1402 13.3901 19.7447 13.3901C19.3492 13.3901 19.0286 13.7107 19.0286 14.1062C19.0286 14.5017 19.3492 14.8224 19.7447 14.8224Z" fill="white"/>
<path d="M29.9198 6.06946e-05H17.614C15.7168 6.06946e-05 12.6698 5.73283e-05 9.53433 4.9655e-05C4.01137 3.6139e-05 -0.466179 4.47718 -0.466176 10.0001C-0.466174 12.7479 -0.466177 15.5444 -0.466177 17.8882V30.0634C-0.466177 32.897 -0.466229 34.7316 -0.466244 37.9488C-0.466269 43.4716 4.01089 47.9515 9.53369 47.9515C12.4786 47.9515 15.3986 47.9515 17.614 47.9515H29.9198C32.2863 47.9515 35.1558 47.9515 38.0001 47.9515C43.5229 47.9516 48 43.4726 48 37.9497C48 34.8176 48 32.4571 48 30.0634V17.8882C48 16.042 48 13.0711 48 10.0002C48 4.47738 43.5232 5.36486e-05 38.0004 5.69231e-05C35.1307 5.86245e-05 32.1866 6.06946e-05 29.9198 6.06946e-05ZM13.2095 28.6662C13.2173 28.9132 13.1723 29.159 13.0774 29.3872C12.9825 29.6154 12.8399 29.8207 12.6593 29.9893C12.2933 30.3335 11.8062 30.5191 11.3039 30.5059C10.7905 30.5145 10.2925 30.3302 9.90838 29.9893C9.7174 29.8268 9.56524 29.6237 9.46306 29.3947C9.36088 29.1658 9.31127 28.9168 9.31789 28.6662V20.9796C9.31391 20.7312 9.36477 20.485 9.46682 20.2585C9.56888 20.032 9.71964 19.8307 9.90835 19.6691C10.289 19.3212 10.7883 19.1319 11.3039 19.1399C11.5536 19.1337 11.8021 19.1772 12.0348 19.2681C12.2675 19.359 12.4798 19.4953 12.6592 19.6691C12.8377 19.8368 12.979 20.0401 13.0737 20.2658C13.1685 20.4916 13.2148 20.7348 13.2094 20.9796L13.2095 28.6662ZM32.516 31.4384C32.5165 31.6949 32.463 31.9487 32.3589 32.1831C32.2549 32.4176 32.1027 32.6275 31.9122 32.7993C31.7148 32.9899 31.4814 33.1393 31.2257 33.2388C30.9699 33.3384 30.697 33.386 30.4226 33.3789H29.0539V37.3861C29.0612 37.6429 29.0134 37.8983 28.9139 38.1352C28.8144 38.3721 28.6655 38.5849 28.477 38.7595C28.1058 39.1155 27.609 39.3102 27.0948 39.3014C26.8294 39.3116 26.5646 39.2689 26.3158 39.1759C26.067 39.0829 25.8392 38.9413 25.6456 38.7595C25.4605 38.5829 25.3148 38.3694 25.2177 38.1328C25.1206 37.8962 25.0743 37.6418 25.0819 37.3861V33.3789H22.4519V37.3861C22.4587 37.6441 22.4094 37.9006 22.3075 38.1377C22.2055 38.3748 22.0533 38.587 21.8613 38.7595C21.4927 39.1109 21.0019 39.3052 20.4927 39.3014C20.24 39.3065 19.9888 39.2613 19.7537 39.1682C19.5187 39.0752 19.3046 38.9363 19.1239 38.7595C18.9389 38.5829 18.7932 38.3694 18.6961 38.1327C18.599 37.8961 18.5527 37.6417 18.5604 37.3861V33.3789H17.1111C16.8411 33.3842 16.5726 33.3357 16.3215 33.2362C16.0704 33.1367 15.8416 32.9882 15.6485 32.7993C15.4579 32.6275 15.3057 32.4176 15.2017 32.1831C15.0976 31.9487 15.0441 31.6949 15.0446 31.4384V19.518H32.516V31.4384ZM14.9372 17.7985C14.9226 16.3823 15.365 14.9992 16.1987 13.8543C17.0558 12.6732 18.2016 11.7318 19.5265 11.1199C18.5783 9.65826 18.1041 8.91063 18.1041 8.87701C18.1041 8.72578 18.2115 8.65016 18.4261 8.65015C18.5156 8.65015 19.0434 9.4146 20.0096 10.9435C21.1964 10.4346 22.4757 10.1772 23.7669 10.1875C25.0738 10.1946 26.3673 10.4512 27.5779 10.9435C28.5082 9.41463 29.0271 8.65018 29.1345 8.65018C29.3313 8.65018 29.4297 8.7342 29.4296 8.90223L29.3759 9.02816L28.1146 11.1956C29.4195 11.7866 30.5413 12.7181 31.362 13.8923C32.1736 15.0323 32.6056 16.3991 32.5965 17.7985L14.9372 17.7985ZM38.2159 28.6662C38.2237 28.9132 38.1787 29.159 38.0838 29.3872C37.9889 29.6154 37.8464 29.8207 37.6657 29.9893C37.2997 30.3335 36.8126 30.5191 36.3105 30.5059C35.7959 30.5209 35.2956 30.3357 34.9148 29.9893C34.7307 29.8227 34.5849 29.6181 34.4876 29.3897C34.3903 29.1612 34.3438 28.9144 34.3513 28.6662V20.9796C34.3463 20.7336 34.3941 20.4894 34.4913 20.2634C34.5885 20.0374 34.7329 19.8348 34.9148 19.6691C35.2921 19.3157 35.7937 19.1255 36.3105 19.1399C36.5602 19.1337 36.8087 19.1772 37.0413 19.2681C37.274 19.359 37.4863 19.4953 37.6657 19.6691C37.8442 19.8368 37.9854 20.0401 38.0802 20.2658C38.175 20.4916 38.2212 20.7348 38.2159 20.9796V28.6662Z" fill="white"/>
</g>
<defs>
<clipPath id="clip0">
<rect width="48" height="48" fill="white"/>
</clipPath>
</defs>
</svg>
