<svg width="48" height="48" viewBox="0 0 48 48" fill="none" xmlns="http://www.w3.org/2000/svg">
<g clip-path="url(#clip0)">
<path d="M24 13.125C18.0036 13.125 13.125 18.0036 13.125 24C13.125 29.9964 18.0036 34.875 24 34.875C29.9964 34.875 34.875 29.9964 34.875 24C34.875 18.0036 29.9964 13.125 24 13.125ZM18.3516 18.7383H26.4736L26.0444 18.2653C25.5226 17.6902 25.5657 16.8007 26.1409 16.2789C26.7161 15.757 27.6053 15.8003 28.1272 16.3754L30.6897 19.1996C31.1761 19.7357 31.1761 20.5535 30.6897 21.0895L28.1272 23.9137C27.8497 24.2197 27.4683 24.375 27.0854 24.375C26.7483 24.375 26.4101 24.2545 26.1409 24.0102C25.5657 23.4883 25.5225 22.599 26.0444 22.0238L26.4736 21.5509H18.3516C17.5749 21.5509 16.9453 20.9213 16.9453 20.1446C16.9453 19.368 17.5749 18.7383 18.3516 18.7383ZM29.6484 29.2617H21.5264L21.9556 29.7347C22.4774 30.3098 22.4343 31.1992 21.8591 31.7211C21.5898 31.9654 21.2516 32.0858 20.9146 32.0858C20.5317 32.0858 20.1503 31.9304 19.8727 31.6246L17.3103 28.8004C16.8239 28.2643 16.8239 27.4465 17.3103 26.9105L19.8727 24.0863C20.3947 23.5111 21.2841 23.4679 21.8591 23.9898C22.4343 24.5117 22.4775 25.401 21.9556 25.9762L21.5264 26.4491H29.6484C30.4251 26.4491 31.0547 27.0787 31.0547 27.8554C31.0547 28.632 30.4251 29.2617 29.6484 29.2617Z" fill="white"/>
<path d="M46.5938 18.7425H43.4551C43.0044 17.0685 42.3407 15.4677 41.473 13.9621L43.6938 11.7413C44.243 11.1922 44.243 10.3018 43.6938 9.75262L38.2474 4.30622C37.6983 3.75703 36.8078 3.75703 36.2587 4.30622L34.0378 6.52697C32.5322 5.65931 30.9314 4.99556 29.2574 4.54491V1.40625C29.2574 0.629625 28.6278 0 27.8512 0H20.1488C19.3721 0 18.7425 0.629625 18.7425 1.40625V4.54491C17.0686 4.99556 15.4677 5.65931 13.9621 6.52697L11.7413 4.30622C11.1922 3.75703 10.3018 3.75703 9.75262 4.30622L4.30622 9.75262C3.75703 10.3018 3.75703 11.1922 4.30622 11.7413L6.52697 13.9621C5.65931 15.4677 4.99556 17.0685 4.54491 18.7425H1.40625C0.629625 18.7425 0 19.3721 0 20.1488V27.8512C0 28.6278 0.629625 29.2574 1.40625 29.2574H4.54491C4.99556 30.9313 5.65931 32.5322 6.52697 34.0378L4.30622 36.2586C3.75703 36.8078 3.75703 37.6981 4.30622 38.2473L9.75262 43.6937C10.3017 44.2429 11.1922 44.2429 11.7413 43.6937L13.9621 41.4729C15.4678 42.3407 17.0683 43.0043 18.7425 43.4551V46.5938C18.7425 47.3704 19.3721 48 20.1488 48H27.8512C28.6278 48 29.2574 47.3704 29.2574 46.5938V43.4551C30.9315 43.0044 32.5321 42.3408 34.0378 41.4729L36.2586 43.6937C36.8077 44.2429 37.6981 44.2429 38.2473 43.6937L43.6937 38.2473C44.2429 37.6981 44.2429 36.8078 43.6937 36.2586L41.4729 34.0378C42.3406 32.5322 43.0043 30.9314 43.455 29.2574H46.5938C47.3704 29.2574 48 28.6278 48 27.8512V20.1488C48 19.3721 47.3704 18.7425 46.5938 18.7425ZM24 37.6875C16.4527 37.6875 10.3125 31.5473 10.3125 24C10.3125 16.4527 16.4527 10.3125 24 10.3125C31.5473 10.3125 37.6875 16.4527 37.6875 24C37.6875 31.5473 31.5473 37.6875 24 37.6875Z" fill="white"/>
</g>
<defs>
<clipPath id="clip0">
<rect width="48" height="48" fill="white"/>
</clipPath>
</defs>
</svg>
