<svg width="48" height="48" viewBox="0 0 48 48" fill="none" xmlns="http://www.w3.org/2000/svg">
<path d="M38.1562 0H9.84375C4.41591 0 0 4.41591 0 9.84375V38.1562C0 43.5841 4.41591 48 9.84375 48H38.1562C43.5841 48 48 43.5841 48 38.1562V9.84375C48 4.41591 43.5841 0 38.1562 0ZM14.7796 36.9858C14.346 37.7368 13.5565 38.1571 12.7459 38.1572C12.3485 38.1572 11.9461 38.0562 11.5779 37.8437C10.4587 37.1976 10.0739 35.7613 10.72 34.6421L11.181 33.8438H16.5937L14.7796 36.9858ZM10.3594 31.9688C9.06703 31.9688 8.01562 30.9173 8.01562 29.625C8.01562 28.3327 9.06703 27.2812 10.3594 27.2812H14.9698L21.2936 16.3281L19.5798 13.3596C18.9337 12.2404 19.3184 10.8041 20.4376 10.1579H20.4377C21.5569 9.51178 22.9931 9.89672 23.6392 11.0158L24 11.6407L24.3607 11.0159C25.0072 9.89662 26.4434 9.51188 27.5623 10.158C28.1045 10.471 28.4923 10.9764 28.6543 11.5811C28.8164 12.1858 28.7332 12.8175 28.4201 13.3597L20.3825 27.2812H25.4524L28.1587 31.9688H10.3594ZM37.6406 31.9688H35.7365L37.2799 34.642C37.9261 35.7611 37.5412 37.1974 36.4222 37.8436C36.0609 38.0521 35.6601 38.1587 35.2539 38.1587C35.0503 38.1587 34.8456 38.132 34.6435 38.0778C34.0387 37.9157 33.5333 37.5278 33.2203 36.9856L25.0824 22.8905L27.7887 18.203L33.0302 27.2812H37.6406C38.933 27.2812 39.9844 28.3327 39.9844 29.625C39.9844 30.9173 38.933 31.9688 37.6406 31.9688Z" fill="white"/>
</svg>
