<svg width="77" height="77" viewBox="0 0 77 77" fill="none" xmlns="http://www.w3.org/2000/svg">
<rect width="77" height="77" rx="25" fill="#342A41"/>
<path fill-rule="evenodd" clip-rule="evenodd" d="M28.0836 32.8652C27.3847 32.7822 26.8432 32.1888 26.8432 31.4688C26.8432 30.6925 27.4732 30.0625 28.2495 30.0625H50.7495C51.5257 30.0625 52.1557 30.6925 52.1557 31.4688C52.1557 32.1888 51.6143 32.7822 50.9154 32.8652C51.0504 33.0269 51.1826 33.1956 51.3134 33.3756C52.52 35.035 53.562 37.5395 53.562 41.3125C53.562 44.7859 53.8883 48.3086 53.3328 51.093C52.8912 53.3022 51.9251 55.0895 50.0886 56.237C48.0692 57.4984 43.7914 58.2086 39.4995 58.2086C35.2076 58.2086 30.9298 57.4984 28.9104 56.237C27.0739 55.0895 26.1078 53.3022 25.6662 51.093C25.1107 48.3086 25.437 44.7859 25.437 41.3125C25.437 37.5395 26.479 35.035 27.6856 33.3756C27.8164 33.1956 27.9486 33.0269 28.0836 32.8652V32.8652ZM40.9057 38.552V38.538C40.9057 37.7617 40.2757 37.1317 39.4995 37.1317C38.7303 37.1317 38.1031 37.7519 38.0932 38.5197C37.2129 38.7377 36.4662 39.1947 35.9628 39.8725C35.5479 40.4308 35.2807 41.148 35.2807 42.0634C35.2807 43.8761 36.5337 44.7958 38.2733 45.3034C38.9033 45.4862 39.5979 45.6213 40.2026 45.8238C40.3897 45.887 40.5654 45.9545 40.7187 46.0431C40.8129 46.098 40.9057 46.1556 40.9057 46.2822C40.9057 46.8419 40.4811 47.057 40.0142 47.1203C39.1676 47.2342 38.1509 46.9797 37.4731 46.5227C36.8304 46.0881 35.9558 46.2583 35.5212 46.9009C35.0867 47.545 35.2568 48.4197 35.9009 48.8542C36.514 49.2677 37.2847 49.5827 38.0932 49.7655V49.788C38.0932 50.5642 38.7232 51.1942 39.4995 51.1942C40.2687 51.1942 40.8945 50.5755 40.9057 49.8091C41.0548 49.7739 41.2011 49.7317 41.3403 49.6825C42.7212 49.1945 43.7182 48.13 43.7182 46.2822C43.7182 44.4695 42.4653 43.5498 40.7257 43.0422C40.0957 42.858 39.4011 42.723 38.7964 42.5205C38.6093 42.4586 38.4336 42.3897 38.2803 42.3025C38.1861 42.2477 38.0932 42.1886 38.0932 42.0634C38.0932 41.4967 38.5193 41.2731 38.9904 41.207C39.83 41.0903 40.8354 41.3406 41.5062 41.8103C42.1432 42.2547 43.0208 42.0986 43.4651 41.4616C43.9095 40.8259 43.7534 39.9484 43.1178 39.5041C42.499 39.0709 41.72 38.7419 40.9057 38.552V38.552ZM28.8373 27.25C27.9148 25.3642 26.9853 23.463 26.5901 22.6502C26.1809 21.8163 26.427 20.8094 27.1737 20.2567C27.2187 20.223 27.2665 20.192 27.3143 20.1653C28.1047 19.7153 30.1001 18.8125 33.8745 18.8125C35.5184 18.8125 36.8923 19.3736 38.2451 20.0838C39.7892 20.8938 41.2925 21.9653 43.4862 21.9653C45.7095 21.9653 48.2604 21.2144 49.6878 20.7306C50.4246 20.4789 51.2417 20.6955 51.7578 21.2791C52.2739 21.8641 52.3892 22.7008 52.0475 23.4011L50.1631 27.25H28.8373Z" fill="white"/>
</svg>
