<svg width="32" height="32" viewBox="0 0 32 32" fill="none" xmlns="http://www.w3.org/2000/svg">
<g clip-path="url(#clip0)">
<path d="M30.4687 9.15615C29.1625 6.3874 27.0937 4.0624 24.4875 2.43115C20.8625 0.168649 16.5687 -0.550101 12.4062 0.412399C8.24374 1.36865 4.69999 3.89365 2.43749 7.51865C0.168742 11.1436 -0.550008 15.4311 0.412492 19.5999C1.37499 23.7624 3.89999 27.3061 7.51874 29.5686C10.0687 31.1624 12.9937 32.0061 15.9875 32.0061H16.1812C19.1625 31.9686 22.0625 31.1061 24.575 29.5186C25.3062 29.0561 25.5187 28.0936 25.0562 27.3624C24.5937 26.6311 23.6312 26.4186 22.9 26.8811C20.8812 28.1624 18.5437 28.8561 16.1437 28.8874C13.6812 28.9186 11.275 28.2374 9.17499 26.9311C6.25624 25.1061 4.22499 22.2561 3.45624 18.9061C2.68749 15.5561 3.26249 12.1061 5.08749 9.1874C8.84999 3.16865 16.8125 1.33115 22.8312 5.09365C24.9312 6.40615 26.5937 8.2749 27.6437 10.4999C28.6687 12.6686 29.0687 15.0749 28.8 17.4499C28.7062 18.3061 29.3187 19.0811 30.1812 19.1749C31.0375 19.2686 31.8125 18.6561 31.9062 17.7936C32.2375 14.8374 31.7375 11.8499 30.4687 9.15615V9.15615Z" fill="white"/>
<path d="M21.1682 10.575L13.6307 18.1125L10.8369 15.3188C10.2244 14.7063 9.23691 14.7063 8.62441 15.3188C8.01191 15.9313 8.01191 16.9188 8.62441 17.5313L12.5244 21.4313C12.8307 21.7375 13.2307 21.8875 13.6307 21.8875C14.0307 21.8875 14.4307 21.7375 14.7369 21.4313L23.3744 12.7875C23.9869 12.175 23.9869 11.1875 23.3744 10.575C22.7619 9.9688 21.7744 9.9688 21.1682 10.575V10.575Z" fill="white"/>
</g>
<defs>
<clipPath id="clip0">
<rect width="32" height="32" fill="white"/>
</clipPath>
</defs>
</svg>
