<svg width="77" height="77" viewBox="0 0 77 77" fill="none" xmlns="http://www.w3.org/2000/svg">
<rect width="77" height="77" rx="25" fill="#342A41"/>
<path d="M21.5153 19.7529C21.0831 19.7783 20.67 19.953 20.3471 20.2547C19.8832 20.6877 19.6693 21.3254 19.7794 21.9503L21.768 33.2191C22.0751 34.9578 24.3965 35.3482 25.2545 33.8051L25.9598 32.537C26.013 32.4413 26.0877 32.3592 26.178 32.2973C26.2683 32.2354 26.3717 32.1953 26.4801 32.1801C26.5886 32.165 26.699 32.1752 26.8028 32.21C26.9067 32.2447 27.001 32.3031 27.0784 32.3805L32.5351 37.8372C32.7109 38.013 32.8097 38.2515 32.8097 38.5001C32.8097 38.7488 32.7109 38.9873 32.5351 39.1631L27.0784 44.6197C27.001 44.6971 26.9067 44.7555 26.8028 44.7903C26.699 44.8251 26.5886 44.8353 26.4801 44.8201C26.3717 44.805 26.2683 44.7649 26.178 44.7029C26.0877 44.641 26.013 44.559 25.9598 44.4633L25.2545 43.1952C24.3965 41.6521 22.0751 42.0424 21.768 43.7811L19.7794 55.05C19.6693 55.6749 19.8832 56.3126 20.3471 56.7456C20.7777 57.1479 21.3708 57.3239 21.9511 57.2217L33.22 55.2331C34.9587 54.9261 35.349 52.6046 33.8059 51.7466L32.5378 51.0413C32.4421 50.9881 32.3601 50.9134 32.2982 50.8231C32.2363 50.7328 32.1961 50.6294 32.181 50.521C32.1658 50.4125 32.176 50.3021 32.2108 50.1983C32.2456 50.0945 32.304 50.0001 32.3814 49.9227L37.838 44.4661C38.0139 44.2902 38.2523 44.1915 38.501 44.1915C38.7496 44.1915 38.9881 44.2902 39.1639 44.4661L44.6206 49.9227C44.698 50.0001 44.7564 50.0945 44.7912 50.1983C44.8259 50.3021 44.8361 50.4125 44.821 50.521C44.8058 50.6294 44.7657 50.7328 44.7038 50.8231C44.6419 50.9134 44.5598 50.9881 44.4642 51.0413L43.196 51.7466C41.6529 52.6046 42.0433 54.9261 43.782 55.2331L55.0508 57.2217C55.6311 57.3239 56.2243 57.1479 56.6549 56.7456C57.1187 56.3126 57.3327 55.6749 57.2225 55.05L55.2339 43.7811C54.9269 42.0424 52.6055 41.6521 51.7474 43.1952L51.0422 44.4633C50.989 44.559 50.9143 44.641 50.824 44.7029C50.7337 44.7649 50.6302 44.805 50.5218 44.8201C50.4134 44.8353 50.3029 44.8251 50.1991 44.7903C50.0953 44.7555 50.001 44.6971 49.9235 44.6197L44.4669 39.1631C44.2911 38.9873 44.1923 38.7488 44.1923 38.5001C44.1923 38.2515 44.2911 38.013 44.4669 37.8372L49.9235 32.3805C50.001 32.3031 50.0953 32.2447 50.1991 32.21C50.3029 32.1752 50.4134 32.165 50.5218 32.1801C50.6302 32.1953 50.7337 32.2354 50.824 32.2973C50.9143 32.3592 50.989 32.4413 51.0422 32.537L51.7474 33.8051C52.6055 35.3482 54.9269 34.9578 55.2339 33.2191L57.2225 21.9503C57.3327 21.3254 57.1187 20.6877 56.6549 20.2547C56.2243 19.8524 55.6311 19.6763 55.0508 19.7786L43.782 21.7672C42.0433 22.0742 41.6529 24.3956 43.196 25.2537L44.4642 25.9589C44.5598 26.0122 44.6419 26.0868 44.7038 26.1771C44.7657 26.2674 44.8058 26.3709 44.821 26.4793C44.8361 26.5877 44.8259 26.6982 44.7912 26.802C44.7564 26.9058 44.698 27.0001 44.6206 27.0776L39.1639 32.5342C38.9881 32.71 38.7496 32.8088 38.501 32.8088C38.2523 32.8088 38.0139 32.71 37.838 32.5342L32.3814 27.0776C32.304 27.0001 32.2456 26.9058 32.2108 26.802C32.176 26.6982 32.1658 26.5877 32.181 26.4793C32.1961 26.3709 32.2363 26.2674 32.2982 26.1771C32.3601 26.0868 32.4421 26.0122 32.5378 25.9589L33.8059 25.2537C35.349 24.3956 34.9587 22.0742 33.22 21.7672L21.9511 19.7786C21.8061 19.753 21.6594 19.7445 21.5153 19.7529V19.7529Z" fill="white"/>
</svg>
