<svg width="77" height="77" viewBox="0 0 77 77" fill="none" xmlns="http://www.w3.org/2000/svg">
<rect width="77" height="77" rx="25" fill="#342A41"/>
<g clip-path="url(#clip0)">
<path d="M38.501 47.9941C39.3326 47.9941 40.0068 47.3199 40.0068 46.4883C40.0068 45.6566 39.3326 44.9824 38.501 44.9824C37.6693 44.9824 36.9951 45.6566 36.9951 46.4883C36.9951 47.3199 37.6693 47.9941 38.501 47.9941Z" fill="white"/>
<path d="M38.501 32.0175C39.3326 32.0175 40.0068 31.3433 40.0068 30.5117C40.0068 29.68 39.3326 29.0059 38.501 29.0059C37.6693 29.0059 36.9951 29.68 36.9951 30.5117C36.9951 31.3433 37.6693 32.0175 38.501 32.0175Z" fill="white"/>
<path d="M59.7869 17.2142C59.005 16.4312 57.9646 16 56.8575 16H41.0821C39.9755 16 38.9351 16.431 38.1525 17.2137L17.2139 38.1523C16.431 38.9351 16 39.9754 16 41.0818C16 42.1883 16.4312 43.2287 17.2139 44.0108L32.9888 59.7859C33.7712 60.5688 34.8116 61 35.9181 61C37.0246 61 38.0649 60.569 38.8477 59.7861L59.7863 38.8475C60.569 38.0649 61 37.0245 61 35.9179V20.1425C61 19.0354 60.5688 17.9949 59.7869 17.2142V17.2142ZM38.5001 26.3691C40.7843 26.3691 42.6426 28.2274 42.6426 30.5116C42.6426 32.7958 40.7843 34.6542 38.5001 34.6542C36.2159 34.6542 34.3575 32.7958 34.3575 30.5116C34.3575 28.2274 36.2159 26.3691 38.5001 26.3691ZM38.5001 50.6308C36.2159 50.6308 34.3575 48.7724 34.3575 46.4882C34.3575 44.204 36.2159 42.3457 38.5001 42.3457C40.7843 42.3457 42.6426 44.204 42.6426 46.4882C42.6426 48.7724 40.7843 50.6308 38.5001 50.6308ZM46.9727 39.8183H30.0275C29.2994 39.8183 28.7092 39.228 28.7092 38.4999C28.7092 37.7718 29.2994 37.1816 30.0275 37.1816H46.9727C47.7007 37.1816 48.291 37.7718 48.291 38.4999C48.291 39.228 47.7008 39.8183 46.9727 39.8183ZM52.6211 25.6972C51.8934 25.6972 51.3028 25.1066 51.3028 24.3789C51.3028 23.6511 51.8934 23.0605 52.6211 23.0605C53.3489 23.0605 53.9395 23.6511 53.9395 24.3789C53.9395 25.1066 53.3489 25.6972 52.6211 25.6972Z" fill="white"/>
</g>
<defs>
<clipPath id="clip0">
<rect width="45" height="45" fill="white" transform="translate(16 16)"/>
</clipPath>
</defs>
</svg>
