<svg width="77" height="77" viewBox="0 0 77 77" fill="none" xmlns="http://www.w3.org/2000/svg">
<rect width="77" height="77" rx="25" fill="#342A41"/>
<g clip-path="url(#clip0)">
<path d="M34.7501 61C38.1459 61 40.9866 58.5792 41.6389 55.375H27.8613C28.514 58.5792 31.3546 61 34.7501 61Z" fill="white"/>
<path d="M48.9549 43.1798C48.9061 43.1798 48.8611 43.1874 48.8124 43.1874C40.5417 43.1874 33.8126 36.4583 33.8126 28.1876C33.8126 24.9381 34.8625 21.9364 36.6251 19.4761V17.8749C36.6251 16.8381 35.785 16 34.7499 16C33.7151 16 32.875 16.8381 32.875 17.8749V19.9001C26.5242 20.8151 21.625 26.277 21.625 32.875V38.1024C21.625 41.8131 19.9994 45.3156 17.1474 47.7268C16.4182 48.3513 16 49.2587 16 50.2186C16 52.0283 17.4718 53.5001 19.2811 53.5001H50.2186C52.0283 53.5001 53.5001 52.0283 53.5001 50.2186C53.5001 49.2587 53.0819 48.3513 52.3338 47.712C50.8562 46.4613 49.7164 44.905 48.9549 43.1798V43.1798Z" fill="white"/>
<path d="M48.8123 16C42.0924 16 36.625 21.4674 36.625 28.1876C36.625 34.9075 42.0924 40.3749 48.8123 40.3749C55.5325 40.3749 60.9999 34.9075 60.9999 28.1876C60.9999 21.4674 55.5325 16 48.8123 16V16ZM50.6875 32.4064C50.6875 33.1826 50.0575 33.8126 49.2812 33.8126C48.505 33.8126 47.875 33.1826 47.875 32.4064V26.3124H46.9374C46.1611 26.3124 45.5311 25.6824 45.5311 24.9061C45.5311 24.1299 46.1611 23.4999 46.9374 23.4999H49.2812C50.0575 23.4999 50.6875 24.1299 50.6875 24.9061V32.4064Z" fill="white"/>
</g>
<defs>
<clipPath id="clip0">
<rect width="45" height="45" fill="white" transform="translate(16 16)"/>
</clipPath>
</defs>
</svg>
