<svg width="77" height="77" viewBox="0 0 77 77" fill="none" xmlns="http://www.w3.org/2000/svg">
<rect width="77" height="77" rx="25" fill="#342A41"/>
<path d="M46.4526 35.9513H44.1445C42.1637 35.9513 40.4908 37.2898 39.9795 39.1094C41.5981 39.4398 43.0689 40.3072 44.1503 41.5999C44.2416 41.7092 44.3293 41.8206 44.4137 41.9341C45.6632 41.1574 46.4526 39.7805 46.4526 38.2593V35.9513Z" fill="white"/>
<path d="M38.5 30.8978L36.8679 32.5299C36.4381 32.9597 36.1103 33.4627 35.8955 34.0147C36.9345 34.5211 37.8283 35.2791 38.5 36.2082C39.1716 35.2792 40.0656 34.5211 41.1045 34.0147C40.8897 33.4627 40.5619 32.9597 40.1321 32.5299L38.5 30.8978Z" fill="white"/>
<path d="M37.0199 39.1094C36.5087 37.2898 34.8358 35.9513 32.855 35.9513H30.5469V38.2594C30.5469 39.7806 31.3362 41.1575 32.5858 41.9342C32.6701 41.8207 32.7578 41.7092 32.8492 41.6C33.9304 40.3072 35.4013 39.4398 37.0199 39.1094V39.1094Z" fill="white"/>
<path d="M38.5 23.9102C30.4551 23.9102 23.9102 30.4551 23.9102 38.5C23.9102 44.1911 27.186 49.1309 31.9507 51.5346L31.2492 47.6285C31.0477 46.5062 31.1102 45.3721 31.4144 44.3056C29.2748 43.084 27.9102 40.7961 27.9102 38.2594V33.3145H32.855C33.0175 33.3145 33.178 33.3221 33.3377 33.3332C33.6774 32.335 34.2406 31.4284 35.0034 30.6654L38.5 27.169L41.9965 30.6655C42.7594 31.4284 43.3226 32.3351 43.6623 33.3333C43.822 33.3223 43.9825 33.3146 44.145 33.3146H49.0898V38.2594C49.0898 40.7962 47.7252 43.0841 45.5856 44.3057C45.8898 45.3722 45.9523 46.5063 45.7508 47.6286L45.0493 51.5347C49.8141 49.1309 53.0898 44.1911 53.0898 38.5C53.0898 30.4551 46.5449 23.9102 38.5 23.9102V23.9102Z" fill="white"/>
<path d="M43.1558 47.1625C43.404 45.78 43.0295 44.3692 42.1284 43.2917C41.2272 42.2143 39.9048 41.5963 38.5002 41.5963C37.0956 41.5963 35.7731 42.2143 34.8719 43.2917C33.9707 44.3692 33.5963 45.78 33.8446 47.1625L34.8248 52.6207C35.9994 52.9266 37.231 53.0899 38.5001 53.0899C39.7693 53.0899 41.0009 52.9266 42.1755 52.6207L43.1558 47.1625Z" fill="white"/>
<path d="M54.41 22.59C50.1602 18.3404 44.51 16 38.5 16C32.49 16 26.8398 18.3404 22.59 22.59C18.3404 26.8398 16 32.49 16 38.5C16 44.51 18.3404 50.1602 22.59 54.41C26.8398 58.6596 32.49 61 38.5 61C44.51 61 50.1602 58.6596 54.41 54.41C58.6596 50.1602 61 44.51 61 38.5C61 32.49 58.6596 26.8398 54.41 22.59V22.59ZM38.5 55.7266C29.0012 55.7266 21.2734 47.9988 21.2734 38.5C21.2734 29.0012 29.0012 21.2734 38.5 21.2734C47.9988 21.2734 55.7266 29.0012 55.7266 38.5C55.7266 47.9988 47.9988 55.7266 38.5 55.7266V55.7266Z" fill="white"/>
</svg>
