<svg width="77" height="77" viewBox="0 0 77 77" fill="none" xmlns="http://www.w3.org/2000/svg">
<rect width="77" height="77" rx="25" fill="#342A41"/>
<g clip-path="url(#clip0)">
<path d="M27.7065 44.5429C27.0189 43.8556 26.76 44.201 26.6071 44.354C22.6475 48.3136 19.1323 57.8674 20.9906 56.9343C27.7558 53.5375 28.883 54.5488 32.8424 50.5895C32.9955 50.4365 33.3475 50.1841 32.6399 49.4764L27.7065 44.5429Z" fill="white"/>
<path d="M49.0521 44.49C48.8727 43.919 49.2486 43.6438 49.4068 43.473C58.146 34.038 63.7001 21.4677 59.5842 17.3515C55.4899 13.2575 43.3072 18.9739 33.8748 27.65C33.6882 27.8219 33.3204 28.1473 32.6624 28.01L29.7236 27.3102C28.9077 27.1161 27.7548 27.4423 27.1617 28.0354L16.3784 38.8185C15.7854 39.4118 15.978 40.0036 16.8067 40.1337L24.6059 41.3594C25.4345 41.4897 26.5977 41.111 27.1907 40.5177C27.1907 40.5177 27.5931 40.1142 27.9974 40.5184C30.228 42.7488 34.3731 46.8939 36.4983 49.0191C36.9207 49.4414 36.5161 49.8432 36.5161 49.8432C35.9229 50.4364 35.5443 51.5993 35.6746 52.4281L36.9001 60.2272C37.0304 61.0561 37.6222 61.2488 38.2153 60.6555L48.9987 49.8721C49.5917 49.279 49.918 48.1264 49.7236 47.3105L49.0521 44.49ZM46.6379 30.5588C44.8114 28.7323 44.8114 25.7714 46.6379 23.9452C48.4642 22.1187 51.4251 22.1187 53.2517 23.9452C55.0779 25.7712 55.0779 28.7323 53.2517 30.5586C51.4251 32.3851 48.4641 32.3851 46.6379 30.5588Z" fill="white"/>
</g>
<defs>
<clipPath id="clip0">
<rect width="45" height="45" fill="white" transform="translate(16 16)"/>
</clipPath>
</defs>
</svg>
