<svg width="77" height="77" viewBox="0 0 77 77" fill="none" xmlns="http://www.w3.org/2000/svg">
<rect width="77" height="77" rx="25" fill="#342A41"/>
<g clip-path="url(#clip0)">
<path d="M58.9691 43.019C56.7556 42.2179 54.2984 42.4029 52.2271 43.5268C52.2 43.5402 44.1171 47.1932 44.1171 47.1932C43.5428 47.6233 42.8768 47.8505 42.1909 47.8505H37.1052C36.4735 47.8505 35.9614 47.339 35.9614 46.708C35.9614 46.077 36.4735 45.5655 37.1052 45.5655H42.1909C43.7806 45.5655 43.8154 42.2948 42.2583 42.1652L35.17 42.0838C33.9193 42.0699 32.6675 41.266 31.349 41.2358C30.0071 41.2051 28.7376 41.5473 27.6094 42.279C26.0384 43.298 24.9659 44.9172 24.2471 46.615L28.0821 56.2994H39.1091C40.1043 56.2994 41.0871 56.0383 41.951 55.544L59.0641 45.7542C59.5844 45.3131 59.9863 44.7979 59.8098 44.0067C59.7103 43.5619 59.3911 43.172 58.9691 43.019V43.019Z" fill="white"/>
<path d="M17.1494 47.8017L22.3758 60.9999L26.5709 58.6965L21.3444 45.4983L17.1494 47.8017Z" fill="white"/>
<path d="M48.6422 16C43.0311 16 38.4824 20.6103 38.4824 26.2973C38.4824 31.9843 43.0312 36.5946 48.6422 36.5946C54.2533 36.5946 58.802 31.9843 58.802 26.2973C58.8021 20.6103 54.2534 16 48.6422 16V16ZM49.7967 31.4374V33.1444H47.4458V31.5762C46.5375 31.4412 45.7303 31.0798 45.0331 30.5319L45.8762 28.1674C46.5599 28.7046 47.5368 29.1955 48.3768 29.1955C49.0211 29.1955 49.4374 28.8998 49.4374 28.4421C49.4374 28.1446 49.3417 27.7882 48.1996 27.3227C46.77 26.7586 45.3065 25.9311 45.3065 24.0776C45.3065 22.6783 46.1617 21.554 47.5498 21.1108V19.4501H49.8863V20.9636C50.5971 21.0745 51.3575 21.4212 51.9831 21.8247L51.1067 24.1519C50.4768 23.7318 49.5836 23.3241 48.8668 23.3241C48.0833 23.3241 47.9987 23.7257 47.9987 23.8983C47.9987 24.1686 48.0995 24.4018 49.4041 24.9446C50.6799 25.468 52.1441 26.3265 52.1441 28.3374C52.1442 29.774 51.2281 30.9756 49.7967 31.4374V31.4374Z" fill="white"/>
</g>
<defs>
<clipPath id="clip0">
<rect width="45" height="45" fill="white" transform="translate(16 16)"/>
</clipPath>
</defs>
</svg>
