<svg width="77" height="77" viewBox="0 0 77 77" fill="none" xmlns="http://www.w3.org/2000/svg">
<rect width="77" height="77" rx="25" fill="#342A41"/>
<path d="M39.1681 44.4016L38.4992 43.2935L37.8305 44.4016C37.6466 44.7062 37.3474 44.9236 37.0009 45.0042L35.7402 45.298L36.5874 46.2765C36.8203 46.5455 36.9347 46.8972 36.9043 47.2517L36.794 48.5414L37.9865 48.038C38.1504 47.9688 38.3248 47.9342 38.4992 47.9342C38.6736 47.9342 38.8481 47.9688 39.012 48.038L40.2044 48.5414L40.0942 47.2518C40.0639 46.8972 40.1782 46.5455 40.411 46.2765L41.2582 45.298L39.9977 45.0042C39.6511 44.9237 39.3519 44.7062 39.1681 44.4016Z" fill="white"/>
<path d="M48.7832 28.2168H44.0862L46.0167 33.306C46.0247 33.3258 46.0385 33.3592 46.0565 33.4023H46.6813C47.4094 33.4023 47.9997 33.9926 47.9997 34.7207C47.9997 35.4488 47.4094 36.0391 46.6813 36.0391H32.054C32.0481 36.0391 32.0424 36.0383 32.0365 36.0382L32.0218 36.0391L32.0212 36.0374C31.3084 36.0198 30.7357 35.4377 30.7357 34.7207C30.7357 34.345 30.8936 34.0069 31.1458 33.7667L29.0059 28.2168H28.2168C26.7629 28.2168 25.5801 29.3996 25.5801 30.8535V58.3633C25.5801 59.8172 26.7629 61 28.2168 61H48.7832C50.2371 61 51.4199 59.8172 51.4199 58.3633V30.8535C51.4199 29.3996 50.2371 28.2168 48.7832 28.2168V28.2168ZM42.5018 56.8262H34.674C33.9459 56.8262 33.3557 56.2359 33.3557 55.5078C33.3557 54.7797 33.9459 54.1894 34.674 54.1894H42.5018C43.2299 54.1894 43.8202 54.7797 43.8202 55.5078C43.8202 56.2359 43.2299 56.8262 42.5018 56.8262ZM44.6822 45.3726L42.7695 47.5817L43.0185 50.4933C43.0578 50.9535 42.8535 51.4008 42.4799 51.6722C42.1062 51.9437 41.6177 51.9999 41.1922 51.8203L38.5 50.6837L35.8079 51.8203C35.643 51.8899 35.4687 51.9241 35.2952 51.9241C35.021 51.9241 34.7491 51.8385 34.5202 51.6723C34.1466 51.4009 33.9422 50.9536 33.9815 50.4935L34.2304 47.5818L32.3177 45.3727C32.0153 45.0235 31.9178 44.5416 32.0605 44.1024C32.2033 43.6631 32.5654 43.3306 33.0153 43.2258L35.8613 42.5628L37.3712 40.0609C37.6098 39.6655 38.038 39.4238 38.4999 39.4238C38.9618 39.4238 39.39 39.6655 39.6286 40.0609L41.1386 42.5628L43.9845 43.2258C44.4343 43.3305 44.7965 43.6631 44.9392 44.1024C45.0821 44.5415 44.9846 45.0235 44.6822 45.3726V45.3726Z" fill="white"/>
<path d="M46.1808 25.5801L49.1373 17.7858C49.291 17.3808 49.2357 16.926 48.9896 16.5694C48.7435 16.2129 48.3379 16 47.9046 16H41.2249C40.6772 16 40.1865 16.3387 39.9922 16.8509L39.8838 17.1368L43.0864 25.5801H46.1808Z" fill="white"/>
<path d="M33.7329 33.4023H43.2326L36.9544 16.8509C36.7601 16.3387 36.2694 16 35.7217 16H29.042C28.6087 16 28.2031 16.2129 27.957 16.5694C27.7109 16.926 27.6556 17.3808 27.8094 17.7858L33.7329 33.4023Z" fill="white"/>
</svg>
