<svg width="77" height="77" viewBox="0 0 77 77" fill="none" xmlns="http://www.w3.org/2000/svg">
<rect width="77" height="77" rx="25" fill="#342A41"/>
<g clip-path="url(#clip0)">
<path d="M26.1074 47.8164C22.715 47.8164 19.9551 45.0565 19.9551 41.6641C19.9551 38.2717 22.715 35.5117 26.1074 35.5117C29.4998 35.5117 32.2598 38.2717 32.2598 41.6641C32.2598 45.0565 29.4999 47.8164 26.1074 47.8164Z" fill="white"/>
<path d="M35.5212 48.4573C37.0308 49.0744 38.6614 49.3984 40.3456 49.3984C47.3728 49.3984 53.0898 43.6814 53.0898 36.6543C53.0898 29.6272 47.3728 23.9102 40.3456 23.9102C34.55 23.9102 29.6455 27.7988 28.1045 33.104C31.9919 34.0107 34.8964 37.5046 34.8964 41.6641C34.8964 43.4871 34.3373 45.1814 33.3833 46.587C34.1725 47.1366 34.8875 47.7648 35.5212 48.4573V48.4573ZM40.3456 37.9727C37.6802 37.9727 35.5117 35.8041 35.5117 33.1387C35.5117 30.9302 37.0008 29.0644 39.0273 28.4889V27.8652C39.0273 27.1371 39.6175 26.5469 40.3456 26.5469C41.0737 26.5469 41.664 27.1371 41.664 27.8652V28.4889C43.6905 29.0643 45.1796 30.9302 45.1796 33.1387C45.1796 33.8668 44.5893 34.457 43.8613 34.457C43.1332 34.457 42.5429 33.8668 42.5429 33.1387C42.5429 31.9271 41.5572 30.9414 40.3456 30.9414C39.1341 30.9414 38.1484 31.9271 38.1484 33.1387C38.1484 34.3502 39.1341 35.3359 40.3456 35.3359C43.0111 35.3359 45.1796 37.5045 45.1796 40.1699C45.1796 42.3783 43.6905 44.2442 41.664 44.8197V45.4434C41.664 46.1714 41.0737 46.7617 40.3456 46.7617C39.6175 46.7617 39.0273 46.1714 39.0273 45.4434V44.8197C37.0008 44.2443 35.5117 42.3783 35.5117 40.1699C35.5117 39.4418 36.1019 38.8516 36.83 38.8516C37.5581 38.8516 38.1484 39.4418 38.1484 40.1699C38.1484 41.3815 39.1341 42.3672 40.3456 42.3672C41.5572 42.3672 42.5429 41.3815 42.5429 40.1699C42.5429 38.9583 41.5572 37.9727 40.3456 37.9727V37.9727Z" fill="white"/>
<path d="M54.9513 22.0495C51.0502 18.1484 45.8635 16 40.3465 16C34.8295 16 29.6428 18.1484 25.7417 22.0495C22.0811 25.7101 19.9639 30.5026 19.7168 35.6378C21.1749 34.0921 23.1856 33.0732 25.4297 32.901C27.1093 26.2283 33.1598 21.2734 40.3465 21.2734C48.8275 21.2734 55.7273 28.1733 55.7273 36.6543C55.7273 45.1353 48.8275 52.0352 40.3465 52.0352C39.4606 52.0352 38.5871 51.9604 37.7324 51.8153C38.4603 53.4324 38.8523 55.2078 38.8523 57.0449V57.2548C39.3485 57.2904 39.8467 57.3086 40.3465 57.3086C45.8635 57.3086 51.0502 55.1602 54.9513 51.2591C58.8524 47.358 61.0008 42.1713 61.0008 36.6543C61.0008 31.1373 58.8524 25.9505 54.9513 22.0495V22.0495Z" fill="white"/>
<path d="M31.5699 48.5443C30.0689 49.7385 28.1702 50.4531 26.1074 50.4531C24.0447 50.4531 22.1459 49.7385 20.6449 48.5443C17.8526 50.3448 16 53.4825 16 57.0449V59.6816C16 60.4097 16.5903 61 17.3184 61H34.8965C35.6246 61 36.2148 60.4097 36.2148 59.6816V57.0449C36.2148 53.4825 34.3622 50.3449 31.5699 48.5443Z" fill="white"/>
</g>
<defs>
<clipPath id="clip0">
<rect width="45" height="45" fill="white" transform="translate(16 16)"/>
</clipPath>
</defs>
</svg>
