<svg width="77" height="77" viewBox="0 0 77 77" fill="none" xmlns="http://www.w3.org/2000/svg">
<rect width="77" height="77" rx="25" fill="#342A41"/>
<g clip-path="url(#clip0)">
<path d="M23.9726 37.1794C24.7021 37.1794 25.2933 37.7707 25.2933 38.5C25.2933 39.9564 26.4782 41.1413 27.9346 41.1413C29.3909 41.1413 30.5759 39.9563 30.5759 38.5C30.5759 37.7706 31.1672 37.1794 31.8965 37.1794H37.1792V33.0503C34.9033 32.4624 33.2172 30.3917 33.2172 27.9347C33.2172 25.4776 34.9033 23.4071 37.1792 22.8191V16C25.7813 16.6543 16.6548 25.772 16 37.1794H23.9726Z" fill="white"/>
<path d="M39.8213 23.9726C39.8213 24.7021 39.23 25.2933 38.5007 25.2933C37.0442 25.2933 35.8594 26.4782 35.8594 27.9346C35.8594 29.3909 37.0443 30.5759 38.5007 30.5759C39.2301 30.5759 39.8213 31.1672 39.8213 31.8965V37.1792H43.9504C44.5382 34.9033 46.6089 33.2172 49.0659 33.2172C51.5229 33.2172 53.5936 34.9033 54.1814 37.1792H61.0007C60.3464 25.7813 51.2286 16.6548 39.8213 16V23.9726Z" fill="white"/>
<path d="M37.1794 53.0274C37.1794 52.298 37.7707 51.7067 38.5 51.7067C39.9564 51.7067 41.1413 50.5218 41.1413 49.0654C41.1413 47.6091 39.9564 46.424 38.5 46.424C37.7706 46.424 37.1794 45.8326 37.1794 45.1033V39.8206H33.0503C32.4624 42.0966 30.3917 43.7827 27.9348 43.7827C25.4778 43.7827 23.4071 42.0966 22.8193 39.8206H16C16.6543 51.2187 25.772 60.3452 37.1794 61V53.0274Z" fill="white"/>
<path d="M53.028 39.8206C52.2986 39.8206 51.7074 39.2293 51.7074 38.5C51.7074 37.0436 50.5224 35.8587 49.0661 35.8587C47.6097 35.8587 46.4246 37.0436 46.4246 38.5C46.4246 39.2294 45.8333 39.8206 45.104 39.8206H39.8213V43.9497C42.0972 44.5376 43.7833 46.6083 43.7833 49.0652C43.7833 51.5222 42.0972 53.5929 39.8213 54.1807V61C51.2193 60.3457 60.3459 51.228 61.0006 39.8206H53.028Z" fill="white"/>
</g>
<defs>
<clipPath id="clip0">
<rect width="45" height="45" fill="white" transform="translate(16 16)"/>
</clipPath>
</defs>
</svg>
