<svg width="77" height="77" viewBox="0 0 77 77" fill="none" xmlns="http://www.w3.org/2000/svg">
<rect width="77" height="77" rx="25" fill="#342A41"/>
<g clip-path="url(#clip0)">
<path d="M57.0449 45.0918C56.0613 45.0918 55.1714 45.4657 54.4789 46.062L47.0676 41.878C47.4827 40.8291 47.7285 39.6948 47.7285 38.5C47.7285 36.1788 46.8376 34.0801 45.4173 32.4565L52.9007 23.7237C53.3425 23.8947 53.8184 23.998 54.3203 23.998C56.5011 23.998 58.2754 22.2238 58.2754 20.043C58.2754 17.8622 56.5011 16 54.3203 16C52.1395 16 50.3652 17.8622 50.3652 20.043C50.3652 20.7588 50.5712 21.4214 50.9049 22.0013L43.4284 30.7261C41.9991 29.8167 40.3155 29.2715 38.5 29.2715C37.0807 29.2715 35.751 29.6203 34.5487 30.1954L31.1096 25.0376C31.6044 24.3771 31.9082 23.5665 31.9082 22.6797C31.9082 20.4989 30.1339 18.7246 27.9531 18.7246C25.7723 18.7246 23.998 20.4989 23.998 22.6797C23.998 24.8605 25.7723 26.6348 27.9531 26.6348C28.2875 26.6348 28.6068 26.5805 28.9172 26.5022L32.3583 31.6634C30.4783 33.3539 29.2715 35.7785 29.2715 38.5C29.2715 39.325 29.4153 40.1105 29.6196 40.872L22.85 43.7357C22.1269 42.9536 21.1018 42.4551 19.9551 42.4551C17.7743 42.4551 16 44.2294 16 46.4102C16 48.5909 17.7743 50.3652 19.9551 50.3652C22.1359 50.3652 23.9102 48.5909 23.9102 46.4102C23.9102 46.3243 23.8902 46.2443 23.8851 46.1599L30.6544 43.2962C32.2762 45.9391 35.1663 47.722 38.4859 47.7271L39.3065 53.5599C38.0499 54.2232 37.1816 55.5278 37.1816 57.0449C37.1816 59.2257 38.9559 61 41.1367 61C43.3175 61 45.0918 59.2257 45.0918 57.0449C45.0918 55.1306 43.724 53.531 41.9147 53.1685L41.0911 47.3124C42.9574 46.7614 44.5669 45.6504 45.7383 44.1549L53.1606 48.3458C53.1194 48.5741 53.0898 48.8069 53.0898 49.0469C53.0898 51.2277 54.8641 53.002 57.0449 53.002C59.2257 53.002 61 51.2277 61 49.0469C61 46.8661 59.2257 45.0918 57.0449 45.0918V45.0918Z" fill="white"/>
</g>
<defs>
<clipPath id="clip0">
<rect width="45" height="45" fill="white" transform="translate(16 16)"/>
</clipPath>
</defs>
</svg>
