<svg width="77" height="77" viewBox="0 0 77 77" fill="none" xmlns="http://www.w3.org/2000/svg">
<rect width="77" height="77" rx="25" fill="#342A41"/>
<g clip-path="url(#clip0)">
<path d="M60.4225 33.4186C60.3388 33.0557 60.2463 32.6963 60.1452 32.3404C59.8925 31.4506 59.5864 30.5833 59.2306 29.7421C59.0882 29.4056 58.9381 29.0733 58.7801 28.7455C58.7012 28.5816 58.6201 28.4187 58.5372 28.2569C54.8102 20.9802 47.2361 16 38.4989 16H38.4988H38.4986C29.7616 16 22.1874 20.9802 18.4605 28.2567C18.3776 28.4184 18.2967 28.5814 18.2177 28.7453C17.9807 29.2371 17.7611 29.7389 17.5597 30.2498C17.291 30.9309 17.0547 31.6285 16.8525 32.3402C16.7514 32.6963 16.659 33.0557 16.5752 33.4185C16.1983 35.0515 15.999 36.7524 15.999 38.4999C15.999 40.2474 16.1983 41.9483 16.5752 43.5814C16.659 43.9443 16.7514 44.3037 16.8525 44.6596C17.0547 45.3714 17.2912 46.069 17.5597 46.7502C17.7611 47.2611 17.9807 47.7629 18.2177 48.2547C18.2967 48.4186 18.3776 48.5814 18.4605 48.7433C22.1876 56.0198 29.7616 61 38.4988 61H38.4989H38.4991C47.2363 61 54.8103 56.02 58.5374 48.7433C58.6203 48.5816 58.7012 48.4186 58.7802 48.2547C58.9382 47.9268 59.0884 47.5944 59.2307 47.258C59.5867 46.4169 59.8927 45.5496 60.1454 44.6598C60.2465 44.3037 60.3389 43.9443 60.4227 43.5815C60.7996 41.9485 60.9989 40.2476 60.9989 38.5001C60.9989 36.7526 60.7994 35.0517 60.4225 33.4186ZM48.5925 38.4999L38.4988 51.7559L28.4051 38.4999L38.4988 25.244L48.5925 38.4999Z" fill="white"/>
</g>
<defs>
<clipPath id="clip0">
<rect width="45" height="45" fill="white" transform="translate(16 16)"/>
</clipPath>
</defs>
</svg>
