<svg width="77" height="77" viewBox="0 0 77 77" fill="none" xmlns="http://www.w3.org/2000/svg">
<rect width="77" height="77" rx="25" fill="#342A41"/>
<g clip-path="url(#clip0)">
<path d="M60.4109 44.5207L59.0873 43.6418L40.6876 55.8574C40.0371 56.2892 39.2807 56.5175 38.5 56.5175C37.7194 56.5175 36.9631 56.2892 36.3127 55.8576L17.9129 43.6419L16.5892 44.5208C15.8036 45.0423 15.8036 46.1959 16.5892 46.7174L37.7708 60.7799C38.2127 61.0733 38.7874 61.0733 39.2292 60.7799L60.4108 46.7174C61.1964 46.1959 61.1964 45.0422 60.4109 44.5207V44.5207Z" fill="white"/>
<path d="M60.4098 37.4016L59.0862 36.5228L40.6866 48.7384C40.0362 49.1702 39.2797 49.3985 38.499 49.3985C37.7182 49.3985 36.9618 49.1702 36.3114 48.7384L17.9118 36.5229L16.5882 37.4016C15.8026 37.9232 15.8026 39.0768 16.5882 39.5983L37.7698 53.6608C38.2117 53.9542 38.7864 53.9542 39.2282 53.6608L60.4098 39.5983C61.1953 39.0768 61.1953 37.9232 60.4098 37.4016Z" fill="white"/>
<path d="M16.5882 32.4792L37.7698 46.5417C38.2118 46.8351 38.7864 46.8351 39.2282 46.5417L60.4098 32.4792C61.1954 31.9576 61.1954 30.8041 60.4098 30.2825L39.2282 16.22C38.7864 15.9267 38.2117 15.9267 37.7698 16.22L16.5882 30.2825C15.8026 30.804 15.8026 31.9576 16.5882 32.4792V32.4792ZM45.2887 36.0643C44.886 36.6709 44.0678 36.8362 43.4612 36.4335L38.499 33.1391L33.5368 36.4335C32.9301 36.8362 32.112 36.6709 31.7093 36.0643C31.3065 35.4577 31.4718 34.6395 32.0784 34.2368L37.7698 30.4583C38.2117 30.1649 38.7864 30.1649 39.2282 30.4583L44.9196 34.2368C45.5262 34.6395 45.6914 35.4577 45.2887 36.0643V36.0643ZM26.7169 30.6772L37.7698 23.3392C38.2116 23.0458 38.7863 23.0458 39.2281 23.3392L50.281 30.6772C50.8876 31.0799 51.0528 31.8981 50.6501 32.5047C50.2474 33.1113 49.4292 33.2765 48.8226 32.8738L38.499 26.0199L28.1753 32.8738C27.5686 33.2765 26.7505 33.1112 26.3477 32.5047C25.945 31.8981 26.1104 31.0799 26.7169 30.6772V30.6772Z" fill="white"/>
</g>
<defs>
<clipPath id="clip0">
<rect width="45" height="45" fill="white" transform="translate(16 16)"/>
</clipPath>
</defs>
</svg>
