<svg width="238" height="49" viewBox="0 0 238 49" fill="none" xmlns="http://www.w3.org/2000/svg">
<path d="M156.188 3.93196H159.458V22.0277H156.188V25.5463H166.502V22.0277H162.98V5.31427L163.634 6.44526C163.986 7.07358 164.741 8.43073 165.294 9.46117C165.873 10.4916 166.426 11.497 166.577 11.6478C166.703 11.8237 167.156 12.6279 167.558 13.4071C168.715 15.6942 169.219 16.5989 169.521 16.9509C169.671 17.1268 170.024 17.7551 170.301 18.3331C170.578 18.9112 171.106 19.8913 171.508 20.5197C171.886 21.148 172.515 22.279 172.917 23.033C174.401 25.8479 174.326 25.7976 176.59 25.7976H178.577V3.93196H182.1V0.664673H171.785V3.93196H175.307V19.1374L174.175 17.1519C173.546 16.0712 173.043 15.1412 173.043 15.091C173.043 15.0156 172.615 14.2616 172.062 13.4071C171.534 12.5526 170.326 10.4414 169.37 8.70722C168.414 6.97304 167.407 5.16347 167.131 4.68595C166.854 4.18329 166.225 3.07744 165.747 2.22292L164.866 0.664673H156.188V3.93196Z" fill="#DCDCDC"/>
<path d="M185.395 7.97841C183.03 8.70726 180.439 11.1703 179.584 13.5579C178.829 15.644 178.955 18.7605 179.86 20.7711C180.892 23.008 182.25 24.164 185.597 25.6469C185.923 25.7977 187.357 25.9234 188.741 25.9234C192.137 25.8982 193.898 25.2699 195.961 23.2844C196.791 22.5304 197.445 21.7513 197.445 21.5753C197.445 21.2486 195.08 20.0171 194.427 20.0171C194.225 20.0171 193.898 20.2433 193.747 20.4947C193.571 20.7711 192.917 21.3492 192.288 21.7764C190.93 22.7063 188.917 23.008 187.156 22.5304C185.697 22.1534 183.785 20.2182 183.408 18.7856L183.156 17.7552H197.445V16.8755C197.445 15.6188 196.942 13.4825 196.389 12.4018L195.911 11.4468L197.772 11.5975L198.753 14.7392C199.307 16.4734 199.835 18.107 199.961 18.3835C200.086 18.6599 200.262 19.1626 200.338 19.5144C200.414 19.8663 200.917 21.4245 201.42 22.9577L202.326 25.7977H204.037C206.074 25.7977 205.621 26.5517 207.886 19.4391C208.791 16.5739 209.596 14.2366 209.647 14.2366C209.696 14.2366 209.999 15.0659 210.275 16.0461C210.578 17.0514 210.904 18.107 211.03 18.3835C211.156 18.6599 211.735 20.4444 212.313 22.3545L213.395 25.8228L216.917 25.672L217.244 24.7924C217.395 24.3148 217.923 22.656 218.401 21.1481C218.88 19.615 219.76 16.8252 220.364 14.9151L221.47 11.4719H223.131L222.954 12.6028C222.829 13.5328 222.905 13.9852 223.458 15.091C224.439 17.1017 225.345 17.5541 230.879 18.8609C232.741 19.3134 233.42 19.816 233.42 20.7962C233.42 22.0277 231.885 22.7063 229.395 22.5555C229.018 22.5555 228.263 22.2288 227.684 21.8518C226.829 21.2989 226.578 20.9721 226.451 20.2182L226.301 19.2631H222.854V25.5463H224.615C225.923 25.5463 226.376 25.471 226.376 25.2196C226.376 24.9431 226.653 24.9683 227.71 25.3202C228.49 25.5966 229.747 25.7725 230.829 25.7977C236.313 25.8228 239.156 21.3492 236.313 17.2273C235.483 16.0461 233.948 15.3675 230.879 14.8649C227.81 14.337 226.93 14.0606 226.602 13.4574C226.2 12.6783 226.829 11.6478 228.011 11.2457C229.596 10.6928 231.256 11.0446 232.313 12.1505C232.791 12.628 233.168 13.2312 233.168 13.5077C233.168 13.9349 233.369 13.9852 234.804 13.9852H236.439V7.95328H234.804C233.545 7.95328 233.168 8.02868 233.168 8.30514C233.168 8.63183 233.043 8.63183 232.237 8.28C231.181 7.85274 228.539 7.72708 227.08 8.02868C226.552 8.12922 225.621 8.60677 224.993 9.08424L223.861 9.96391V7.95328H215.785L215.936 11.3462L217.017 11.4216C217.596 11.4719 218.074 11.5222 218.074 11.5724C218.074 11.5975 217.797 12.4521 217.47 13.4322C217.118 14.4376 216.917 15.2419 216.992 15.2419C217.068 15.2419 217.017 15.3926 216.867 15.5434C216.741 15.7193 216.364 16.8252 216.061 18.0065C215.735 19.1877 215.408 20.2936 215.307 20.4947C215.181 20.7209 214.753 19.7155 214.175 17.8556C213.672 16.222 213.017 14.2114 212.766 13.4322C212.137 11.5473 212.162 11.4719 213.043 11.4719H213.797V7.95328H205.244V11.4719H206.98L206.602 12.7788C206.376 13.5077 205.949 14.8899 205.621 15.8702C205.319 16.8252 204.866 18.2829 204.641 19.1123C204.389 19.9165 204.112 20.4947 204.011 20.3689C203.886 20.2433 203.433 18.9615 203.005 17.5038C202.552 16.0461 202.099 14.6387 201.973 14.3622C201.722 13.8344 201.218 11.9745 201.218 11.6478C201.218 11.5473 201.672 11.4719 202.225 11.4719H203.231V7.95328H195.684V11.1451L194.728 10.2404C194.2 9.73771 193.168 9.00889 192.414 8.58163C191.181 7.92815 190.754 7.82762 188.64 7.77735C187.332 7.75221 185.873 7.82762 185.395 7.97841ZM191.03 11.4719C191.86 11.9997 193.143 13.5831 193.496 14.5381C193.647 14.9654 193.295 14.9905 188.514 14.9905C184.288 14.9905 183.357 14.9402 183.357 14.6387C183.357 13.8595 185.018 11.8237 186.125 11.2708C187.533 10.542 189.647 10.6174 191.03 11.4719Z" fill="#DCDCDC"/>
<path d="M147.609 21.0726C147.055 21.7009 146.879 22.1281 146.879 22.9324C146.879 23.8121 147.03 24.1136 147.734 24.7419C148.842 25.7222 149.848 25.9232 150.93 25.4457C152.414 24.7922 152.741 24.3901 152.867 23.058C152.967 21.8768 152.917 21.726 152.162 21.0223C151.458 20.3688 151.181 20.2683 149.848 20.2683C148.489 20.2683 148.288 20.3437 147.609 21.0726Z" fill="#DCDCDC"/>
<path d="M0.212784 24.5409H3.23165V44.1446H0.212784V47.7135L7.45806 47.613C13.848 47.5376 14.804 47.4623 15.8103 47.035C17.7474 46.2307 18.6782 45.4516 19.5838 43.9687C20.4392 42.5864 20.4644 42.4357 20.4644 39.9977C20.4644 37.6101 20.414 37.3839 19.7348 36.3283C18.9549 35.147 18.2253 34.4685 16.9675 33.7899C16.5398 33.5637 16.3134 33.3626 16.4644 33.3375C16.6153 33.3375 17.1436 32.9354 17.6467 32.4578C19.936 30.2462 19.8606 25.6468 17.4958 23.1838C16.9172 22.5806 16.1624 21.9523 15.8354 21.7764C14.5776 21.1481 10.9046 20.771 5.57127 20.771H0.212784V24.5409ZM13.1688 25.1944C14.1499 25.6468 15.0556 27.0794 15.0556 28.1853C15.0556 29.1151 14.1499 30.7488 13.37 31.2515C12.892 31.5782 12.0367 31.729 10.2254 31.7793L7.75995 31.8798V24.4656L10.0241 24.6164C11.3322 24.6918 12.6404 24.9431 13.1688 25.1944ZM14.0744 36.2278C16.5147 37.4091 17.043 40.7015 15.1058 42.7121C14.3008 43.5666 13.37 43.8179 10.2254 44.019L7.75995 44.1949V35.5241L10.4769 35.6497C12.3386 35.7503 13.4455 35.9011 14.0744 36.2278Z" fill="#DCDCDC"/>
<path d="M20.3386 24.5409H23.609V44.1446H20.3386V47.6633H30.4015V44.1446H27.6341L27.5839 32.5081L27.5084 20.8967L20.3386 20.7458V24.5409Z" fill="#DCDCDC"/>
<path d="M67.634 24.5409H70.9044V44.1446H67.634V47.6633H77.9485V44.1446H74.9296V38.9924L83.6087 47.6633H88.7659V44.1446H85.4958L79.2064 37.9117L80.7913 36.6048C81.6468 35.9011 82.5771 35.122 82.8545 34.8958C83.1311 34.6444 83.936 33.9909 84.6653 33.3878C85.8231 32.4327 86.074 32.3322 87.3572 32.3322H88.7659V28.8136L83.5589 28.8639L78.3259 28.9392L78.1749 32.307L80.7407 32.4578L79.458 33.4632C77.9485 34.6444 76.8919 35.4989 75.9611 36.278C75.6089 36.6048 75.2315 36.8561 75.1309 36.8561C75.0303 36.8561 74.9044 33.2621 74.8794 28.8639L74.8039 20.8967L67.634 20.7458V24.5409Z" fill="#DCDCDC"/>
<path d="M105.186 20.9218C105.086 21.0223 105.01 21.8768 105.01 22.8318V24.5409H108.533V44.1446H105.288L105.992 42.4858L104.406 41.7067L102.847 40.9276L101.967 42.0837C100.86 43.5917 99.3754 44.3959 97.514 44.5216C94.7963 44.6976 92.8344 43.1393 92.0544 40.2239C91.0486 36.4036 93.0354 32.684 96.3312 32.1814C98.3944 31.8797 101.011 33.3374 101.363 34.9962C101.463 35.3983 101.564 35.8759 101.64 36.0267C101.689 36.2529 102.293 36.3534 103.501 36.3534H105.262V28.8135H103.501C101.916 28.8135 101.74 28.8638 101.74 29.3161C101.74 29.9445 101.715 29.9445 100.684 29.3413C100.231 29.0649 99.1486 28.713 98.2682 28.537C96.4824 28.1601 94.6459 28.4366 92.7837 29.3161C91.1233 30.1455 89.061 32.2316 88.2561 33.9658C87.6265 35.323 87.5517 35.7502 87.5517 38.1127C87.5517 41.3297 88.1049 42.9382 89.9414 45.175C91.2496 46.7082 91.8277 47.1103 93.866 47.8392C95.0737 48.2665 98.117 48.3921 99.5514 48.0905C100.909 47.814 102.897 46.7333 103.954 45.7029L105.01 44.6473V47.6633H115.576V44.1446H112.558V34.3679L113.287 33.8653C114.495 33.0107 116.659 32.0808 117.463 32.0808C118.52 32.0808 119.275 32.684 119.601 33.7898C119.728 34.3176 119.853 37.5095 119.853 41.179V47.6633H126.897V45.9542C126.922 44.2954 126.922 44.2703 127.3 44.974C127.526 45.3762 128.054 46.0296 128.482 46.4317C129.313 47.1857 131.979 48.1659 133.162 48.1659C134.52 48.1659 137.363 47.06 138.218 46.2056C138.571 45.8536 138.596 45.9039 138.671 46.7333L138.747 47.6633H145.539L145.388 44.2703L142.293 44.1195L142.193 38.163C142.117 31.5782 142.017 31.2011 140.432 29.9696C138.872 28.8135 137.539 28.4366 134.948 28.4616C132.105 28.4868 130.167 29.1151 128.608 30.5226C127.551 31.4776 126.797 32.7091 127.023 33.061C127.098 33.1867 127.903 33.438 128.859 33.5888L130.545 33.8904L131.526 33.0107C133.187 31.5028 135.879 31.4525 137.363 32.9353C138.017 33.5888 138.168 33.9909 138.319 35.323C138.419 36.2026 138.444 36.9566 138.394 37.032C138.319 37.0822 137.664 36.8812 136.91 36.5545C134.923 35.7 131.778 35.7251 130.017 36.655C127.526 37.9619 126.47 39.8972 126.721 42.6869L126.847 44.1446H123.652L123.577 37.786C123.501 31.729 123.476 31.4022 122.948 30.5477C121.79 28.7381 119.023 27.9339 116.507 28.6878C115.199 29.0899 113.413 29.9445 113.187 30.3215C112.709 31.1006 112.558 30.1205 112.507 25.7222L112.432 20.8967L108.885 20.8212C106.948 20.7961 105.288 20.8464 105.186 20.9218ZM136.734 39.9223C138.218 40.7014 138.344 40.827 138.419 41.6564C138.495 42.4607 138.369 42.6869 137.539 43.3655C137.011 43.7928 136.691 44.019 136.439 44.1447C136.187 44.2704 136.205 44.3207 136.08 44.396C135.87 44.5217 135.803 44.5719 135.652 44.597C135.476 44.597 134.923 44.6976 134.444 44.7729C133.212 45.0243 131.501 44.5217 131.023 43.7676C130.797 43.4409 130.57 42.712 130.495 42.1591C130.369 41.2292 130.445 41.0533 131.375 40.1234C132.306 39.1934 132.482 39.1181 133.74 39.1181C134.796 39.1181 135.501 39.3191 136.734 39.9223Z" fill="#DCDCDC"/>
<path d="M36.2881 28.7885C34.6529 29.2409 32.6403 30.3969 31.7347 31.3772C30.829 32.3825 29.7221 34.4434 29.3951 35.8257C28.9674 37.6603 29.1938 40.6512 29.9233 42.511C30.7787 44.6976 33.0177 46.8339 35.3322 47.6633C40.7913 49.6237 46.6026 47.0099 48.4391 41.7571C49.0177 40.0732 49.0177 36.655 48.4391 35.0214C47.7598 33.1364 47.4076 32.5584 46.1246 31.3018C44.7661 29.9697 43.458 29.2409 41.3448 28.6879C39.458 28.2104 38.2253 28.2356 36.2881 28.7885ZM41.5712 33.0359C47.5586 36.3283 44.1623 45.7784 37.5712 44.1196C35.9862 43.7174 34.0994 41.933 33.6969 40.5004C33.0429 38.1379 33.4957 35.8257 34.8794 34.2926C36.7158 32.2568 39.307 31.7793 41.5712 33.0359Z" fill="#DCDCDC"/>
<path d="M56.439 28.713C53.8729 29.3665 51.005 32.106 50.0994 34.7199C49.5459 36.3786 49.5459 40.2994 50.1245 41.8576C50.7031 43.3907 52.6654 46.0548 53.7472 46.7837C55.3572 47.8393 57.0176 48.2665 59.3824 48.2665C60.5899 48.2665 61.8226 48.1408 62.1496 47.99C62.4767 47.8393 63.2062 47.5125 63.81 47.2863C65.0427 46.7585 66.6528 45.2003 67.5333 43.6421C67.8604 43.064 68.1119 42.5362 68.0868 42.511C67.7346 42.2346 65.244 41.1288 64.9673 41.1288C64.7912 41.1288 64.4641 41.4303 64.2629 41.8074C63.1308 43.9939 59.6842 45.2003 57.3194 44.2452C55.4578 43.4913 53.7974 40.6512 53.7974 38.2385C53.7974 34.946 56.3383 32.0809 59.3069 32.0809C60.0616 32.0809 62.3509 33.1365 62.9044 33.7648C63.1308 34.0161 63.4578 34.6947 63.6339 35.2728L63.9358 36.3535H67.3823V28.8136H65.6214C64.0364 28.8136 63.8603 28.8639 63.8603 29.3162C63.8603 29.9195 63.6591 29.9445 62.9296 29.4419C62.2 28.9392 59.6339 28.2858 58.5773 28.3612C58.0994 28.3863 57.1434 28.5371 56.439 28.713Z" fill="#DCDCDC"/>
<path d="M166.98 29.0398C166.175 29.2911 165.042 29.844 164.414 30.2713L163.257 31.0504L163.105 28.9392H156.062V32.4578L159.207 32.6086V44.1446H155.936V47.6633H166.527L166.376 44.2703L163.232 44.1196V34.6695L164.188 34.0161C165.521 33.0861 167.407 32.3322 168.363 32.3322C168.917 32.3322 169.37 32.5332 169.798 32.9856L170.401 33.6391L170.552 47.6633H177.571V44.1446H174.552V38.917C174.552 31.9049 174.124 30.3718 171.911 29.2157C170.578 28.5371 168.69 28.4616 166.98 29.0398Z" fill="#DCDCDC"/>
<path d="M146.049 28.9896C145.949 29.0651 145.873 29.9196 145.873 30.8746V32.5837H148.641V44.1448H145.873V47.6635H155.684V44.1448H152.666V28.8137H149.446C147.659 28.8137 146.125 28.8891 146.049 28.9896Z" fill="#DCDCDC"/>
<path d="M0.212784 24.5409H3.23165V44.1446H0.212784V47.7135L7.45806 47.613C13.848 47.5376 14.804 47.4623 15.8103 47.035C17.7474 46.2307 18.6782 45.4516 19.5838 43.9687C20.4392 42.5864 20.4644 42.4357 20.4644 39.9977C20.4644 37.6101 20.414 37.3839 19.7348 36.3283C18.9549 35.147 18.2253 34.4685 16.9675 33.7899C16.5398 33.5637 16.3134 33.3626 16.4644 33.3375C16.6153 33.3375 17.1436 32.9354 17.6467 32.4578C19.936 30.2462 19.8606 25.6468 17.4958 23.1838C16.9172 22.5806 16.1624 21.9523 15.8354 21.7764C14.5776 21.1481 10.9046 20.771 5.57127 20.771H0.212784V24.5409ZM13.1688 25.1944C14.1499 25.6468 15.0556 27.0794 15.0556 28.1853C15.0556 29.1151 14.1499 30.7488 13.37 31.2515C12.892 31.5782 12.0367 31.729 10.2254 31.7793L7.75995 31.8798V24.4656L10.0241 24.6164C11.3322 24.6918 12.6404 24.9431 13.1688 25.1944ZM14.0744 36.2278C16.5147 37.4091 17.043 40.7015 15.1058 42.7121C14.3008 43.5666 13.37 43.8179 10.2254 44.019L7.75995 44.1949V35.5241L10.4769 35.6497C12.3386 35.7503 13.4455 35.9011 14.0744 36.2278Z" fill="#DCDCDC"/>
<path d="M20.3386 24.5409H23.609V44.1446H20.3386V47.6633H30.4015V44.1446H27.6341L27.5839 32.5081L27.5084 20.8967L20.3386 20.7458V24.5409Z" fill="#DCDCDC"/>
<path d="M67.634 24.5409H70.9044V44.1446H67.634V47.6633H77.9485V44.1446H74.9296V38.9924L83.6087 47.6633H88.7659V44.1446H85.4958L79.2064 37.9117L80.7913 36.6048C81.6468 35.9011 82.5771 35.122 82.8545 34.8958C83.1311 34.6444 83.936 33.9909 84.6653 33.3878C85.8231 32.4327 86.074 32.3322 87.3572 32.3322H88.7659V28.8136L83.5589 28.8639L78.3259 28.9392L78.1749 32.307L80.7407 32.4578L79.458 33.4632C77.9485 34.6444 76.8919 35.4989 75.9611 36.278C75.6089 36.6048 75.2315 36.8561 75.1309 36.8561C75.0303 36.8561 74.9044 33.2621 74.8794 28.8639L74.8039 20.8967L67.634 20.7458V24.5409Z" fill="#DCDCDC"/>
<path d="M105.186 20.9218C105.086 21.0223 105.01 21.8768 105.01 22.8318V24.5409H108.533V44.1446H105.288L105.992 42.4858L104.406 41.7067L102.847 40.9276L101.967 42.0837C100.86 43.5917 99.3754 44.3959 97.514 44.5216C94.7963 44.6976 92.8344 43.1393 92.0544 40.2239C91.0486 36.4036 93.0354 32.684 96.3312 32.1814C98.3944 31.8797 101.011 33.3374 101.363 34.9962C101.463 35.3983 101.564 35.8759 101.64 36.0267C101.689 36.2529 102.293 36.3534 103.501 36.3534H105.262V28.8135H103.501C101.916 28.8135 101.74 28.8638 101.74 29.3161C101.74 29.9445 101.715 29.9445 100.684 29.3413C100.231 29.0649 99.1486 28.713 98.2682 28.537C96.4824 28.1601 94.6459 28.4366 92.7837 29.3161C91.1233 30.1455 89.061 32.2316 88.2561 33.9658C87.6265 35.323 87.5517 35.7502 87.5517 38.1127C87.5517 41.3297 88.1049 42.9382 89.9414 45.175C91.2496 46.7082 91.8277 47.1103 93.866 47.8392C95.0737 48.2665 98.117 48.3921 99.5514 48.0905C100.909 47.814 102.897 46.7333 103.954 45.7029L105.01 44.6473V47.6633H115.576V44.1446H112.558V34.3679L113.287 33.8653C114.495 33.0107 116.659 32.0808 117.463 32.0808C118.52 32.0808 119.275 32.684 119.601 33.7898C119.728 34.3176 119.853 37.5095 119.853 41.179V47.6633H126.897V45.9542C126.922 44.2954 126.922 44.2703 127.3 44.974C127.526 45.3762 128.054 46.0296 128.482 46.4317C129.313 47.1857 131.979 48.1659 133.162 48.1659C134.52 48.1659 137.363 47.06 138.218 46.2056C138.571 45.8536 138.596 45.9039 138.671 46.7333L138.747 47.6633H145.539L145.388 44.2703L142.293 44.1195L142.193 38.163C142.117 31.5782 142.017 31.2011 140.432 29.9696C138.872 28.8135 137.539 28.4366 134.948 28.4616C132.105 28.4868 130.167 29.1151 128.608 30.5226C127.551 31.4776 126.797 32.7091 127.023 33.061C127.098 33.1867 127.903 33.438 128.859 33.5888L130.545 33.8904L131.526 33.0107C133.187 31.5028 135.879 31.4525 137.363 32.9353C138.017 33.5888 138.168 33.9909 138.319 35.323C138.419 36.2026 138.444 36.9566 138.394 37.032C138.319 37.0822 137.664 36.8812 136.91 36.5545C134.923 35.7 131.778 35.7251 130.017 36.655C127.526 37.9619 126.47 39.8972 126.721 42.6869L126.847 44.1446H123.652L123.577 37.786C123.501 31.729 123.476 31.4022 122.948 30.5477C121.79 28.7381 119.023 27.9339 116.507 28.6878C115.199 29.0899 113.413 29.9445 113.187 30.3215C112.709 31.1006 112.558 30.1205 112.507 25.7222L112.432 20.8967L108.885 20.8212C106.948 20.7961 105.288 20.8464 105.186 20.9218ZM136.734 39.9223C138.218 40.7014 138.344 40.827 138.419 41.6564C138.495 42.4607 138.369 42.6869 137.539 43.3655C137.011 43.7928 136.691 44.019 136.439 44.1447C136.187 44.2704 136.205 44.3207 136.08 44.396C135.87 44.5217 135.803 44.5719 135.652 44.597C135.476 44.597 134.923 44.6976 134.444 44.7729C133.212 45.0243 131.501 44.5217 131.023 43.7676C130.797 43.4409 130.57 42.712 130.495 42.1591C130.369 41.2292 130.445 41.0533 131.375 40.1234C132.306 39.1934 132.482 39.1181 133.74 39.1181C134.796 39.1181 135.501 39.3191 136.734 39.9223Z" fill="#DCDCDC"/>
<path d="M36.2881 28.7885C34.6529 29.2409 32.6403 30.3969 31.7347 31.3772C30.829 32.3825 29.7221 34.4434 29.3951 35.8257C28.9674 37.6603 29.1938 40.6512 29.9233 42.511C30.7787 44.6976 33.0177 46.8339 35.3322 47.6633C40.7913 49.6237 46.6026 47.0099 48.4391 41.7571C49.0177 40.0732 49.0177 36.655 48.4391 35.0214C47.7598 33.1364 47.4076 32.5584 46.1246 31.3018C44.7661 29.9697 43.458 29.2409 41.3448 28.6879C39.458 28.2104 38.2253 28.2356 36.2881 28.7885ZM41.5712 33.0359C47.5586 36.3283 44.1623 45.7784 37.5712 44.1196C35.9862 43.7174 34.0994 41.933 33.6969 40.5004C33.0429 38.1379 33.4957 35.8257 34.8794 34.2926C36.7158 32.2568 39.307 31.7793 41.5712 33.0359Z" fill="#DCDCDC"/>
<path d="M56.439 28.713C53.8729 29.3665 51.005 32.106 50.0994 34.7199C49.5459 36.3786 49.5459 40.2994 50.1245 41.8576C50.7031 43.3907 52.6654 46.0548 53.7472 46.7837C55.3572 47.8393 57.0176 48.2665 59.3824 48.2665C60.5899 48.2665 61.8226 48.1408 62.1496 47.99C62.4767 47.8393 63.2062 47.5125 63.81 47.2863C65.0427 46.7585 66.6528 45.2003 67.5333 43.6421C67.8604 43.064 68.1119 42.5362 68.0868 42.511C67.7346 42.2346 65.244 41.1288 64.9673 41.1288C64.7912 41.1288 64.4641 41.4303 64.2629 41.8074C63.1308 43.9939 59.6842 45.2003 57.3194 44.2452C55.4578 43.4913 53.7974 40.6512 53.7974 38.2385C53.7974 34.946 56.3383 32.0809 59.3069 32.0809C60.0616 32.0809 62.3509 33.1365 62.9044 33.7648C63.1308 34.0161 63.4578 34.6947 63.6339 35.2728L63.9358 36.3535H67.3823V28.8136H65.6214C64.0364 28.8136 63.8603 28.8639 63.8603 29.3162C63.8603 29.9195 63.6591 29.9445 62.9296 29.4419C62.2 28.9392 59.6339 28.2858 58.5773 28.3612C58.0994 28.3863 57.1434 28.5371 56.439 28.713Z" fill="#DCDCDC"/>
<path d="M166.98 29.0398C166.175 29.2911 165.042 29.844 164.414 30.2713L163.257 31.0504L163.105 28.9392H156.062V32.4578L159.207 32.6086V44.1446H155.936V47.6633H166.527L166.376 44.2703L163.232 44.1196V34.6695L164.188 34.0161C165.521 33.0861 167.407 32.3322 168.363 32.3322C168.917 32.3322 169.37 32.5332 169.798 32.9856L170.401 33.6391L170.552 47.6633H177.571V44.1446H174.552V38.917C174.552 31.9049 174.124 30.3718 171.911 29.2157C170.578 28.5371 168.69 28.4616 166.98 29.0398Z" fill="#DCDCDC"/>
<path d="M146.049 28.9896C145.949 29.0651 145.873 29.9196 145.873 30.8746V32.5837H148.641V44.1448H145.873V47.6635H155.684V44.1448H152.666V28.8137H149.446C147.659 28.8137 146.125 28.8891 146.049 28.9896Z" fill="#DCDCDC"/>
</svg>
