<svg width="77" height="77" viewBox="0 0 77 77" fill="none" xmlns="http://www.w3.org/2000/svg">
<rect width="77" height="77" rx="25" fill="#342A41"/>
<path d="M57.8125 35.5625H54.9375V28.375C54.9375 27.2313 54.4832 26.1344 53.6744 25.3256C52.8656 24.5169 51.7687 24.0625 50.625 24.0625H43.4375V21.1875C43.4375 19.6625 42.8317 18.2 41.7534 17.1216C40.675 16.0433 39.2125 15.4375 37.6875 15.4375C36.1625 15.4375 34.7 16.0433 33.6216 17.1216C32.5433 18.2 31.9375 19.6625 31.9375 21.1875V24.0625H24.75C23.6063 24.0625 22.5094 24.5169 21.7006 25.3256C20.8919 26.1344 20.4375 27.2313 20.4375 28.375V37C20.4375 37.3812 20.589 37.7469 20.8585 38.0165C21.1281 38.2861 21.4938 38.4375 21.875 38.4375H26.1875C26.95 38.4375 27.6813 38.7404 28.2204 39.2796C28.7596 39.8187 29.0625 40.55 29.0625 41.3125C29.0625 42.075 28.7596 42.8063 28.2204 43.3454C27.6813 43.8846 26.95 44.1875 26.1875 44.1875H21.875C21.4938 44.1875 21.1281 44.3389 20.8585 44.6085C20.589 44.8781 20.4375 45.2438 20.4375 45.625V54.25C20.4375 55.3937 20.8919 56.4906 21.7006 57.2994C22.5094 58.1082 23.6063 58.5625 24.75 58.5625H33.375C33.7562 58.5625 34.1219 58.411 34.3915 58.1415C34.661 57.8719 34.8125 57.5062 34.8125 57.125V52.8125C34.8125 52.05 35.1154 51.3187 35.6546 50.7796C36.1937 50.2404 36.925 49.9375 37.6875 49.9375C38.45 49.9375 39.1813 50.2404 39.7204 50.7796C40.2596 51.3187 40.5625 52.05 40.5625 52.8125V57.125C40.5625 57.5062 40.714 57.8719 40.9835 58.1415C41.2531 58.411 41.6188 58.5625 42 58.5625H50.625C51.7687 58.5625 52.8656 58.1082 53.6744 57.2994C54.4832 56.4906 54.9375 55.3937 54.9375 54.25V47.0625H57.8125C59.3375 47.0625 60.8 46.4567 61.8784 45.3784C62.9567 44.3 63.5625 42.8375 63.5625 41.3125C63.5625 39.7875 62.9567 38.325 61.8784 37.2466C60.8 36.1683 59.3375 35.5625 57.8125 35.5625Z" fill="white"/>
</svg>
