<svg width="77" height="77" viewBox="0 0 77 77" fill="none" xmlns="http://www.w3.org/2000/svg">
<rect width="77" height="77" rx="25" fill="#342A41"/>
<g clip-path="url(#clip0)">
<path d="M38.5 35.4999C50.9264 35.4999 61 32.1421 61 28C61 23.8579 50.9264 20.5 38.5 20.5C26.0736 20.5 16 23.8579 16 28C16 32.1421 26.0736 35.4999 38.5 35.4999Z" fill="white"/>
<path d="M38.5 35.4999C50.9264 35.4999 61 32.1421 61 28C61 23.8579 50.9264 20.5 38.5 20.5C26.0736 20.5 16 23.8579 16 28C16 32.1421 26.0736 35.4999 38.5 35.4999Z" fill="white"/>
<path d="M55.8329 37.5723C51.1364 39.1377 44.9809 39.9999 38.5 39.9999C32.0191 39.9999 25.8635 39.1377 21.1671 37.5723C19.0178 36.8559 17.326 36.0417 16 35.178V38.3499C16 40.3531 18.3403 42.2366 22.5901 43.6531C26.8397 45.0697 32.49 45.8499 38.5 45.8499C44.51 45.8499 50.1603 45.0698 54.4099 43.6532C58.6596 42.2366 61 40.3531 61 38.3499V35.178C59.674 36.0417 57.9822 36.8557 55.8329 37.5723Z" fill="white"/>
<path d="M55.8329 47.9223C51.1366 49.4877 44.9809 50.3499 38.5 50.3499C32.0191 50.3499 25.8634 49.4877 21.1671 47.9222C19.0177 47.2058 17.3259 46.3918 16 45.5281V49C16 53.142 26.0736 56.4999 38.5 56.4999C50.9264 56.4999 61 53.142 61 48.9999V45.5282C59.6742 46.3917 57.9823 47.2059 55.8329 47.9223Z" fill="white"/>
</g>
<defs>
<clipPath id="clip0">
<rect width="45" height="45" fill="white" transform="translate(16 16)"/>
</clipPath>
</defs>
</svg>
