<svg width="77" height="77" viewBox="0 0 77 77" fill="none" xmlns="http://www.w3.org/2000/svg">
<rect width="77" height="77" rx="25" fill="#342A41"/>
<path d="M58.1875 49.75V53.2656C58.1875 55.2048 56.6097 56.7812 54.6719 56.7812H24.4375C21.3353 56.7812 18.8125 54.2584 18.8125 51.1562C18.8125 51.1562 18.8125 27.2711 18.8125 27.25C18.8125 24.1478 21.3353 21.625 24.4375 21.625H50.4531C51.6189 21.625 52.5625 22.57 52.5625 23.7344C52.5625 24.8988 51.6189 25.8438 50.4531 25.8438H24.4375C23.6627 25.8438 23.0312 26.4738 23.0312 27.25C23.0312 28.0262 23.6627 28.6562 24.4375 28.6562H54.6719C56.6097 28.6562 58.1875 30.2327 58.1875 32.1719V35.6875H51.1562C47.2792 35.6875 44.125 38.8417 44.125 42.7188C44.125 46.5958 47.2792 49.75 51.1562 49.75H58.1875Z" fill="white"/>
<path d="M58.1875 38.5V46.9375H51.1562C48.8261 46.9375 46.9375 45.0489 46.9375 42.7188C46.9375 40.3886 48.8261 38.5 51.1562 38.5H58.1875Z" fill="white"/>
</svg>
