<svg width="77" height="77" viewBox="0 0 77 77" fill="none" xmlns="http://www.w3.org/2000/svg">
<rect width="77" height="77" rx="25" fill="#342A41"/>
<g clip-path="url(#clip0)">
<path d="M38.2355 34.6188H38.2542L47.4417 31.4875C47.4792 31.3188 47.4792 31.15 47.4792 31C47.4792 30.8313 47.4605 30.6812 47.4042 30.5312C47.2542 30.1 46.973 29.6313 46.5792 29.2938V25.1875C46.5792 22.15 45.4917 20.95 44.3667 20.2562C43.7855 18.4937 41.3667 16 36.623 16C30.998 16 26.7605 21.5688 26.7605 25.1875C26.7605 26.6875 26.7042 27.8687 26.648 28.7688C26.648 28.9563 26.6292 29.125 26.6292 29.275C26.2167 29.65 25.9355 30.1562 25.8042 30.6438C25.7855 30.7562 25.7667 30.8687 25.7667 31C25.7667 32.4625 26.5917 34.5812 26.7042 34.825C26.8167 35.1437 27.0605 35.4062 27.3792 35.5563C27.398 35.6313 27.4167 35.7437 27.4167 35.9688C27.4167 37.9562 29.123 39.8312 30.0605 40.7312C29.9667 42.7937 29.3855 44.2188 28.5605 44.575L21.2105 47.0125C19.1292 47.7063 17.573 49.3938 17.0292 51.5312L16.0355 55.5062C15.9417 55.9188 16.0355 56.3687 16.298 56.7062C16.5605 57.0437 16.973 57.25 17.4042 57.25H38.423C37.8605 56.5375 37.3355 55.75 36.848 54.9062C35.6105 52.7125 34.748 50.05 34.748 47.0312V39.5125C34.748 37.3 36.1542 35.35 38.2355 34.6188Z" fill="white"/>
<path d="M60.0456 38.1737L50.2019 34.825C49.9094 34.7237 49.5906 34.7237 49.2981 34.825L39.4544 38.1737C38.8825 38.3668 38.5 38.9012 38.5 39.505V47.0387C38.5 56.2337 48.7638 60.7037 49.2006 60.8893C49.5531 61.0375 49.9469 61.0375 50.2994 60.8893C50.7362 60.7018 61 56.2337 61 47.0387V39.505C61 38.9012 60.6175 38.3668 60.0456 38.1737ZM55.9112 45.2837L50.755 51.8462C50.0987 52.6843 48.8688 52.8062 48.0606 52.1125L44.7794 49.3C43.9919 48.6268 43.9 47.4418 44.5769 46.6562C45.25 45.8706 46.435 45.7806 47.2187 46.4537L49.015 47.9931L52.9619 42.97C53.6012 42.1562 54.7788 42.0118 55.5944 42.655C56.41 43.2906 56.5525 44.47 55.9112 45.2837Z" fill="white"/>
</g>
<defs>
<clipPath id="clip0">
<rect width="45" height="45" fill="white" transform="translate(16 16)"/>
</clipPath>
</defs>
</svg>
