<svg width="77" height="77" viewBox="0 0 77 77" fill="none" xmlns="http://www.w3.org/2000/svg">
<rect width="77" height="77" rx="25" fill="#342A41"/>
<path d="M34.5469 34.5449H42.457V42.4551H34.5469V34.5449Z" fill="white"/>
<path d="M38.5 23.9102C30.5036 23.9102 23.9102 30.5036 23.9102 38.5C23.9102 46.4964 30.5036 53.0898 38.5 53.0898C46.4964 53.0898 53.0898 46.4964 53.0898 38.5C53.0898 30.5036 46.4964 23.9102 38.5 23.9102ZM45.0918 43.7734C45.0918 44.5021 44.5021 45.0918 43.7734 45.0918H33.2266C32.4979 45.0918 31.9082 44.5021 31.9082 43.7734V33.2266C31.9082 32.4979 32.4979 31.9082 33.2266 31.9082H43.7734C44.5021 31.9082 45.0918 32.4979 45.0918 33.2266V43.7734Z" fill="white"/>
<path d="M38.5 16C26.1417 16 16 26.1417 16 38.5C16 50.8583 26.1417 61 38.5 61C50.8583 61 61 50.8583 61 38.5C61 26.1417 50.8583 16 38.5 16ZM38.5 55.7266C29.05 55.7266 21.2734 47.95 21.2734 38.5C21.2734 29.05 29.05 21.2734 38.5 21.2734C47.95 21.2734 55.7266 29.05 55.7266 38.5C55.7266 47.95 47.95 55.7266 38.5 55.7266Z" fill="white"/>
</svg>
