<svg width="77" height="77" viewBox="0 0 77 77" fill="none" xmlns="http://www.w3.org/2000/svg">
<rect width="77" height="77" rx="25" fill="#342A41"/>
<path d="M60.6161 30.2916C60.317 29.9925 51.6055 21.2816 51.2945 20.9706C50.7802 20.4563 49.9467 20.4558 49.4319 20.969L45.9802 24.409C45.685 24.4127 41.231 22.7913 37.5666 26.4559L28.3392 35.6832C27.8244 36.198 27.8244 37.0326 28.3392 37.5474C30.9094 40.1177 35.0905 40.116 37.6591 37.5474L39.0134 36.1931C41.2864 37.5773 44.1702 37.4495 46.3084 35.8946L51.677 41.2632C52.2438 41.83 52.6938 42.483 53.0154 43.1904C54.8196 41.0593 56.1448 38.5671 56.9093 35.8499L60.6143 32.158C61.1328 31.6396 61.1285 30.8057 60.6161 30.2916Z" fill="white"/>
<path d="M45.8295 39.1455C43.8347 39.9347 41.6227 39.998 39.5927 39.3406C34.8288 42.5368 30.5631 43.5017 26.4732 39.4118C24.9283 37.8669 24.9274 35.365 26.4732 33.8192L34.9307 25.3617L31.101 24.6261L27.5717 21.0951C27.0559 20.5793 26.221 20.5819 25.7069 21.0951L16.3856 30.4165C15.8715 30.9315 15.8715 31.7663 16.3856 32.2813C18.6845 34.5793 20.3902 37.5338 21.1899 40.5982C21.2462 40.7282 22.4677 46.8148 27.9417 51.4311L32.007 54.861C34.262 56.7645 37.4599 56.9165 39.8696 55.3355L49.1821 49.2306C51.2784 47.8583 51.5859 44.9027 49.8105 43.1273L45.8295 39.1455Z" fill="white"/>
</svg>
