<svg width="77" height="77" viewBox="0 0 77 77" fill="none" xmlns="http://www.w3.org/2000/svg">
<rect width="77" height="77" rx="25" fill="#342A41"/>
<path d="M38.5 16C26.0931 16 16 26.0931 16 38.5C16 50.9069 26.0931 61 38.5 61C50.9069 61 61 50.9069 61 38.5C61 26.0931 50.9069 16 38.5 16ZM51.6044 34.8325L49.5662 46.7069C49.45 47.3819 48.865 47.875 48.1806 47.875H28.8194C28.135 47.875 27.55 47.3819 27.4338 46.7069L25.3956 34.8325C25.3056 34.3131 25.5156 33.7863 25.9375 33.4694C26.3612 33.1506 26.9219 33.1 27.3981 33.3306L32.8244 35.9725L37.2719 27.9719C37.7669 27.0775 39.235 27.0775 39.73 27.9719L44.1775 35.9725L49.6038 33.3306C50.0781 33.1 50.6406 33.1506 51.0644 33.4694C51.4844 33.7863 51.6944 34.3131 51.6044 34.8325Z" fill="white"/>
</svg>
