<svg width="77" height="77" viewBox="0 0 77 77" fill="none" xmlns="http://www.w3.org/2000/svg">
<rect width="77" height="77" rx="25" fill="#342A41"/>
<path d="M50.9168 30.4069C50.6171 30.1156 50.1966 29.9833 49.7851 30.051C49.3728 30.1184 49.0167 30.3772 48.8255 30.7486C48.1677 32.0265 47.3322 33.2008 46.3492 34.2389C46.4472 33.489 46.4966 32.7346 46.4966 31.9782C46.4966 30.5269 46.3021 29.0334 45.9182 27.5386C44.6563 22.6289 41.3472 18.4769 36.8397 16.1472C36.4473 15.9444 35.9797 15.9515 35.5936 16.1662C35.2075 16.3809 34.9547 16.7745 34.92 17.2149C34.5687 21.6766 32.2705 25.7357 28.6113 28.3541C28.5629 28.389 28.5148 28.4244 28.4668 28.4595C28.3672 28.5324 28.2733 28.6013 28.1856 28.6591C28.1719 28.6683 28.1583 28.6776 28.1449 28.6872C25.8436 30.3348 23.9447 32.5312 22.6533 35.0395C21.3411 37.5909 20.6758 40.3288 20.6758 43.1769C20.6758 44.6278 20.8703 46.1213 21.2539 47.6163C23.2785 55.4963 30.3699 60.9999 38.4989 60.9999C48.326 60.9999 56.3209 53.0045 56.3209 43.1769C56.3209 38.3306 54.4017 33.7954 50.9168 30.4069Z" fill="white"/>
</svg>
