<svg width="77" height="77" viewBox="0 0 77 77" fill="none" xmlns="http://www.w3.org/2000/svg">
<rect width="77" height="77" rx="25" fill="#342A41"/>
<path d="M35.6875 30.0618V27.2493H18.8125C17.2628 27.2493 16 28.5121 16 30.0618V35.6868H36.2809C35.89 33.9683 35.6875 32.1177 35.6875 30.0618Z" fill="white"/>
<path d="M60.8847 41.3118C58.9666 44.2677 56.0416 46.7821 51.8509 49.1896C51.2069 49.558 50.4813 49.7493 49.75 49.7493C49.0187 49.7493 48.2931 49.558 47.6575 49.1952C43.4669 46.7821 40.5419 44.2649 38.6209 41.3118H16V55.3743C16 56.9268 17.2628 58.1868 18.8125 58.1868H58.1875C59.74 58.1868 61 56.9268 61 55.3743V41.3118H60.8847ZM28.6562 49.7493H23.0312C22.255 49.7493 21.625 49.1193 21.625 48.343C21.625 47.5668 22.255 46.9368 23.0312 46.9368H28.6562C29.4325 46.9368 30.0625 47.5668 30.0625 48.343C30.0625 49.1193 29.4325 49.7493 28.6562 49.7493Z" fill="white"/>
<path d="M60.1478 23.1459L50.3041 18.9271C49.9469 18.7753 49.5503 18.7753 49.1931 18.9271L39.3494 23.1459C38.8347 23.3653 38.5 23.8743 38.5 24.4368V30.0618C38.5 37.799 41.3603 42.3215 49.0497 46.7512C49.2663 46.875 49.5081 46.9368 49.75 46.9368C49.9919 46.9368 50.2337 46.875 50.4503 46.7512C58.1397 42.3328 61 37.8103 61 30.0618V24.4368C61 23.8743 60.6653 23.3653 60.1478 23.1459ZM55.0684 29.5359L49.4434 36.5671C49.1734 36.899 48.7684 37.0931 48.3438 37.0931C48.3241 37.0931 48.3016 37.0931 48.2847 37.0931C47.8375 37.0734 47.4241 36.8428 47.1737 36.4687L44.3612 32.25C43.9309 31.6031 44.1053 30.7312 44.7522 30.3009C45.3934 29.8734 46.2681 30.0421 46.7013 30.6918L48.4478 33.3103L52.8691 27.7809C53.3556 27.1762 54.2416 27.0806 54.8463 27.5615C55.4538 28.0425 55.5494 28.9284 55.0684 29.5359Z" fill="white"/>
</svg>
