<svg width="158" height="158" viewBox="0 0 158 158" fill="none" xmlns="http://www.w3.org/2000/svg">
<rect width="158" height="158" rx="30" fill="#1D1428"/>
<rect x="40" y="40" width="77" height="77" rx="25" fill="#342A41"/>
<g clip-path="url(#clip0)">
<path d="M100.609 67.0977C100.258 66.6491 99.721 66.3869 99.1519 66.3869H63.9667L63.4437 60.5604C63.3582 59.6076 62.5596 58.8775 61.603 58.8775H57.8481C56.8274 58.8775 56 59.7049 56 60.7256C56 61.7463 56.8274 62.5737 57.8481 62.5737H59.9134L61.9391 85.1416C61.9396 85.1682 61.9382 85.1943 61.9397 85.2211C61.9439 85.292 61.9531 85.3614 61.9649 85.4297L62.039 86.2548C62.0404 86.2704 62.042 86.286 62.0438 86.3014C62.2684 88.2472 63.2628 89.9331 64.7007 91.0721C63.9557 92.0236 63.5098 93.2201 63.5098 94.5195C63.5098 97.609 66.0233 100.122 69.1128 100.122C72.2023 100.122 74.7158 97.609 74.7158 94.5195C74.7158 93.8502 74.5974 93.2082 74.3813 92.6126H84.4962C84.28 93.2082 84.1617 93.8502 84.1617 94.5195C84.1617 97.609 86.6752 100.122 89.7647 100.122C92.8542 100.122 95.3678 97.609 95.3678 94.5195C95.3678 91.4299 92.8542 88.9164 89.7647 88.9164H69.1253C67.7214 88.9164 66.498 88.0695 65.97 86.8355L95.5052 85.0996C96.3115 85.0523 96.9937 84.4866 97.1897 83.703L100.945 68.6832C101.083 68.1312 100.959 67.5463 100.609 67.0977Z" fill="white"/>
</g>
<defs>
<clipPath id="clip0">
<rect width="45" height="45" fill="white" transform="translate(56 57)"/>
</clipPath>
</defs>
</svg>
