<svg width="154" height="48" viewBox="0 0 154 48" fill="none" xmlns="http://www.w3.org/2000/svg">
<path d="M0.197244 0.140503H0V0.338021H0.197244V0.140503Z" fill="#DCDCDC"/>
<path d="M0 0.140503V47.5446H47.3388V0.140503H0ZM17.0084 26.8764V18.4267C17.0084 15.2466 21.1131 13.7198 23.2847 17.4153C23.4426 17.682 26.8628 23.5819 26.8628 23.5819V18.4267C26.8628 15.2466 30.9654 13.7198 33.1371 17.4153C33.2949 17.682 36.7151 23.5819 36.7151 23.5819V15.3217H38.7625V29.1894C38.7677 29.2831 38.7411 29.3759 38.687 29.4526C38.633 29.5293 38.5547 29.5855 38.4647 29.612C38.2477 29.6714 38.0189 29.537 37.8513 29.2525C37.8177 29.1973 36.0761 26.1989 34.4034 23.3013L31.3343 18.0099C30.9043 17.2791 30.2632 17.1507 29.8077 17.2751C29.5452 17.3486 29.3145 17.5075 29.152 17.7267C28.9895 17.946 28.9045 18.213 28.9102 18.4859V29.1894C28.915 29.2831 28.8883 29.3756 28.8342 29.4523C28.7803 29.5289 28.702 29.5852 28.6123 29.612C28.3934 29.6714 28.1646 29.537 27.9989 29.2525C27.9693 29.2032 26.3539 26.4162 24.7937 23.7221C22.8055 20.2892 21.4997 18.0376 21.4799 18.004C21.05 17.2712 20.4069 17.1448 19.9474 17.2692C19.6847 17.3427 19.4538 17.5015 19.291 17.7207C19.1281 17.9397 19.0427 18.2069 19.048 18.48V28.9583C19.039 29.0976 18.9796 29.2289 18.8808 29.3276C18.782 29.4261 18.6506 29.4852 18.5114 29.4936H13.1996C11.7013 29.4936 10.2646 28.8975 9.20511 27.8366C8.1457 26.7758 7.55053 25.337 7.55053 23.8366C7.55053 22.3363 8.1457 20.8975 9.20511 19.8367C10.2646 18.7758 11.7013 18.1797 13.1996 18.1797H15.961V20.2261H13.2233C12.267 20.2261 11.3499 20.6064 10.6737 21.2835C9.99753 21.9607 9.61766 22.879 9.61766 23.8366C9.61766 24.7942 9.99753 25.7126 10.6737 26.3898C11.3499 27.0669 12.267 27.4472 13.2233 27.4472H16.4443C16.519 27.4478 16.5931 27.4333 16.6622 27.4048C16.7312 27.3762 16.794 27.3341 16.8465 27.281C16.8991 27.2277 16.9405 27.1645 16.9682 27.0951C16.9961 27.0256 17.0098 26.9513 17.0084 26.8764ZM41.6186 29.2565C41.6186 32.4366 37.514 33.9634 35.3423 30.2698C35.1864 30.0032 31.7643 24.1013 31.7643 24.1013V29.2565C31.7643 32.4366 27.6616 33.9634 25.49 30.2698C25.3322 30.0032 21.912 24.1013 21.912 24.1013V28.9622C21.912 31.1684 20.6042 32.3634 18.5587 32.3634H13.2036C10.9468 32.3634 8.78247 31.4657 7.18669 29.8677C5.59092 28.2698 4.69442 26.1025 4.69442 23.8425C4.69442 21.5826 5.59092 19.4154 7.18669 17.8174C8.78247 16.2194 10.9468 15.3217 13.2036 15.3217H15.965V17.3679H13.2036C12.3545 17.3679 11.5137 17.5354 10.7292 17.8608C9.9448 18.1862 9.23202 18.6631 8.63164 19.2643C8.03124 19.8656 7.55498 20.5793 7.23005 21.3648C6.90511 22.1504 6.73788 22.9923 6.73788 23.8425C6.73788 24.6928 6.90511 25.5348 7.23005 26.3203C7.55498 27.1058 8.03124 27.8196 8.63164 28.4208C9.23202 29.022 9.9448 29.499 10.7292 29.8243C11.5137 30.1497 12.3545 30.3172 13.2036 30.3172H18.5114C18.8678 30.3102 19.2076 30.1653 19.4597 29.9132C19.7119 29.661 19.8569 29.321 19.8645 28.9642V18.4859C19.8595 18.3924 19.8861 18.3 19.9402 18.2236C19.9943 18.1472 20.0726 18.0914 20.1624 18.0652C20.3793 18.0059 20.6082 18.1402 20.7758 18.4247L24.0875 24.1389C26.0126 27.463 27.277 29.6456 27.2928 29.6693C27.7247 30.4001 28.3677 30.5285 28.8273 30.4021C29.09 30.3284 29.3206 30.1692 29.4827 29.9496C29.645 29.7299 29.7294 29.4624 29.7228 29.1894V18.4879C29.7174 18.3946 29.7434 18.3023 29.7968 18.2256C29.85 18.149 29.9275 18.0925 30.0167 18.0652C30.2317 18.0059 30.4585 18.1402 30.6242 18.4247L33.6934 23.7201L37.1432 29.6752C37.4804 30.2481 37.9499 30.4515 38.3581 30.4515C38.4655 30.4515 38.5723 30.4369 38.6757 30.408C38.9418 30.3364 39.1761 30.1773 39.341 29.9563C39.5059 29.7353 39.5919 29.4652 39.585 29.1894V15.3217H41.6246L41.6186 29.2565Z" fill="#DCDCDC"/>
<path d="M53.0331 10.4593H59.3224C62.6636 10.4593 63.548 12.2306 63.548 14.7891V18.8238C63.548 20.9888 62.5653 22.0712 61.5826 22.4648C62.6636 22.8584 63.9411 23.7441 63.9411 26.401V32.1086C63.9411 34.9624 62.6636 36.9305 59.7155 36.9305H53.0331V10.4593ZM57.0622 14.1004V20.9888H58.2414C59.3224 20.9888 59.6171 20.2015 59.6171 19.119V15.7732C59.6171 14.6908 59.3224 14.1004 58.2414 14.1004H57.0622ZM57.0622 24.925V33.2895H58.2414C59.5189 33.2895 59.8138 32.699 59.8138 31.5182V26.6963C59.8138 25.6138 59.5189 25.0234 58.2414 25.0234L57.0622 24.925ZM65.8082 10.4593H69.9355V31.4198C69.9355 32.6007 70.3286 33.2895 71.2131 33.2895C72.1958 33.2895 72.4906 32.6007 72.4906 31.4198V10.4593H76.6179V31.223C76.6179 34.9624 75.1439 37.3242 71.6062 37.3242H70.9183C67.3806 37.3242 65.9065 35.0609 65.9065 31.223L65.8082 10.4593ZM139.511 37.3242C139.019 37.4226 138.529 37.4226 138.037 37.4226C136.464 37.4226 135.188 37.0289 134.302 36.2416C133.418 35.4544 132.926 34.372 132.926 33.0926V26.8931H136.858V32.1086C136.858 32.6007 136.956 32.9943 137.153 33.2895C137.349 33.5847 137.643 33.6831 138.135 33.6831C138.626 33.6831 138.921 33.5847 139.118 33.2895C139.315 32.8958 139.413 32.6007 139.315 32.207V29.9437C139.315 29.1564 139.019 28.4676 138.626 27.7787C138.234 26.9915 137.349 25.9091 136.17 24.4329C135.285 23.3505 134.499 22.268 133.812 21.0871C133.32 20.2015 133.025 19.3158 133.025 18.5286V14.3955C133.025 13.1163 133.517 12.0338 134.401 11.2465C135.188 10.4593 136.464 10.0657 138.037 10.0657C139.708 10.0657 140.887 10.4593 141.87 11.2465C142.754 12.0338 143.147 13.0178 143.147 14.3955V20.0047H139.216V15.3796C139.216 14.7891 139.118 14.3955 138.921 14.1987C138.823 14.0019 138.529 13.9035 138.037 13.9035C137.643 13.9035 137.251 14.0019 137.153 14.2972C137.054 14.5923 136.858 14.8876 136.858 15.478V17.9381C136.858 18.3318 137.054 18.8238 137.251 19.119C137.545 19.6111 138.135 20.4967 139.118 21.776C140.691 23.7441 141.771 25.1218 142.262 26.1059C142.852 26.9915 143.147 27.7787 143.147 28.3692V33.0926L141.28 35.2577L139.511 37.3242ZM91.0637 10.4593H95.0927V37.0289H91.0637V10.4593ZM101.087 10.4593L104.527 24.7282V10.4593H108.163V37.0289H104.92L101.087 21.776V37.0289H97.4513V10.4593H101.087ZM119.562 10.4593V14.2972H114.452V21.2839H118.481V25.3186H114.452V32.9943H119.759V37.0289H110.423V10.4593H119.562ZM89 14.3955V20.0047H85.0692V15.3796C85.0692 14.7891 84.971 14.3955 84.7744 14.1987C84.5779 14.0019 84.283 13.9035 83.89 13.9035C83.3986 13.9035 83.1038 14.0019 82.9072 14.2972C82.7107 14.494 82.6124 14.8876 82.6124 15.478V17.9381C82.6124 18.3318 82.809 18.8238 83.0056 19.119C83.3003 19.6111 83.89 20.4967 84.8726 21.776C86.445 23.7441 87.5259 25.1218 88.0173 26.1059C88.607 26.9915 88.9017 27.7787 88.9017 28.3692V33.0926C88.9017 34.4703 88.4104 35.4544 87.5259 36.2416C86.6415 37.0289 85.364 37.4226 83.6935 37.4226C82.1211 37.4226 80.8435 37.0289 79.9591 36.2416C79.0747 35.4544 78.5833 34.372 78.5833 33.0926V26.8931H82.5142V32.1086C82.5142 32.6007 82.6124 32.9943 82.809 33.2895C83.0056 33.5847 83.3003 33.6831 83.7917 33.6831C84.2831 33.6831 84.5779 33.5847 84.7744 33.2895C84.971 32.8958 85.0692 32.6007 84.9709 32.207V29.9437C84.9709 29.1564 84.6761 28.4676 84.283 27.7787C83.89 26.9915 83.0056 25.9091 81.8263 24.4329C80.9419 23.3505 80.1556 22.268 79.4678 21.0871C78.9765 20.2015 78.6816 19.3158 78.6816 18.5286V14.3955C78.6816 13.1163 79.173 12.0338 80.0574 11.2465C80.9419 10.4593 82.2193 10.0657 83.89 10.0657C85.5605 10.0657 86.7398 10.4593 87.7225 11.2465C88.5087 12.0338 89 13.0178 89 14.3955ZM131.256 14.3955V20.0047H127.325V15.3796C127.325 14.7891 127.227 14.3955 127.031 14.1987C126.834 14.0019 126.539 13.9035 126.146 13.9035C125.655 13.9035 125.36 14.0019 125.163 14.2972C124.967 14.5923 124.868 14.8876 124.868 15.478V17.9381C124.868 18.3318 125.065 18.8238 125.262 19.119C125.557 19.6111 126.146 20.4967 127.129 21.776C128.701 23.7441 129.782 25.1218 130.274 26.1059C130.863 26.9915 131.158 27.7787 131.158 28.3692V33.0926C131.158 34.4703 130.666 35.4544 129.782 36.2416C128.898 37.0289 127.62 37.4226 125.95 37.4226C124.377 37.4226 123.1 37.0289 122.216 36.2416C121.331 35.4544 120.84 34.372 120.84 33.0926V26.8931H124.771V32.1086C124.771 32.6007 124.868 32.9943 125.065 33.2895C125.262 33.5847 125.557 33.6831 126.047 33.6831C126.539 33.6831 126.834 33.5847 127.031 33.2895C127.227 32.8958 127.325 32.6007 127.227 32.207V29.9437C127.227 29.1564 126.933 28.4676 126.539 27.7787C126.146 26.9915 125.262 25.9091 124.082 24.4329C123.198 23.3505 122.412 22.268 121.724 21.0871C121.233 20.2015 120.938 19.3158 120.938 18.5286V14.3955C120.938 13.1163 121.429 12.0338 122.314 11.2465C123.297 10.4593 124.476 10.0657 126.047 10.0657C127.719 10.0657 128.898 10.4593 129.88 11.2465C130.765 12.0338 131.256 13.0178 131.256 14.3955Z" fill="#DCDCDC"/>
<path d="M153.269 37.029L148.355 31.4199L143.54 37.029H153.269Z" fill="#DCDCDC"/>
</svg>
