<svg width="199" height="32" viewBox="0 0 199 32" fill="none" xmlns="http://www.w3.org/2000/svg">
<g clip-path="url(#clip0)">
<path d="M94.2557 22.7318C94.6146 25.6415 94.3756 28.4316 94.4551 31.2217C94.4551 31.8196 94.1762 31.8595 93.7377 31.8595C92.2229 31.8595 90.6685 31.8196 89.1541 31.8595C88.4762 31.8994 88.3967 31.5805 88.3967 31.0224C88.3967 26.7974 88.3967 22.5724 88.3967 18.3872C88.3967 14.9195 88.3967 11.412 88.3967 7.94422C88.3967 7.26664 88.5162 6.98761 89.2736 7.06735C90.31 7.14705 91.3464 7.14705 92.3428 7.06735C93.1798 6.98761 93.5382 7.30648 93.7377 8.06381C93.8572 8.46238 94.0567 8.86099 94.2162 9.33929C94.6546 8.86099 94.9736 8.46238 95.3721 8.10366C97.8828 5.91146 101.948 6.42961 103.583 9.33929C105.775 13.2853 105.815 17.4704 103.902 21.4563C102.108 25.1632 97.8033 25.801 94.7341 23.0507C94.5746 22.9709 94.4951 22.8912 94.2557 22.7318Z" fill="#DCDCDC"/>
<path d="M152.808 14.4413C154.482 11.9302 156.276 9.81771 157.99 7.62546C158.309 7.18705 158.667 7.02762 159.226 7.02762C161.179 7.06746 163.132 7.02762 165.284 7.02762C164.327 8.22336 163.49 9.21982 162.693 10.2562C161.736 11.4121 160.86 12.6078 159.863 13.7238C159.345 14.2819 159.425 14.6805 159.784 15.2784C161.697 18.188 163.57 21.1376 165.444 24.0472C165.483 24.0871 165.483 24.1667 165.563 24.366C164.128 24.366 162.773 24.2464 161.418 24.4058C159.385 24.645 158.07 24.0472 157.232 22.0942C156.754 20.9383 155.917 19.9418 155.32 18.8656C155.08 18.4272 154.881 18.3475 154.403 18.6663C153.486 19.2642 152.968 19.9817 153.087 21.1775C153.167 22.2138 153.566 23.6487 152.888 24.2464C152.29 24.7645 150.935 24.4058 149.899 24.4058C148.982 24.4058 147.746 24.7247 147.188 24.2464C146.59 23.6885 146.989 22.4529 146.989 21.4963C146.989 14.9196 146.989 8.34295 146.949 1.76626C146.949 0.809653 147.228 0.610357 148.105 0.650218C149.46 0.729935 150.815 0.690074 152.17 0.650218C152.848 0.610357 153.087 0.809653 153.047 1.52711C153.047 5.75214 153.247 9.97715 152.808 14.4413Z" fill="#DCDCDC"/>
<path d="M56.1515 9.61856C57.3074 8.10395 58.4233 7.34662 59.8182 6.9879C62.5284 6.31027 65.3586 7.10744 66.714 9.06051C67.5509 10.2563 67.7899 11.6115 67.8299 13.0065C67.8699 16.554 67.8299 20.1014 67.8699 23.6488C67.8699 24.207 67.7104 24.4063 67.1525 24.3664C65.6376 24.3266 64.0832 24.3266 62.5684 24.3664C61.851 24.4063 61.7715 24.0873 61.7715 23.4894C61.811 20.779 61.7715 18.0287 61.7715 15.3183C61.7715 14.5611 61.7715 13.8037 61.572 13.0464C61.333 12.2891 61.014 11.6912 60.1371 11.5716C59.2202 11.452 58.4233 11.6514 57.8653 12.4485C57.3869 13.166 57.1874 13.9632 57.1079 14.8002C56.8289 17.6302 56.9884 20.5 56.9884 23.3698C56.9884 24.2468 56.749 24.4063 55.912 24.3664C54.4372 24.2867 53.0023 24.3266 51.5274 24.3664C51.0495 24.3664 50.89 24.2468 50.89 23.7684C50.89 18.3874 50.89 13.0065 50.89 7.62564C50.89 7.10744 51.089 6.9879 51.5274 7.02775C51.8464 7.0676 52.2054 7.02775 52.5243 7.02775C54.1982 7.10744 56.271 6.35016 56.1515 9.61856Z" fill="#DCDCDC"/>
<path d="M137.503 22.174C135.629 24.6454 133.038 25.044 130.249 24.486C127.737 23.9677 126.303 21.5761 126.542 18.786C126.821 15.7169 128.534 14.1624 132.082 13.6443C133.437 13.4449 134.792 13.4449 136.148 13.4051C136.785 13.4051 136.865 13.1261 136.746 12.6079C136.546 11.5716 135.669 11.0136 134.394 11.1332C133.118 11.2527 131.923 11.5716 130.767 12.1296C130.089 12.4485 129.85 12.2891 129.611 11.6513C129.252 10.7346 128.814 9.81783 128.415 8.90106C128.295 8.62204 128.136 8.38291 128.574 8.22348C132.122 6.82841 135.749 6.23056 139.416 7.50604C141.529 8.22348 142.605 9.93742 142.764 12.1296C143.004 15.9959 142.804 19.902 142.884 23.7683C142.884 24.3265 142.685 24.486 142.166 24.4063C141.887 24.3664 141.648 24.4063 141.369 24.4063C140.492 24.4063 139.575 24.6056 138.818 24.3265C138.101 24.0075 138.101 22.8516 137.503 22.174Z" fill="#DCDCDC"/>
<path d="M17.2492 20.8987C17.2492 21.098 17.2492 21.2973 17.2492 21.4966C17.2492 23.649 17.2492 23.649 15.0968 24.2071C12.785 24.7651 10.4334 24.8846 8.08168 24.4462C4.65386 23.7685 2.3022 21.7756 1.22601 18.4673C0.10997 14.9598 0.0701114 11.4123 1.42531 7.94466C2.82036 4.35736 5.57061 2.44414 9.31732 1.92598C12.1473 1.52739 14.9374 1.92598 17.608 3.08188C18.0065 3.28117 18.2855 3.40075 18.0464 3.91891C17.5282 5.15452 17.0499 6.39015 16.6114 7.62579C16.4122 8.14394 16.173 8.14394 15.6947 7.94466C14.4192 7.38661 13.1039 6.90831 11.7088 6.86846C9.43691 6.82861 8.04184 7.78522 7.28455 9.93758C6.60692 11.8906 6.56707 13.8437 7.00553 15.8366C7.68312 18.8659 9.91521 20.2211 13.1836 19.5435C14.3395 19.3044 15.4157 18.9855 16.4919 18.547C17.0101 18.3079 17.2891 18.3477 17.2492 19.0253C17.2093 19.6232 17.2492 20.261 17.2492 20.8987Z" fill="#DCDCDC"/>
<path d="M119.048 17.3909C117.494 17.3909 115.94 17.3909 114.385 17.3909C113.827 17.3909 113.707 17.5504 113.867 18.0685C114.265 19.2642 115.063 19.9419 116.259 20.1811C118.331 20.5796 120.284 20.1412 122.198 19.3839C123.233 18.9853 123.233 18.9853 123.233 20.1013C123.233 20.8586 123.194 21.616 123.233 22.3733C123.313 23.1306 123.074 23.4893 122.317 23.7683C119.168 24.8843 115.979 24.964 112.83 24.0473C110.24 23.2501 108.605 21.4166 107.928 18.7461C107.37 16.4742 107.449 14.2023 108.127 11.9702C108.964 9.14018 111.475 7.10741 114.465 6.86824C116.259 6.7088 118.052 6.7088 119.766 7.34654C122.556 8.38285 123.911 10.5352 124.19 13.4051C124.31 14.5211 124.23 15.677 124.27 16.7931C124.31 17.3511 124.031 17.4308 123.552 17.4308C122.078 17.3909 120.563 17.3909 119.048 17.3909Z" fill="#DCDCDC"/>
<path d="M178 17.3906C176.525 17.3906 175.01 17.4305 173.535 17.3906C172.698 17.3508 172.659 17.6696 172.938 18.3074C173.376 19.3836 174.173 20.0213 175.289 20.2206C177.362 20.5793 179.315 20.2206 181.228 19.4234C182.025 19.0647 182.344 19.1444 182.264 20.101C182.185 20.7786 182.185 21.4961 182.264 22.1737C182.384 23.1701 182.025 23.6883 181.069 23.9673C178 24.884 174.891 25.0435 171.861 24.0869C169.271 23.2897 167.636 21.4163 166.999 18.7458C166.44 16.4738 166.52 14.2019 167.198 11.9699C168.035 9.13987 170.586 7.14695 173.575 6.86793C175.329 6.7085 177.123 6.7085 178.797 7.30639C181.666 8.34269 183.062 10.5349 183.301 13.4845C183.38 14.5208 183.301 15.597 183.38 16.6732C183.42 17.2312 183.221 17.3906 182.663 17.3906C181.069 17.3906 179.514 17.3906 178 17.3906Z" fill="#DCDCDC"/>
<path d="M28.9674 24.6453C23.1083 24.6851 20.1189 20.5795 20.3181 15.1588C20.3979 13.3651 20.7168 11.6113 21.7929 10.0568C23.5866 7.46603 26.2172 6.7087 29.1667 6.74855C34.1092 6.82829 37.3776 10.017 37.537 14.9594C37.6167 17.1915 37.3377 19.3439 36.0622 21.2571C34.5078 23.6088 32.2358 24.6453 28.9674 24.6453Z" fill="#DCDCDC"/>
<path d="M77.2361 24.6451C75.5222 24.6451 73.8484 24.4856 72.214 23.9676C71.6561 23.8081 71.3771 23.6089 71.4171 22.9711C71.4966 21.8949 71.4966 20.8586 71.4171 19.7824C71.3371 18.8258 71.6961 18.8657 72.4135 19.1447C74.0078 19.7824 75.6817 20.181 77.4355 20.181C77.7945 20.181 78.153 20.1411 78.5119 20.0614C78.8304 19.9817 79.1494 19.8621 79.2294 19.4635C79.2689 19.0649 79.0699 18.786 78.7509 18.6664C77.9935 18.2678 77.1965 17.909 76.3991 17.5902C75.3627 17.1518 74.3268 16.7133 73.4099 16.0756C71.5366 14.7602 71.1381 12.847 71.4966 10.7743C71.935 8.54225 73.6094 7.4661 75.6817 7.06749C78.6314 6.4696 81.5012 6.78847 84.2514 7.94441C84.7694 8.18354 84.8893 8.34297 84.6499 8.90097C84.2514 9.77789 83.8929 10.6548 83.534 11.5715C83.3345 12.0897 83.0955 12.1694 82.5775 11.9701C81.4217 11.5317 80.3053 11.0534 79.0699 10.9338C78.9104 10.9338 78.7509 10.8541 78.5914 10.8939C78.0735 10.9338 77.3955 10.8541 77.276 11.4918C77.1566 12.0897 77.7545 12.289 78.2329 12.4883C79.5483 13.0861 80.8632 13.5644 82.1391 14.2022C84.5304 15.4378 85.4473 17.3909 84.9688 20.181C84.6104 22.3334 82.976 23.8878 80.5843 24.3661C79.5083 24.6052 78.392 24.6451 77.2361 24.6451Z" fill="#DCDCDC"/>
<path d="M192.149 9.89747C192.587 9.33942 192.906 8.90096 193.305 8.46255C194.7 6.98774 196.414 6.54933 198.407 6.82831C198.805 6.8682 199.005 6.98774 198.965 7.4262C198.805 8.90096 198.646 10.3757 198.526 11.8904C198.487 12.4883 198.287 12.6876 197.689 12.568C196.892 12.4085 196.095 12.4085 195.298 12.568C193.823 12.847 192.986 13.6442 192.827 15.1189C192.587 17.3909 192.747 19.7027 192.707 21.9746C192.667 24.3261 192.707 24.3261 190.355 24.3261C189.319 24.3261 188.283 24.2863 187.286 24.3261C186.808 24.3261 186.688 24.1667 186.688 23.6885C186.688 18.3076 186.688 12.9267 186.688 7.54579C186.688 7.02764 186.888 6.94789 187.326 6.94789C188.402 6.98774 189.439 6.98774 190.515 6.94789C191.113 6.90805 191.312 7.14718 191.471 7.66538C191.631 8.42266 191.87 9.0604 192.149 9.89747Z" fill="#DCDCDC"/>
<path d="M40.8055 15.7168C40.8055 13.126 40.8453 10.5352 40.8055 7.9444C40.8055 7.18707 41.0048 6.98779 41.7621 7.02764C43.197 7.06753 44.6319 7.06753 46.0269 7.02764C46.7444 6.98779 46.9039 7.26681 46.9039 7.9444C46.864 13.1659 46.864 18.3874 46.9039 23.569C46.9039 24.2465 46.6647 24.4059 46.0668 24.366C44.5921 24.3261 43.0774 24.3261 41.6027 24.366C40.9649 24.4059 40.8453 24.1667 40.8453 23.569C40.8055 20.9782 40.8055 18.3475 40.8055 15.7168Z" fill="#DCDCDC"/>
<path d="M43.8345 5.47323C41.3632 5.47323 40.2472 4.19773 40.7653 1.92579C40.8052 1.76635 40.8451 1.60691 40.9248 1.44748C41.5227 0.172004 44.1932 -0.346159 45.8274 0.451015C46.9833 1.0489 47.4617 2.8824 46.784 4.19773C46.3057 5.11446 45.4288 5.47323 43.8345 5.47323Z" fill="#DCDCDC"/>
<path d="M98.9594 15.6373C98.9594 16.554 98.8794 17.5106 98.6004 18.3876C98.3215 19.1847 97.843 19.7029 96.9661 19.7826C96.0897 19.8623 95.3322 19.5036 95.0133 18.7064C94.2159 16.6736 94.1763 14.6409 95.0133 12.6081C95.3322 11.8109 96.0897 11.5717 96.9266 11.6116C97.7235 11.6514 98.242 12.0102 98.5605 12.7276C98.9194 13.6444 98.9989 14.6409 98.9594 15.6373Z" fill="#1D1D1D"/>
<path d="M135.869 16.7927C136.825 16.4738 136.905 17.0717 136.865 17.9088C136.785 19.2241 135.988 20.2205 134.713 20.38C133.915 20.4996 133.158 20.38 132.839 19.4633C132.52 18.6661 132.839 17.7493 133.596 17.3109C134.274 16.8724 135.032 16.7927 135.869 16.7927Z" fill="#1D1D1D"/>
<path d="M116.298 13.5645C115.7 13.5645 115.102 13.5247 114.504 13.5645C114.026 13.6044 113.866 13.4051 113.946 12.9268C114.145 11.8107 115.102 11.0136 116.258 10.9737C117.454 10.9339 118.41 11.6115 118.689 12.7275C118.848 13.2855 118.769 13.6442 118.091 13.5645C117.454 13.5247 116.856 13.5645 116.298 13.5645Z" fill="#1D1D1D"/>
<path d="M175.288 13.5645C174.691 13.5645 174.093 13.5645 173.495 13.5645C173.016 13.6044 172.857 13.4449 172.937 12.9268C173.136 11.8107 174.053 11.0136 175.209 10.9737C176.405 10.9339 177.361 11.6115 177.64 12.7275C177.799 13.2457 177.759 13.6442 177.042 13.5645C176.484 13.5247 175.886 13.5247 175.288 13.5645Z" fill="#1D1D1D"/>
<path d="M31.3989 15.7567C31.4388 16.7532 31.3192 17.7496 30.9605 18.7062C30.6416 19.5831 30.0039 20.1412 29.0074 20.181C28.0109 20.2209 27.2536 19.7426 26.9347 18.7859C26.2173 16.793 26.2173 14.7602 26.8949 12.7274C27.2138 11.7708 27.9711 11.2925 28.9675 11.3324C29.964 11.3324 30.6416 11.8904 31.0004 12.8071C31.3591 13.7638 31.4388 14.7602 31.3989 15.7567Z" fill="#1D1D1D"/>
</g>
<defs>
<clipPath id="clip0">
<rect width="199" height="31.9905" fill="white"/>
</clipPath>
</defs>
</svg>
