<svg width="77" height="77" viewBox="0 0 77 77" fill="none" xmlns="http://www.w3.org/2000/svg">
<rect width="77" height="77" rx="25" fill="#342A41"/>
<path d="M53.5 16H23.5C19.3637 16 16 19.3637 16 23.5V53.5C16 57.6363 19.3637 61 23.5 61H53.5C57.6363 61 61 57.6363 61 53.5V23.5C61 19.3637 57.6363 16 53.5 16ZM57.25 53.5C57.25 55.57 55.57 57.25 53.5 57.25H23.5C21.4319 57.25 19.75 55.57 19.75 53.5V23.5C19.75 21.4319 21.4319 19.75 23.5 19.75H53.5C55.57 19.75 57.25 21.4319 57.25 23.5V53.5Z" fill="#FFFEFB"/>
<path d="M50.6875 29.125H26.3125C25.2775 29.125 24.4375 29.965 24.4375 31C24.4375 32.035 25.2775 32.875 26.3125 32.875H50.6875C51.7225 32.875 52.5625 32.035 52.5625 31C52.5625 29.965 51.7225 29.125 50.6875 29.125Z" fill="#FFFEFB"/>
<path d="M50.6875 36.625H26.3125C25.2775 36.625 24.4375 37.465 24.4375 38.5C24.4375 39.535 25.2775 40.375 26.3125 40.375H50.6875C51.7225 40.375 52.5625 39.535 52.5625 38.5C52.5625 37.465 51.7225 36.625 50.6875 36.625Z" fill="#FFFEFB"/>
<path d="M38.5 44.125H26.3125C25.2775 44.125 24.4375 44.965 24.4375 46C24.4375 47.035 25.2775 47.875 26.3125 47.875H38.5C39.535 47.875 40.375 47.035 40.375 46C40.375 44.965 39.535 44.125 38.5 44.125Z" fill="#FFFEFB"/>
</svg>
