<svg width="1802" height="228" viewBox="0 0 1802 228" fill="none" xmlns="http://www.w3.org/2000/svg">
<path d="M152.677 64.1655V69.1655H158.417L157.63 63.4797L152.677 64.1655ZM152.677 119.624L157.625 120.345L158.454 114.654L152.704 114.624L152.677 119.624ZM122.13 119.46L122.157 114.46L118.018 114.438L117.223 118.499L122.13 119.46ZM122.13 64.1655L117.205 65.0298L117.931 69.1655H122.13V64.1655ZM157.63 63.4797C154.894 43.7253 145.868 27.8652 132.388 16.9773C118.944 6.11854 101.37 0.440335 81.8636 0.440335V10.4403C99.4386 10.4403 114.698 15.5434 126.104 24.7566C137.474 33.9406 145.314 47.443 147.724 64.8512L157.63 63.4797ZM81.8636 0.440335C58.7555 0.440335 38.2313 8.89064 23.5098 24.7209C8.80582 40.5324 0.251421 63.3092 0.251421 91.3636H10.2514C10.2514 65.3485 18.1548 45.1636 30.8327 31.5309C43.4931 17.9169 61.275 10.4403 81.8636 10.4403V0.440335ZM0.251421 91.3636C0.251421 119.362 8.69481 142.14 23.3492 157.968C38.0257 173.82 58.557 182.287 81.8636 182.287V172.287C61.0652 172.287 43.2903 164.787 30.6871 151.174C18.0616 137.537 10.2514 117.353 10.2514 91.3636H0.251421ZM81.8636 182.287C124.088 182.287 152.606 154.771 157.625 120.345L147.729 118.902C143.437 148.347 119.192 172.287 81.8636 172.287V182.287ZM152.704 114.624L122.157 114.46L122.103 124.46L152.65 124.624L152.704 114.624ZM117.223 118.499C113.921 135.36 100.318 145.089 82.272 145.089V155.089C104.247 155.089 122.661 142.765 127.037 120.421L117.223 118.499ZM82.272 145.089C70.0525 145.089 59.875 140.556 52.6641 131.918C45.3747 123.185 40.7166 109.761 40.7166 91.3636H30.7166C30.7166 111.354 35.778 127.293 44.9871 138.326C54.2749 149.453 67.3751 155.089 82.272 155.089V145.089ZM40.7166 91.3636C40.7166 73.3017 45.3299 59.8632 52.628 51.0368C59.8469 42.3061 70.0497 37.6385 82.3537 37.6385V27.6385C67.2962 27.6385 54.1804 33.4663 44.9212 44.6645C35.7411 55.7671 30.7166 71.6912 30.7166 91.3636H40.7166ZM82.3537 37.6385C100.625 37.6385 114.173 47.7505 117.205 65.0298L127.055 63.3011C123.063 40.5591 104.757 27.6385 82.3537 27.6385V37.6385ZM122.13 69.1655H152.677V59.1655H122.13V69.1655ZM190.619 175H185.619V180H190.619V175ZM220.186 175V180H225.186V175H220.186ZM262.168 75.7635L260.633 80.522L267.168 82.6301V75.7635H262.168ZM262.168 48.5653H267.168V44.3925L263.062 43.646L262.168 48.5653ZM220.595 70.4545V75.4545H224.263L225.364 71.9551L220.595 70.4545ZM219.288 70.4545H214.288V75.4545H219.288V70.4545ZM219.288 49.5455H224.288V44.5455H219.288V49.5455ZM190.619 49.5455V44.5455H185.619V49.5455H190.619ZM190.619 180H220.186V170H190.619V180ZM225.186 175V101.246H215.186V175H225.186ZM225.186 101.246C225.186 88.2937 234.737 79.0483 248.446 79.0483V69.0483C229.649 69.0483 215.186 82.3455 215.186 101.246H225.186ZM248.446 79.0483C253.094 79.0483 258.748 79.914 260.633 80.522L263.703 71.0049C260.524 69.9795 253.763 69.0483 248.446 69.0483V79.0483ZM267.168 75.7635V48.5653H257.168V75.7635H267.168ZM263.062 43.646C259.98 43.0856 255.007 42.7486 251.55 42.7486V52.7486C254.627 52.7486 258.965 53.065 261.273 53.4847L263.062 43.646ZM251.55 42.7486C235.074 42.7486 221.079 52.2556 215.825 68.954L225.364 71.9551C229.258 59.5768 239.276 52.7486 251.55 52.7486V42.7486ZM220.595 65.4545H219.288V75.4545H220.595V65.4545ZM224.288 70.4545V49.5455H214.288V70.4545H224.288ZM219.288 44.5455H190.619V54.5455H219.288V44.5455ZM185.619 49.5455V175H195.619V49.5455H185.619ZM358.958 190.192L354.252 188.503L354.249 188.511L354.246 188.519L358.958 190.192ZM409.352 49.7088L414.059 51.3971L416.445 44.7454L409.378 44.7089L409.352 49.7088ZM377.744 49.5455L377.769 44.5455L374.051 44.5263L372.962 48.0823L377.744 49.5455ZM348.749 144.29V149.29H352.447L353.53 145.753L348.749 144.29ZM347.442 144.29L342.659 145.749L343.74 149.29H347.442V144.29ZM318.528 49.5455L323.311 48.086L322.23 44.5455H318.528V49.5455ZM287.165 49.5455V44.5455H280.083L282.453 51.2191L287.165 49.5455ZM332.658 177.614L337.342 179.363L337.98 177.657L337.37 175.94L332.658 177.614ZM330.126 184.393L334.796 186.18L334.803 186.161L334.81 186.142L330.126 184.393ZM303.092 195.909L304.489 191.108L299.718 189.719L298.3 194.482L303.092 195.909ZM296.231 218.942L291.439 217.514L290.145 221.858L294.341 223.571L296.231 218.942ZM315.506 227.045C327.922 227.045 338.136 223.835 346.255 217.585C354.326 211.372 359.898 202.486 363.67 191.865L354.246 188.519C350.912 197.908 346.275 204.949 340.155 209.661C334.083 214.335 326.124 217.045 315.506 217.045V227.045ZM363.664 191.88L414.059 51.3971L404.646 48.0205L354.252 188.503L363.664 191.88ZM409.378 44.7089L377.769 44.5455L377.718 54.5454L409.326 54.7087L409.378 44.7089ZM372.962 48.0823L343.967 142.827L353.53 145.753L382.525 51.0086L372.962 48.0823ZM348.749 139.29H347.442V149.29H348.749V139.29ZM352.224 142.83L323.311 48.086L313.746 51.0049L342.659 145.749L352.224 142.83ZM318.528 44.5455H287.165V54.5455H318.528V44.5455ZM282.453 51.2191L327.947 179.287L337.37 175.94L291.876 47.8718L282.453 51.2191ZM327.974 175.864L325.442 182.643L334.81 186.142L337.342 179.363L327.974 175.864ZM325.457 182.605C323.011 188.993 320.298 191.307 317.744 192.201C314.845 193.216 310.763 192.935 304.489 191.108L301.694 200.71C308.325 202.64 315.024 203.748 321.048 201.639C327.418 199.409 331.769 194.086 334.796 186.18L325.457 182.605ZM298.3 194.482L291.439 217.514L301.023 220.369L307.884 197.336L298.3 194.482ZM294.341 223.571C299.077 225.504 306.935 227.045 315.506 227.045V217.045C307.906 217.045 301.389 215.647 298.12 214.313L294.341 223.571ZM441.373 222.045H436.373V227.045H441.373V222.045ZM470.94 222.045V227.045H475.94V222.045H470.94ZM470.94 155.234V150.234H465.94V155.234H470.94ZM472.165 155.234L476.621 152.967L475.231 150.234H472.165V155.234ZM472.165 70.2912V75.2912H475.268L476.645 72.5111L472.165 70.2912ZM470.45 70.2912H465.45V75.2912H470.45V70.2912ZM470.45 49.5455H475.45V44.5455H470.45V49.5455ZM441.373 49.5455V44.5455H436.373V49.5455H441.373ZM441.373 227.045H470.94V217.045H441.373V227.045ZM475.94 222.045V155.234H465.94V222.045H475.94ZM470.94 160.234H472.165V150.234H470.94V160.234ZM467.709 157.502C470.234 162.463 474.25 168.663 480.763 173.627C487.355 178.65 496.244 182.205 508.103 182.205V172.205C498.4 172.205 491.647 169.349 486.825 165.673C481.924 161.939 478.752 157.153 476.621 152.967L467.709 157.502ZM508.103 182.205C524.3 182.205 538.654 175.739 548.875 163.528C559.036 151.388 564.804 133.961 564.804 112.436H554.804C554.804 132.239 549.504 147.197 541.207 157.109C532.969 166.951 521.473 172.205 508.103 172.205V182.205ZM564.804 112.436C564.804 90.6429 558.86 73.2615 548.586 61.2432C538.264 49.1688 523.901 42.9119 508.021 42.9119V52.9119C521.137 52.9119 532.665 58.008 540.985 67.7412C549.354 77.5304 554.804 92.4111 554.804 112.436H564.804ZM508.021 42.9119C495.857 42.9119 486.916 46.6028 480.374 51.7816C473.923 56.8888 470.091 63.2151 467.685 68.0713L476.645 72.5111C478.731 68.3012 481.761 63.4379 486.581 59.622C491.311 55.8777 498.051 52.9119 508.021 52.9119V42.9119ZM472.165 65.2912H470.45V75.2912H472.165V65.2912ZM475.45 70.2912V49.5455H465.45V70.2912H475.45ZM470.45 44.5455H441.373V54.5455H470.45V44.5455ZM436.373 49.5455V222.045H446.373V49.5455H436.373ZM475.368 112.273C475.368 100.725 477.862 91.849 482.042 86.0018C486.075 80.3611 491.916 77.1697 499.854 77.1697V67.1697C488.761 67.1697 479.859 71.8601 473.907 80.186C468.102 88.3055 465.368 99.4807 465.368 112.273H475.368ZM499.854 77.1697C508.062 77.1697 513.99 80.5583 518.05 86.3359C522.256 92.3229 524.665 101.222 524.665 112.273H534.665C534.665 99.9645 532.011 88.8117 526.232 80.5871C520.306 72.1529 511.329 67.1697 499.854 67.1697V77.1697ZM524.665 112.273C524.665 123.396 522.219 132.456 517.971 138.582C513.862 144.507 507.922 147.947 499.854 147.947V157.947C511.306 157.947 520.272 152.812 526.188 144.28C531.966 135.949 534.665 124.672 534.665 112.273H524.665ZM499.854 147.947C492.075 147.947 486.218 144.679 482.125 138.861C477.896 132.848 475.368 123.804 475.368 112.273H465.368C465.368 125.081 468.15 136.374 473.946 144.614C479.879 153.048 488.764 157.947 499.854 157.947V147.947ZM659.269 49.5455H664.269V44.5455H659.269V49.5455ZM634.521 49.5455H629.521V54.5455H634.521V49.5455ZM634.521 19.4886H639.521V14.4886H634.521V19.4886ZM604.954 19.4886V14.4886H599.954V19.4886H604.954ZM604.954 49.5455V54.5455H609.954V49.5455H604.954ZM587.149 49.5455V44.5455H582.149V49.5455H587.149ZM587.149 72.4148H582.149V77.4148H587.149V72.4148ZM604.954 72.4148H609.954V67.4148H604.954V72.4148ZM604.954 142.166L609.954 142.201L609.954 142.183V142.166H604.954ZM644.159 176.715L644.013 171.717L644.012 171.717L644.159 176.715ZM661.556 173.775L663.137 178.518L667.388 177.101L666.444 172.721L661.556 173.775ZM656.574 150.661L661.461 149.607L660.373 144.557L655.361 145.81L656.574 150.661ZM634.521 72.4148V67.4148H629.521V72.4148H634.521ZM659.269 72.4148V77.4148H664.269V72.4148H659.269ZM659.269 44.5455H634.521V54.5455H659.269V44.5455ZM639.521 49.5455V19.4886H629.521V49.5455H639.521ZM634.521 14.4886H604.954V24.4886H634.521V14.4886ZM599.954 19.4886V49.5455H609.954V19.4886H599.954ZM604.954 44.5455H587.149V54.5455H604.954V44.5455ZM582.149 49.5455V72.4148H592.149V49.5455H582.149ZM587.149 77.4148H604.954V67.4148H587.149V77.4148ZM599.954 72.4148V142.166H609.954V72.4148H599.954ZM599.954 142.132C599.864 155.257 604.645 165.567 612.997 172.406C621.219 179.139 632.353 182.065 644.306 181.713L644.012 171.717C633.749 172.019 625.199 169.473 619.332 164.669C613.595 159.971 609.882 152.68 609.954 142.201L599.954 142.132ZM644.304 181.713C653.327 181.45 659.619 179.691 663.137 178.518L659.975 169.031C657.122 169.982 651.816 171.49 644.013 171.717L644.304 181.713ZM666.444 172.721L661.461 149.607L651.686 151.714L656.668 174.828L666.444 172.721ZM655.361 145.81C653.883 146.179 650.992 146.804 647.916 146.804V156.804C652.191 156.804 655.998 155.958 657.786 155.511L655.361 145.81ZM647.916 146.804C644.617 146.804 642.791 146.189 641.747 145.264C640.82 144.442 639.521 142.477 639.521 137.266H629.521C629.521 143.979 631.204 149.283 635.115 152.749C638.912 156.112 643.782 156.804 647.916 156.804V146.804ZM639.521 137.266V72.4148H629.521V137.266H639.521ZM634.521 77.4148H659.269V67.4148H634.521V77.4148ZM664.269 72.4148V49.5455H654.269V72.4148H664.269ZM748.872 182.45C768.481 182.45 784.901 175.508 796.388 163.043C807.836 150.622 813.985 133.154 813.985 112.763H803.985C803.985 131.167 798.456 146.044 789.035 156.267C779.653 166.447 766.017 172.45 748.872 172.45V182.45ZM813.985 112.763C813.985 92.3332 807.837 74.8271 796.393 62.3748C784.907 49.878 768.486 42.9119 748.872 42.9119V52.9119C766.012 52.9119 779.647 58.9324 789.03 69.1416C798.454 79.3952 803.985 94.3145 803.985 112.763H813.985ZM748.872 42.9119C729.257 42.9119 712.836 49.878 701.351 62.3748C689.906 74.8271 683.758 92.3332 683.758 112.763H693.758C693.758 94.3145 699.29 79.3952 708.714 69.1416C718.096 58.9324 731.732 52.9119 748.872 52.9119V42.9119ZM683.758 112.763C683.758 133.154 689.908 150.622 701.355 163.043C712.842 175.508 729.263 182.45 748.872 182.45V172.45C731.727 172.45 718.09 166.447 708.709 156.267C699.288 146.044 693.758 131.167 693.758 112.763H683.758ZM749.035 148.764C740.599 148.764 734.539 145.115 730.392 139.018C726.102 132.709 723.733 123.529 723.733 112.681H713.733C713.733 124.784 716.347 136.146 722.123 144.641C728.043 153.347 737.134 158.764 749.035 158.764V148.764ZM723.733 112.681C723.733 101.833 726.102 92.5831 730.403 86.2061C734.563 80.0385 740.626 76.353 749.035 76.353V66.353C737.107 66.353 728.019 71.8561 722.112 80.6147C716.347 89.1641 713.733 100.578 713.733 112.681H723.733ZM749.035 76.353C757.25 76.353 763.237 80.0105 767.371 86.1905C771.642 92.5748 774.01 101.834 774.01 112.681H784.01C784.01 100.577 781.397 89.1724 775.683 80.6304C769.832 71.8841 760.831 66.353 749.035 66.353V76.353ZM774.01 112.681C774.01 123.528 771.642 132.717 767.381 139.033C763.261 145.143 757.277 148.764 749.035 148.764V158.764C760.804 158.764 769.808 153.319 775.672 144.625C781.397 136.138 784.01 124.785 784.01 112.681H774.01ZM954.046 132.12L959.031 132.518L959.461 127.12H954.046V132.12ZM925.786 132.12V127.12H921.638L920.872 131.197L925.786 132.12ZM925.786 92.9972L920.874 93.9266L921.644 97.9972H925.786V92.9972ZM954.046 92.9972V97.9972H959.436L959.032 92.6228L954.046 92.9972ZM900.303 182.45C917.064 182.45 931.194 177.466 941.477 168.547C951.778 159.614 957.873 147.027 959.031 132.518L949.062 131.723C948.096 143.84 943.083 153.918 934.925 160.993C926.75 168.083 915.07 172.45 900.303 172.45V182.45ZM954.046 127.12H925.786V137.12H954.046V127.12ZM920.872 131.197C919.793 136.94 917.256 141.156 913.896 143.943C910.532 146.733 906.025 148.356 900.548 148.356V158.356C908.058 158.356 914.905 156.099 920.28 151.64C925.659 147.179 929.248 140.776 930.7 133.043L920.872 131.197ZM900.548 148.356C892.877 148.356 886.771 145.225 882.437 139.435C877.99 133.495 875.165 124.392 875.165 112.273H865.165C865.165 125.8 868.302 137.239 874.432 145.428C880.675 153.768 889.762 158.356 900.548 158.356V148.356ZM875.165 112.273C875.165 100.351 878.036 91.4011 882.5 85.5575C886.862 79.8467 892.982 76.7614 900.548 76.7614V66.7614C889.901 66.7614 880.829 71.2719 874.553 79.4869C868.379 87.5691 865.165 98.8747 865.165 112.273H875.165ZM900.548 76.7614C906.521 76.7614 911.045 78.6574 914.306 81.5734C917.61 84.5275 919.901 88.7885 920.874 93.9266L930.699 92.0677C929.384 85.1178 926.163 78.7609 920.972 74.1191C915.739 69.4392 908.787 66.7614 900.548 66.7614V76.7614ZM925.786 97.9972H954.046V87.9972H925.786V97.9972ZM959.032 92.6228C957.916 77.7493 951.504 65.205 941.025 56.423C930.585 47.6738 916.421 42.9119 900.14 42.9119V52.9119C914.487 52.9119 926.256 57.0936 934.602 64.0875C942.908 71.0486 948.135 81.0469 949.06 93.3715L959.032 92.6228ZM900.14 42.9119C880.491 42.9119 864.113 50.045 852.684 62.6079C841.3 75.1211 835.19 92.6132 835.19 112.763H845.19C845.19 94.6063 850.678 79.6729 860.081 69.3372C869.438 59.0512 883.035 52.9119 900.14 52.9119V42.9119ZM835.19 112.763C835.19 132.727 841.144 150.181 852.481 162.704C863.871 175.286 880.302 182.45 900.303 182.45V172.45C882.816 172.45 869.19 166.261 859.895 155.993C850.548 145.668 845.19 130.778 845.19 112.763H835.19ZM1019.39 49.5455H1024.39V44.5455H1019.39V49.5455ZM989.825 49.5455V44.5455H984.825V49.5455H989.825ZM1069.38 152.702V147.702H1066.01L1064.75 150.818L1069.38 152.702ZM1070.68 152.702H1075.68V147.702H1070.68V152.702ZM1070.68 175H1065.68V180H1070.68V175ZM1099.35 175V180H1104.35V175H1099.35ZM1099.35 49.5455H1104.35V44.5455H1099.35V49.5455ZM1069.79 49.5455V44.5455H1064.79V49.5455H1069.79ZM1064.79 122.237C1064.79 130.521 1061.87 136.317 1057.9 140.061C1053.86 143.874 1048.44 145.824 1043.08 145.824V155.824C1050.78 155.824 1058.72 153.037 1064.76 147.335C1070.88 141.563 1074.79 133.065 1074.79 122.237H1064.79ZM1043.08 145.824C1037.2 145.824 1032.68 143.782 1029.58 140.423C1026.46 137.026 1024.39 131.831 1024.39 124.851H1014.39C1014.39 133.797 1017.06 141.589 1022.23 147.196C1027.42 152.843 1034.74 155.824 1043.08 155.824V145.824ZM1024.39 124.851V49.5455H1014.39V124.851H1024.39ZM1019.39 44.5455H989.825V54.5455H1019.39V44.5455ZM984.825 49.5455V129.425H994.825V49.5455H984.825ZM984.825 129.425C984.825 145.428 989.389 158.544 997.799 167.711C1006.25 176.918 1018.11 181.634 1031.64 181.634V171.634C1020.51 171.634 1011.46 167.814 1005.17 160.951C998.836 154.049 994.825 143.56 994.825 129.425H984.825ZM1031.64 181.634C1052.41 181.634 1067.51 170.566 1074.01 154.587L1064.75 150.818C1059.81 162.935 1048.45 171.634 1031.64 171.634V181.634ZM1069.38 157.702H1070.68V147.702H1069.38V157.702ZM1065.68 152.702V175H1075.68V152.702H1065.68ZM1070.68 180H1099.35V170H1070.68V180ZM1104.35 175V49.5455H1094.35V175H1104.35ZM1099.35 44.5455H1069.79V54.5455H1099.35V44.5455ZM1064.79 49.5455V122.237H1074.79V49.5455H1064.79ZM1141.26 175H1136.26V180H1141.26V175ZM1170.82 175V180H1175.82V175H1170.82ZM1212.8 75.7635L1211.27 80.522L1217.8 82.6301V75.7635H1212.8ZM1212.8 48.5653H1217.8V44.3925L1213.7 43.646L1212.8 48.5653ZM1171.23 70.4545V75.4545H1174.9L1176 71.9551L1171.23 70.4545ZM1169.92 70.4545H1164.92V75.4545H1169.92V70.4545ZM1169.92 49.5455H1174.92V44.5455H1169.92V49.5455ZM1141.26 49.5455V44.5455H1136.26V49.5455H1141.26ZM1141.26 180H1170.82V170H1141.26V180ZM1175.82 175V101.246H1165.82V175H1175.82ZM1175.82 101.246C1175.82 88.2937 1185.37 79.0483 1199.08 79.0483V69.0483C1180.29 69.0483 1165.82 82.3455 1165.82 101.246H1175.82ZM1199.08 79.0483C1203.73 79.0483 1209.38 79.914 1211.27 80.522L1214.34 71.0049C1211.16 69.9795 1204.4 69.0483 1199.08 69.0483V79.0483ZM1217.8 75.7635V48.5653H1207.8V75.7635H1217.8ZM1213.7 43.646C1210.62 43.0856 1205.64 42.7486 1202.19 42.7486V52.7486C1205.26 52.7486 1209.6 53.065 1211.91 53.4847L1213.7 43.646ZM1202.19 42.7486C1185.71 42.7486 1171.72 52.2556 1166.46 68.954L1176 71.9551C1179.9 59.5768 1189.91 52.7486 1202.19 52.7486V42.7486ZM1171.23 65.4545H1169.92V75.4545H1171.23V65.4545ZM1174.92 70.4545V49.5455H1164.92V70.4545H1174.92ZM1169.92 44.5455H1141.26V54.5455H1169.92V44.5455ZM1136.26 49.5455V175H1146.26V49.5455H1136.26ZM1348.88 141.349L1353.74 142.515L1355.06 137.013L1349.44 136.381L1348.88 141.349ZM1321.27 138.246L1321.83 133.277L1317.97 132.842L1316.6 136.482L1321.27 138.246ZM1262.71 120.359V115.359H1257.66L1257.71 120.416L1262.71 120.359ZM1350.11 120.359V125.359H1355.11V120.359H1350.11ZM1262.79 100.43L1257.8 100.15L1257.51 105.43H1262.79V100.43ZM1321.76 100.43V105.43H1326.81L1326.76 100.382L1321.76 100.43ZM1294.32 182.45C1325.22 182.45 1347.84 167.153 1353.74 142.515L1344.02 140.184C1339.47 159.161 1321.91 172.45 1294.32 172.45V182.45ZM1349.44 136.381L1321.83 133.277L1320.72 143.214L1348.32 146.318L1349.44 136.381ZM1316.6 136.482C1313.51 144.674 1305.95 149.418 1294.73 149.418V159.418C1308.99 159.418 1321.04 153.054 1325.95 140.009L1316.6 136.482ZM1294.73 149.418C1286.3 149.418 1279.75 146.673 1275.26 141.985C1270.74 137.27 1267.82 130.077 1267.71 120.302L1257.71 120.416C1257.85 132.121 1261.38 141.958 1268.04 148.902C1274.71 155.873 1284.04 159.418 1294.73 159.418V149.418ZM1262.71 125.359H1350.11V115.359H1262.71V125.359ZM1355.11 120.359V111.293H1345.11V120.359H1355.11ZM1355.11 111.293C1355.11 88.2574 1348.16 71.0167 1336.53 59.5355C1324.93 48.0862 1309.24 42.9119 1292.77 42.9119V52.9119C1307.18 52.9119 1320.15 57.4163 1329.5 66.6515C1338.82 75.8547 1345.11 90.3044 1345.11 111.293H1355.11ZM1292.77 42.9119C1273.51 42.9119 1257.27 50.0192 1245.9 62.5862C1234.56 75.1054 1228.39 92.6527 1228.39 113.008H1238.39C1238.39 94.6485 1243.94 79.6478 1253.31 69.2977C1262.64 58.9953 1276.09 52.9119 1292.77 52.9119V42.9119ZM1228.39 113.008C1228.39 133.658 1234.47 151.097 1246.03 163.414C1257.63 175.77 1274.27 182.45 1294.32 182.45V172.45C1276.56 172.45 1262.73 166.593 1253.32 156.57C1243.87 146.508 1238.39 131.726 1238.39 113.008H1228.39ZM1267.79 100.71C1268.56 87.0075 1278.52 75.9446 1293.18 75.9446V65.9446C1272.55 65.9446 1258.83 81.8348 1257.8 100.15L1267.79 100.71ZM1293.18 75.9446C1300.4 75.9446 1306.17 78.5539 1310.17 82.7393C1314.19 86.9505 1316.69 93.0545 1316.76 100.478L1326.76 100.382C1326.67 90.7345 1323.38 82.096 1317.4 75.8322C1311.39 69.5427 1302.95 65.9446 1293.18 65.9446V75.9446ZM1321.76 95.4297H1262.79V105.43H1321.76V95.4297ZM1467.15 175H1462.15V180H1467.15V175ZM1496.72 175V180H1501.72V175H1496.72ZM1496.72 95.1207L1491.72 95.1071V95.1207H1496.72ZM1416.35 70.8629V75.8629H1419.71L1420.98 72.7571L1416.35 70.8629ZM1414.88 70.8629H1409.88V75.8629H1414.88V70.8629ZM1414.88 49.5455H1419.88V44.5455H1414.88V49.5455ZM1386.62 49.5455V44.5455H1381.62V49.5455H1386.62ZM1386.62 175H1381.62V180H1386.62V175ZM1416.19 175V180H1421.19V175H1416.19ZM1421.19 101.491C1421.19 93.4364 1423.6 87.6266 1427.22 83.8617C1430.82 80.1094 1436.08 77.9048 1442.73 77.9048V67.9048C1433.79 67.9048 1425.77 70.9275 1420 76.9355C1414.24 82.9309 1411.19 91.4144 1411.19 101.491H1421.19ZM1442.73 77.9048C1449.23 77.9048 1453.89 80.005 1456.97 83.3887C1460.11 86.8324 1462.15 92.2007 1462.15 99.6946H1472.15C1472.15 90.4449 1469.62 82.4183 1464.36 76.653C1459.06 70.8278 1451.51 67.9048 1442.73 67.9048V77.9048ZM1462.15 99.6946V175H1472.15V99.6946H1462.15ZM1467.15 180H1496.72V170H1467.15V180ZM1501.72 175V95.1207H1491.72V175H1501.72ZM1501.72 95.1343C1501.76 79.1663 1497.22 66.0239 1488.63 56.8321C1480.02 47.6072 1467.84 42.9119 1453.76 42.9119V52.9119C1465.56 52.9119 1474.91 56.7927 1481.32 63.6579C1487.77 70.5564 1491.76 81.0184 1491.72 95.1071L1501.72 95.1343ZM1453.76 42.9119C1433.15 42.9119 1418.28 52.9373 1411.72 68.9687L1420.98 72.7571C1425.85 60.8553 1436.79 52.9119 1453.76 52.9119V42.9119ZM1416.35 65.8629H1414.88V75.8629H1416.35V65.8629ZM1419.88 70.8629V49.5455H1409.88V70.8629H1419.88ZM1414.88 44.5455H1386.62V54.5455H1414.88V44.5455ZM1381.62 49.5455V175H1391.62V49.5455H1381.62ZM1386.62 180H1416.19V170H1386.62V180ZM1421.19 175V101.491H1411.19V175H1421.19ZM1646.74 132.12L1651.73 132.518L1652.16 127.12H1646.74V132.12ZM1618.48 132.12V127.12H1614.33L1613.57 131.197L1618.48 132.12ZM1618.48 92.9972L1613.57 93.9266L1614.34 97.9972H1618.48V92.9972ZM1646.74 92.9972V97.9972H1652.13L1651.73 92.6228L1646.74 92.9972ZM1593 182.45C1609.76 182.45 1623.89 177.466 1634.17 168.547C1644.47 159.614 1650.57 147.027 1651.73 132.518L1641.76 131.723C1640.79 143.84 1635.78 153.918 1627.62 160.993C1619.45 168.083 1607.77 172.45 1593 172.45V182.45ZM1646.74 127.12H1618.48V137.12H1646.74V127.12ZM1613.57 131.197C1612.49 136.94 1609.95 141.156 1606.59 143.943C1603.23 146.733 1598.72 148.356 1593.24 148.356V158.356C1600.75 158.356 1607.6 156.099 1612.98 151.64C1618.35 147.179 1621.94 140.776 1623.4 133.043L1613.57 131.197ZM1593.24 148.356C1585.57 148.356 1579.47 145.225 1575.13 139.435C1570.69 133.495 1567.86 124.392 1567.86 112.273H1557.86C1557.86 125.8 1561 137.239 1567.13 145.428C1573.37 153.768 1582.46 158.356 1593.24 158.356V148.356ZM1567.86 112.273C1567.86 100.351 1570.73 91.4011 1575.2 85.5575C1579.56 79.8467 1585.68 76.7614 1593.24 76.7614V66.7614C1582.6 66.7614 1573.52 71.2719 1567.25 79.4869C1561.07 87.5691 1557.86 98.8747 1557.86 112.273H1567.86ZM1593.24 76.7614C1599.22 76.7614 1603.74 78.6574 1607 81.5734C1610.31 84.5275 1612.6 88.7885 1613.57 93.9266L1623.39 92.0677C1622.08 85.1178 1618.86 78.7609 1613.67 74.1191C1608.43 69.4392 1601.48 66.7614 1593.24 66.7614V76.7614ZM1618.48 97.9972H1646.74V87.9972H1618.48V97.9972ZM1651.73 92.6228C1650.61 77.7493 1644.2 65.205 1633.72 56.423C1623.28 47.6738 1609.12 42.9119 1592.84 42.9119V52.9119C1607.18 52.9119 1618.95 57.0936 1627.3 64.0875C1635.6 71.0486 1640.83 81.0469 1641.76 93.3715L1651.73 92.6228ZM1592.84 42.9119C1573.19 42.9119 1556.81 50.045 1545.38 62.6079C1534 75.1211 1527.89 92.6132 1527.89 112.763H1537.89C1537.89 94.6063 1543.37 79.6729 1552.78 69.3372C1562.13 59.0512 1575.73 52.9119 1592.84 52.9119V42.9119ZM1527.89 112.763C1527.89 132.727 1533.84 150.181 1545.18 162.704C1556.57 175.286 1573 182.45 1593 182.45V172.45C1575.51 172.45 1561.89 166.261 1552.59 155.993C1543.24 145.668 1537.89 130.778 1537.89 112.763H1527.89ZM1744.35 190.192L1739.64 188.503L1739.64 188.511L1739.64 188.519L1744.35 190.192ZM1794.74 49.7088L1799.45 51.3971L1801.84 44.7454L1794.77 44.7089L1794.74 49.7088ZM1763.13 49.5455L1763.16 44.5455L1759.44 44.5263L1758.35 48.0823L1763.13 49.5455ZM1734.14 144.29V149.29H1737.84L1738.92 145.753L1734.14 144.29ZM1732.83 144.29L1728.05 145.749L1729.13 149.29H1732.83V144.29ZM1703.92 49.5455L1708.7 48.086L1707.62 44.5455H1703.92V49.5455ZM1672.56 49.5455V44.5455H1665.47L1667.84 51.2191L1672.56 49.5455ZM1718.05 177.614L1722.73 179.363L1723.37 177.657L1722.76 175.94L1718.05 177.614ZM1715.52 184.393L1720.19 186.18L1720.19 186.161L1720.2 186.142L1715.52 184.393ZM1688.48 195.909L1689.88 191.108L1685.11 189.719L1683.69 194.482L1688.48 195.909ZM1681.62 218.942L1676.83 217.514L1675.54 221.858L1679.73 223.571L1681.62 218.942ZM1700.9 227.045C1713.31 227.045 1723.53 223.835 1731.65 217.585C1739.72 211.372 1745.29 202.486 1749.06 191.865L1739.64 188.519C1736.3 197.908 1731.67 204.949 1725.55 209.661C1719.47 214.335 1711.51 217.045 1700.9 217.045V227.045ZM1749.06 191.88L1799.45 51.3971L1790.04 48.0205L1739.64 188.503L1749.06 191.88ZM1794.77 44.7089L1763.16 44.5455L1763.11 54.5454L1794.72 54.7087L1794.77 44.7089ZM1758.35 48.0823L1729.36 142.827L1738.92 145.753L1767.92 51.0086L1758.35 48.0823ZM1734.14 139.29H1732.83V149.29H1734.14V139.29ZM1737.61 142.83L1708.7 48.086L1699.14 51.0049L1728.05 145.749L1737.61 142.83ZM1703.92 44.5455H1672.56V54.5455H1703.92V44.5455ZM1667.84 51.2191L1713.34 179.287L1722.76 175.94L1677.27 47.8718L1667.84 51.2191ZM1713.37 175.864L1710.83 182.643L1720.2 186.142L1722.73 179.363L1713.37 175.864ZM1710.85 182.605C1708.4 188.993 1705.69 191.307 1703.13 192.201C1700.24 193.216 1696.15 192.935 1689.88 191.108L1687.08 200.71C1693.72 202.64 1700.41 203.748 1706.44 201.639C1712.81 199.409 1717.16 194.086 1720.19 186.18L1710.85 182.605ZM1683.69 194.482L1676.83 217.514L1686.41 220.369L1693.27 197.336L1683.69 194.482ZM1679.73 223.571C1684.47 225.504 1692.33 227.045 1700.9 227.045V217.045C1693.3 217.045 1686.78 215.647 1683.51 214.313L1679.73 223.571Z" fill="url(#paint0_linear)"/>
<defs>
<linearGradient id="paint0_linear" x1="2104.93" y1="-96.4877" x2="2040.99" y2="406.337" gradientUnits="userSpaceOnUse">
<stop stop-color="#5ABEDF"/>
<stop offset="1" stop-color="#FFDA48"/>
</linearGradient>
</defs>
</svg>
