<svg width="77" height="77" viewBox="0 0 77 77" fill="none" xmlns="http://www.w3.org/2000/svg">
<rect width="77" height="77" rx="25" fill="#342A41"/>
<path d="M16 18.7246H21.2734V31.9082H16V18.7246Z" fill="white"/>
<path d="M55.7266 45.0918H61V58.2754H55.7266V45.0918Z" fill="white"/>
<path d="M35.8633 31.9082H41.1367V45.0918H35.8633V31.9082Z" fill="white"/>
<path d="M19.9551 42.4551H33.2266V34.5449H19.9551C17.7742 34.5449 16 36.3191 16 38.5C16 40.6809 17.7742 42.4551 19.9551 42.4551Z" fill="white"/>
<path d="M57.0449 34.5449H43.7734V42.4551H57.0449C59.2258 42.4551 61 40.6809 61 38.5C61 36.3191 59.2258 34.5449 57.0449 34.5449Z" fill="white"/>
<path d="M57.0449 21.3613H23.9102V29.2715H57.0449C59.2258 29.2715 61 27.4973 61 25.3164C61 23.1355 59.2258 21.3613 57.0449 21.3613Z" fill="white"/>
<path d="M19.9551 55.6387H53.0898V47.7285H19.9551C17.7742 47.7285 16 49.5027 16 51.6836C16 53.8645 17.7742 55.6387 19.9551 55.6387Z" fill="white"/>
</svg>
