<svg width="205" height="205" viewBox="0 0 205 205" fill="none" xmlns="http://www.w3.org/2000/svg">
<path d="M102.5 205C85.3974 205 68.5666 200.721 53.541 192.551C38.5155 184.382 25.7728 172.583 16.4741 158.23C7.17531 143.876 1.61601 127.423 0.302667 110.371C-1.01068 93.319 1.96369 76.2093 8.95478 60.6008L24.5466 67.5844C18.7207 80.5913 16.2421 94.8493 17.3366 109.059C18.431 123.269 23.0637 136.979 30.8126 148.941C38.5615 160.902 49.1802 170.735 61.7013 177.542C74.2225 184.349 88.248 187.916 102.5 187.916L102.5 205Z" fill="#5AA1E3"/>
<path d="M102.5 0C129.685 3.24174e-07 155.756 10.7991 174.978 30.0216C194.201 49.244 205 75.3153 205 102.5C205 129.685 194.201 155.756 174.978 174.978C155.756 194.201 129.685 205 102.5 205V187.916C125.154 187.916 146.879 178.917 162.898 162.898C178.917 146.879 187.916 125.154 187.916 102.5C187.916 79.8464 178.917 58.1205 162.898 42.102C146.879 26.0835 125.154 17.0843 102.5 17.0843V0Z" fill="#00C1CF"/>
<path d="M8.85854 60.8163C15.5868 45.7015 25.8738 32.44 38.8409 22.1646L49.4514 35.5546C38.6456 44.1173 30.0732 55.1685 24.4664 67.764L8.85854 60.8163Z" fill="#75D69C"/>
<path d="M38.5599 22.3881C47.0705 15.5955 56.6092 10.2024 66.817 6.41162L72.7645 22.4273C64.2581 25.5862 56.3093 30.0804 49.2172 35.7409L38.5599 22.3881Z" fill="#B97EBB"/>
<path d="M66.686 6.46037C78.1312 2.19239 90.247 0.00452674 102.462 7.01664e-06L102.468 17.0843C92.2893 17.0881 82.1929 18.9113 72.6554 22.4679L66.686 6.46037Z" fill="#50485B"/>
</svg>
