<svg width="206" height="205" viewBox="0 0 206 205" fill="none" xmlns="http://www.w3.org/2000/svg">
<path d="M30.0216 174.978C16.6335 161.59 7.21522 144.756 2.81129 126.341C-1.59264 107.927 -0.810143 88.6528 5.07201 70.6561L21.311 75.9637C16.4092 90.9608 15.7571 107.022 19.427 122.368C23.0969 137.713 30.9454 151.741 42.102 162.898L30.0216 174.978Z" fill="#F79468"/>
<path d="M102.5 0C119.356 2.01008e-07 135.952 4.1571 150.818 12.1031C165.684 20.049 178.361 31.5386 187.726 45.554C197.09 59.5695 202.854 75.6782 204.506 92.4532C206.159 109.228 203.648 126.152 197.198 141.725C190.747 157.298 180.555 171.04 167.525 181.734C154.495 192.427 139.029 199.742 122.497 203.03C105.964 206.319 88.8763 205.479 72.7458 200.586C56.6154 195.693 41.9407 186.898 30.0216 174.978L42.102 162.898C52.0345 172.831 64.2633 180.16 77.7052 184.238C91.147 188.315 105.387 189.015 119.164 186.274C132.941 183.534 145.829 177.438 156.687 168.527C167.545 159.616 176.038 148.165 181.414 135.187C186.789 122.21 188.881 108.107 187.504 94.1278C186.128 80.1487 181.324 66.725 173.521 55.0456C165.717 43.3662 155.153 33.7917 142.765 27.1701C130.377 20.5485 116.547 17.0843 102.5 17.0843V0Z" fill="#FE6C61"/>
<path d="M5.0754 70.6457C9.81733 56.1428 17.7374 42.8815 28.2576 31.8295L40.6321 43.6086C31.8653 52.8185 25.2653 63.8694 21.3138 75.9551L5.0754 70.6457Z" fill="#EEBA6D"/>
<path d="M27.2107 32.9459C30.946 28.9026 35.001 25.1667 39.3362 21.7746L49.8642 35.2296C46.2515 38.0564 42.8724 41.1695 39.7596 44.5389L27.2107 32.9459Z" fill="#CEC2AB"/>
<path d="M39.3595 21.7564C47.9373 15.0487 57.5291 9.75068 67.7742 6.0616L73.5621 22.1356C65.0247 25.2098 57.0316 29.6248 49.8835 35.2145L39.3595 21.7564Z" fill="#50485B"/>
<path d="M66.686 6.46037C78.1454 2.18709 90.277 -0.000862999 102.507 2.55331e-07L102.506 17.0843C92.3143 17.0836 82.2047 18.9069 72.6554 22.4679L66.686 6.46037Z" fill="#75D69C"/>
</svg>
