<svg width="77" height="77" viewBox="0 0 77 77" fill="none" xmlns="http://www.w3.org/2000/svg">
<rect width="77" height="77" rx="25" fill="#342A41"/>
<path d="M60.7983 37.9885L50.2983 26.7386C50.1566 26.5863 49.9578 26.5 49.7501 26.5H37.7502C37.4464 26.5 37.1726 26.683 37.0571 26.9628C36.9402 27.2432 37.0047 27.5658 37.2199 27.7802L47.9388 38.4999L37.2199 49.2196C37.0047 49.4342 36.9402 49.7566 37.0571 50.0371C37.1726 50.3168 37.4464 50.4998 37.7502 50.4998H49.7501C49.9578 50.4998 50.1566 50.4136 50.2983 50.2613L60.7983 39.0114C61.0668 38.7234 61.0668 38.2765 60.7983 37.9885Z" fill="white"/>
<path d="M39.7989 37.9885L29.299 26.7386C29.1572 26.5863 28.9585 26.5 28.7507 26.5H16.7509C16.4471 26.5 16.1734 26.683 16.0579 26.9628C15.9409 27.2432 16.0054 27.5658 16.2206 27.7802L26.9395 38.4999L16.2206 49.2196C16.0054 49.4342 15.9409 49.7566 16.0579 50.0371C16.1734 50.3168 16.4471 50.4998 16.7509 50.4998H28.7508C28.9586 50.4998 29.1573 50.4136 29.299 50.2613L39.799 39.0114C40.0674 38.7234 40.0674 38.2765 39.7989 37.9885Z" fill="white"/>
</svg>
