<svg width="133" height="36" viewBox="0 0 133 36" fill="none" xmlns="http://www.w3.org/2000/svg">
<path d="M79.9622 14.1504C79.9622 10.6787 80.0224 7.44636 80.2044 4.45349L70.946 6.18936V7.02739L71.8538 7.1471C72.5188 7.20693 72.943 7.44636 73.1845 7.80551C73.4267 8.22448 73.6086 8.82307 73.729 9.72097C73.8501 11.4568 73.9712 15.4074 73.911 21.6326C73.911 27.7979 73.8501 31.6887 73.729 33.1851C77.0574 33.9034 79.6591 34.2027 81.5959 34.2027C85.2266 34.2027 88.0705 33.1851 90.1277 31.0901C92.1849 29.0549 93.2748 26.1818 93.2748 22.6502C93.2748 19.8369 92.488 17.5024 90.9145 15.6468C89.341 13.7913 87.3447 12.8934 84.9844 12.8934C83.4109 12.8934 81.7772 13.3124 79.9622 14.1504ZM80.1435 32.5865C80.0224 30.6711 79.9013 24.9248 79.9013 15.5271C80.4459 15.3476 81.1724 15.2279 82.0796 15.2279C83.532 15.2279 84.682 15.9462 85.529 17.4426C86.376 18.939 86.7994 20.7347 86.7994 23.0094C86.7994 25.8227 86.3157 28.0972 85.3477 30.0127C84.3796 31.8682 83.1694 32.826 81.6561 32.826C81.1724 32.7063 80.6881 32.6464 80.1435 32.5865ZM36.2125 5.05207H12.0081V6.24922L13.2788 6.36893C14.247 6.54852 14.9126 6.90767 15.3362 7.44636C15.7598 8.04494 16.0018 9.00267 16.0623 10.3196C16.5464 16.7842 16.5464 22.8297 16.0623 28.3965C15.9413 29.7133 15.6993 30.6711 15.3362 31.2697C14.9126 31.8682 14.247 32.2274 13.2788 32.3471L12.0081 32.5267V33.7238H27.6199V32.5267L25.9862 32.407C25.018 32.2873 24.3524 31.8682 23.9288 31.3295C23.5052 30.731 23.2632 29.7732 23.2026 28.4564C23.0211 26.0621 22.9001 23.3086 22.9001 20.2559L26.1677 20.3157C27.9225 20.3756 29.1327 21.6925 29.7378 24.3262H30.948V14.5694H29.7378C29.1327 17.1433 27.983 18.4601 26.1677 18.52L22.9001 18.5799C22.9001 13.1927 23.0211 9.36182 23.2026 7.02739H27.983C31.3717 7.02739 33.671 9.18222 35.0023 13.492L36.4546 13.073L36.2125 5.05207ZM33.3685 23.4882C33.3685 26.6008 34.2762 29.1747 36.031 31.2098C37.7858 33.2449 40.3878 34.2027 43.6554 34.2027C46.923 34.2027 49.5854 33.1851 51.5218 31.0901C53.4582 29.0549 54.3658 26.4811 54.3658 23.3684C54.3658 20.2559 53.4581 17.682 51.7033 15.6468C49.9485 13.6117 47.3465 12.654 44.0789 12.654C40.8113 12.654 38.1488 13.6715 36.2125 15.7666C34.2762 17.8017 33.3685 20.3756 33.3685 23.4882ZM46.8624 16.6645C47.5886 18.4003 47.8911 20.6749 47.8911 23.4283C47.8911 29.7732 46.5599 32.8858 43.9579 32.8858C42.6267 32.8858 41.598 31.988 40.8719 30.1922C40.1458 28.3965 39.8432 26.1219 39.8432 23.4283C39.8432 17.1433 41.1744 14.0307 43.7764 14.0307C45.1076 13.9709 46.1363 14.8687 46.8624 16.6645ZM97.9946 31.2098C99.9909 33.1851 102.532 34.2027 105.558 34.2027C107.434 34.2027 109.068 33.8435 110.52 33.0654C111.972 32.3471 113.122 31.4493 113.909 30.3718L113.304 29.6535C111.972 30.6711 110.46 31.1499 108.705 31.1499C106.284 31.1499 104.408 30.3718 103.138 28.7557C101.807 27.1395 101.201 25.1044 101.322 22.4706H114.272C114.272 19.5975 113.546 17.263 112.033 15.4074C110.52 13.6117 108.402 12.7138 105.679 12.7138C102.29 12.7138 99.6885 13.7913 97.8126 15.8863C95.9367 17.9813 95.0296 20.5551 95.0296 23.6079C95.0296 26.7205 95.9976 29.2345 97.9946 31.2098ZM102.472 16.1856C103.138 14.749 103.985 14.0307 105.135 14.0307C106.95 14.0307 107.858 16.3053 107.858 20.9143L101.443 21.034C101.504 19.2383 101.807 17.6221 102.472 16.1856ZM130.549 13.7913C128.915 13.073 126.858 12.654 124.377 12.654C121.835 12.654 119.839 13.3124 118.326 14.5694C116.813 15.8264 116.026 17.3827 116.026 19.2383C116.026 20.8545 116.511 22.1115 117.419 23.0094C118.326 23.9072 119.778 24.6853 121.654 25.3438C123.349 25.9424 124.559 26.5409 125.164 27.0796C125.769 27.6782 126.132 28.3366 126.132 29.2345C126.132 30.0725 125.829 30.8507 125.164 31.4493C124.559 32.1077 123.711 32.407 122.622 32.407C119.96 32.407 117.963 30.4915 116.571 26.6606L115.543 26.9599L115.785 32.9457C117.963 33.7837 120.384 34.2027 123.046 34.2027C125.829 34.2027 127.947 33.6041 129.52 32.3471C131.094 31.1499 131.88 29.4141 131.88 27.2592C131.88 25.8227 131.517 24.6255 130.73 23.7276C129.944 22.8298 128.673 22.0516 126.858 21.3333C124.861 20.615 123.47 19.9566 122.743 19.358C122.017 18.7595 121.654 18.0412 121.654 17.1433C121.654 16.2454 121.896 15.5271 122.441 14.9285C122.985 14.33 123.651 14.0905 124.498 14.0905C126.918 14.0905 128.673 15.8264 129.762 19.2383L130.791 18.939L130.549 13.7913ZM72.3375 13.2526C71.4905 12.8335 70.5827 12.654 69.5538 12.654C68.5255 12.654 67.4966 13.073 66.3472 13.911C65.1973 14.749 64.3502 15.8863 63.6845 17.4426L63.7451 12.654L54.5473 14.4497V15.2877L55.455 15.3476C56.6047 15.4673 57.2703 16.3651 57.3914 17.9813C57.7544 21.6925 57.7544 25.6431 57.3914 29.8331C57.2703 31.4493 56.6047 32.2873 55.455 32.4668L54.5473 32.5865V33.7238H67.3755V32.5865L65.7419 32.4668C64.5922 32.3471 63.9266 31.4493 63.8055 29.8331C63.4425 26.3614 63.382 22.6502 63.6845 18.8193C64.0476 18.2207 64.8343 17.8616 66.0445 17.7418C67.2544 17.6221 68.6466 17.9813 70.099 18.8193L72.3375 13.2526Z" fill="#DCDCDC"/>
</svg>
