<svg width="48" height="48" viewBox="0 0 48 48" fill="none" xmlns="http://www.w3.org/2000/svg">
<path d="M10.4769 0.76765C8.59903 -0.270291 6.39415 -0.246292 4.52826 0.78265L26.397 20.9565L33.7436 13.6099L10.4769 0.76765Z" fill="white"/>
<path d="M2.34102 2.84668C1.80705 3.71963 1.50107 4.71857 1.50107 5.77751V42.2134C1.50107 43.2394 1.78005 44.2173 2.28402 45.0723L24.2758 23.0805L2.34102 2.84668Z" fill="white"/>
<path d="M43.4838 18.9857L36.4762 15.1189L28.6016 22.9905L38.2521 31.891L43.4868 29.0021C45.3707 27.9582 46.4986 26.0863 46.4986 23.9924C46.4956 21.8985 45.3707 20.0266 43.4838 18.9857Z" fill="white"/>
<path d="M26.4808 25.1143L4.42902 47.166C5.38596 47.712 6.4359 48 7.49184 48C8.51179 48 9.53773 47.742 10.4767 47.223L35.4863 33.4208L26.4808 25.1143Z" fill="white"/>
</svg>
