<svg width="94" height="93" viewBox="0 0 94 93" fill="none" xmlns="http://www.w3.org/2000/svg">
<path d="M47 0L50.3744 33.3097L68.842 5.38357L56.35 36.446L85.6802 20.301L60.1837 42.0001L93.6573 41.3348L60.9972 48.6996L90.9458 63.6664L58.6041 55.0097L78.1668 82.18L53.5526 59.4849L58.2478 92.6343L47 61.1L35.7522 92.6343L40.4474 59.4849L15.8332 82.18L35.3959 55.0097L3.05424 63.6664L33.0028 48.6996L0.342682 41.3348L33.8163 42.0001L8.31976 20.301L37.65 36.446L25.158 5.38357L43.6256 33.3097L47 0Z" fill="url(#paint0_linear)"/>
<defs>
<linearGradient id="paint0_linear" x1="109.802" y1="-12.0998" x2="32.1801" y2="88.8512" gradientUnits="userSpaceOnUse">
<stop stop-color="#5ABEDF"/>
<stop offset="1" stop-color="#DDA85B"/>
</linearGradient>
</defs>
</svg>
