<svg width="70" height="70" viewBox="0 0 70 70" fill="none" xmlns="http://www.w3.org/2000/svg">
<circle cx="35" cy="35" r="35" fill="#342A41"/>
<path d="M35.7707 14C23.7388 14 14 23.7371 14 35.7707C14 36.4186 14.5252 36.9437 15.173 36.9437H35.7707C36.4186 36.9437 36.9437 36.4186 36.9437 35.7707V15.173C36.9437 14.5252 36.4186 14 35.7707 14Z" fill="#F8F7FC"/>
<path d="M27.4258 40.3347C27.22 39.9589 26.8255 39.7253 26.3971 39.7253H19.46C19.0867 39.7253 18.7355 39.9031 18.5146 40.2042C18.2935 40.5053 18.2292 40.8934 18.341 41.2496C20.5503 48.2863 26.9226 53.5179 34.598 53.9998V45.2076C31.5876 44.834 28.907 43.0389 27.4258 40.3347Z" fill="#F8F7FC"/>
<path d="M41.2496 18.3409C40.8935 18.2292 40.5051 18.2936 40.2042 18.5145C39.9031 18.7355 39.7253 19.0866 39.7253 19.46V26.397C39.7253 26.8254 39.959 27.2197 40.3347 27.4256C43.0388 28.907 44.8339 31.5875 45.2075 34.5979H53.9998C53.5167 26.9058 48.2697 20.545 41.2496 18.3409Z" fill="#F8F7FC"/>
<path d="M45.2088 36.9436C44.6767 41.2521 41.2518 44.677 36.9434 45.2091V53.9991C46.096 53.423 53.4219 46.1087 53.9988 36.9436H45.2088Z" fill="#F8F7FC"/>
</svg>
