<svg width="201" height="32" viewBox="0 0 201 32" fill="none" xmlns="http://www.w3.org/2000/svg">
<path fill-rule="evenodd" clip-rule="evenodd" d="M0 1.06393H4.98738V31.4827H0V1.06393ZM40.4078 20.518L20.1467 0.595015V31.4821H24.9421V11.6928L45.2031 31.9523V1.06393H40.4078V20.518ZM71.2312 14.5389L66.4847 12.7548C64.0387 11.8645 62.6473 10.9714 62.6473 8.74293C62.6473 6.26605 64.8542 5.07647 67.8266 5.07647C71.2788 5.07647 73.9651 6.41399 76.4099 8.34664V3.04475C74.0611 1.46023 71.0398 0.567871 67.7306 0.567871C62.3116 0.567871 57.8041 3.49059 57.8041 8.84133C57.8041 13.8447 60.7771 16.0249 64.7093 17.5111L68.9771 19.097C71.6144 20.1373 73.1012 21.0791 73.1012 23.4563C73.1012 26.1808 70.7512 27.4199 67.3943 27.4199C63.9427 27.4199 60.7288 26.1327 58.0432 23.9022V29.3024C60.1058 30.7892 63.4621 31.9781 67.3943 31.9781C73.3899 31.9781 77.9443 28.9055 77.9443 23.3572C77.9443 18.9484 75.8353 16.2727 71.2312 14.5389ZM89.1799 1.06393H94.1664V31.4827H89.1799V1.06393ZM120.868 1.0646H109.574V31.4827H120.868C129.548 31.4827 135.159 25.5375 135.159 16.2727C135.159 7.00912 129.548 1.0646 120.868 1.0646ZM120.676 26.8764H114.562V5.62206H120.676C126.86 5.62206 130.17 9.73372 130.17 16.2727C130.17 22.7621 126.861 26.8764 120.676 26.8764ZM146.478 31.4827H164.338V26.8764H151.368V17.4494H162.996V12.9407H151.368V5.62139H164.338V1.06393H146.478V31.4827ZM190.222 18.9484C194.873 18.2053 197.067 15.2819 197.067 10.1789C197.067 4.23434 193.135 1.06393 187.045 1.06393H176.363V31.4827H181.35V19.1465H184.899L195.149 31.4827H200.808L190.222 18.9484ZM181.351 14.836V5.52231H186.949C190.257 5.52231 192.128 7.3552 192.128 10.1789C192.128 13.0031 190.257 14.836 186.949 14.836H181.351Z" fill="#DCDCDC"/>
</svg>
