<svg width="48" height="48" viewBox="0 0 48 48" fill="none" xmlns="http://www.w3.org/2000/svg">
<path d="M43.2253 38.54C41.8177 37.9635 41.2156 37.1985 41.2738 36.0571C41.3338 34.7247 40.5779 33.7488 40.2189 33.3632C40.4358 32.5348 41.0695 29.6689 40.2195 27.1797C39.3061 24.5153 36.5174 20.4459 33.6399 16.4459C32.4619 14.8031 32.4062 13.0175 32.3418 10.9499C32.2801 8.97779 32.2106 6.74239 31.1108 4.25739C29.9151 1.55159 27.5157 0 24.5275 0C22.75 0 20.9253 0.555545 19.5212 1.52405C16.6459 3.50843 17.026 7.83491 17.2774 10.6978C17.3119 11.0898 17.3443 11.4601 17.3632 11.7763C17.5307 14.5801 17.3783 16.0579 17.1791 16.5071C17.0502 16.8006 16.4156 17.6359 15.7441 18.5204C15.0496 19.4351 14.2622 20.4719 13.6168 21.438C12.8468 22.6006 12.2251 24.3776 11.624 26.096C11.1841 27.3534 10.7686 28.5411 10.3641 29.2509C9.59755 30.6163 9.78829 31.8895 9.94756 32.478C9.65735 32.6796 9.2381 33.0765 8.88416 33.8246C8.4564 34.7374 7.58846 35.228 5.78365 35.575C4.95427 35.7447 4.38236 36.0934 4.08334 36.6115C3.64819 37.3655 3.8852 38.3129 4.10144 38.9604C4.42091 39.9122 4.22183 40.5146 3.85986 41.6084C3.77645 41.8608 3.68187 42.1466 3.58602 42.4619C3.4351 42.9593 3.48955 43.4116 3.74749 43.8062C4.4291 44.8482 6.41804 45.2157 8.46553 45.4574C9.68804 45.6025 11.0261 46.0915 12.3202 46.5646C13.5882 47.0279 14.8993 47.5071 16.0911 47.6525C16.2723 47.6753 16.4517 47.6868 16.6246 47.6868C18.4241 47.6868 19.2371 46.4928 19.4949 46.0022C20.1413 45.8704 22.3705 45.448 24.6681 45.3913C26.962 45.3258 29.1815 45.7788 29.8102 45.9196C30.0079 46.298 30.529 47.1621 31.3596 47.6073C31.8162 47.8569 32.4515 48 33.1023 48C33.1024 48 33.1023 48 33.1024 48C33.7974 48 35.1196 47.8357 36.166 46.7348C37.2097 45.6288 39.8174 44.2168 41.7217 43.1858C42.1466 42.9557 42.5442 42.7404 42.8928 42.5461C43.9625 41.9531 44.5462 41.1057 44.4941 40.2214C44.4507 39.4869 43.9645 38.8426 43.2253 38.54ZM19.5446 38.3271C19.4115 37.3891 18.2049 36.4588 16.8075 35.3817C15.6649 34.5009 14.3699 33.5026 14.0131 32.6572C13.2758 30.9131 13.857 27.8465 14.8703 26.2673C15.3711 25.4767 15.7801 24.2776 16.1758 23.1181C16.6029 21.866 17.0447 20.5714 17.5387 20.0046C18.321 19.1199 19.044 17.3983 19.1721 16.0415C19.9047 16.7409 21.0411 17.6284 22.091 17.6284C22.2526 17.6284 22.4095 17.6073 22.5595 17.565C23.2778 17.3575 24.3343 16.7471 25.356 16.1569C26.2368 15.6479 27.323 15.0203 27.7318 14.9632C28.4326 15.9695 32.5047 24.9811 32.9208 27.8751C33.2501 30.165 32.9023 32.0579 32.7274 32.7993C32.5867 32.7801 32.4189 32.7645 32.2427 32.7645C31.1085 32.7645 30.8082 33.3837 30.73 33.7534C30.5288 34.7138 30.5076 37.7851 30.5054 38.4752C30.0953 38.9962 28.0212 41.4501 25.0434 41.8912C23.8305 42.0675 22.6979 42.1569 21.6771 42.1569C20.8046 42.1569 20.2478 42.0895 20.0166 42.0544L18.5203 40.3423C19.1103 40.051 19.7001 39.4363 19.5446 38.3271ZM21.4434 10.0956C21.3967 10.1158 21.3507 10.1374 21.3055 10.1603C21.301 10.059 21.2904 9.95621 21.2742 9.85313C21.1109 8.91279 20.4873 8.23024 19.7919 8.23024C19.7404 8.23024 19.6886 8.23418 19.6318 8.24284C19.2181 8.31177 18.8936 8.62259 18.7157 9.06325C18.8717 8.09632 19.4195 7.3804 20.0695 7.3804C20.8328 7.3804 21.4775 8.40903 21.4775 9.6265C21.4775 9.77995 21.4664 9.9326 21.4434 10.0956ZM27.3743 10.8207C27.4442 10.5982 27.482 10.3574 27.482 10.1075C27.482 9.0036 26.7817 8.13881 25.8876 8.13881C25.0138 8.13881 24.303 9.02186 24.303 10.1075C24.303 10.1814 24.3066 10.2555 24.3135 10.3295C24.2672 10.3117 24.2221 10.2944 24.178 10.2777C24.0774 9.97321 24.0266 9.65546 24.0266 9.3311C24.0266 8.01117 24.8701 6.93723 25.9073 6.93723C26.9442 6.93723 27.7879 8.01117 27.7879 9.3311C27.7879 9.8802 27.6364 10.4043 27.3743 10.8207ZM26.6096 13.3897C26.5947 13.4565 26.5629 13.486 26.2113 13.6689C26.0338 13.7613 25.8128 13.8763 25.5363 14.0447L25.3516 14.1566C24.6091 14.6067 22.8705 15.661 22.3985 15.7229C22.0779 15.766 21.8797 15.6417 21.4338 15.3387C21.3332 15.2702 21.2262 15.1975 21.1121 15.1243C20.3084 14.597 19.7914 14.0161 19.733 13.789C19.995 13.5865 20.6445 13.0795 20.9771 12.7794C21.6521 12.1518 22.3313 11.73 22.6675 11.73C22.6853 11.73 22.7013 11.7313 22.718 11.7344C23.113 11.8041 24.0874 12.193 24.799 12.4769C25.1279 12.6082 25.412 12.7215 25.6119 12.7933C26.2415 13.0095 26.5698 13.2862 26.6096 13.3897ZM32.2669 42.7203C32.6221 41.118 33.0313 38.9383 32.965 37.6533C32.9498 37.3614 32.924 37.0437 32.899 36.7365C32.8522 36.162 32.7828 35.3082 32.8544 35.055C32.8686 35.0484 32.8843 35.0428 32.9018 35.0379C32.9048 35.7725 33.0644 37.2379 34.2362 37.7489C34.5854 37.9012 34.9845 37.9783 35.4223 37.9783C36.5962 37.9783 37.8987 37.4025 38.4322 36.869C38.7463 36.5548 39.0106 36.1705 39.1956 35.8661C39.2361 35.9847 39.261 36.1395 39.2479 36.3391C39.1782 37.4226 39.7048 38.8601 40.707 39.3898L40.8528 39.4665C41.2098 39.6538 42.1578 40.1516 42.1731 40.3876C42.1729 40.3878 42.1651 40.4155 42.1122 40.4646C41.8747 40.6816 41.0389 41.1084 40.2306 41.5212C38.7967 42.2533 37.1714 43.0832 36.4415 43.8509C35.4139 44.9324 34.2515 45.6588 33.5495 45.6588C33.465 45.6588 33.3881 45.6481 33.3196 45.6264C32.5573 45.3888 31.9298 44.2889 32.2669 42.7203ZM6.28207 38.6327C6.20432 38.2688 6.14294 37.9816 6.20889 37.7034C6.25673 37.4972 7.27449 37.2763 7.70917 37.182C8.32027 37.0493 8.9523 36.9122 9.36558 36.6614C9.92442 36.3229 10.2271 35.6985 10.494 35.1477C10.6872 34.7494 10.8868 34.3375 11.1243 34.2024C11.1377 34.1945 11.1581 34.1854 11.1971 34.1854C11.642 34.1854 12.5756 35.1207 13.1135 35.9577C13.25 36.1688 13.5027 36.5917 13.7951 37.0813C14.6697 38.5446 15.8672 40.5488 16.4926 41.2205C17.0562 41.8243 17.9685 42.9853 17.7441 43.981C17.5798 44.7536 16.7051 45.3819 16.4987 45.5208C16.4238 45.5378 16.3311 45.5465 16.2221 45.5465C15.025 45.5465 12.6556 44.5506 11.3825 44.0155L11.1942 43.9363C10.4833 43.6383 9.32277 43.4505 8.20051 43.2689C7.30754 43.1243 6.08471 42.9264 5.88201 42.7477C5.71771 42.5634 5.90829 41.9642 6.07637 41.4356C6.1974 41.0557 6.32236 40.6629 6.39082 40.2517C6.48792 39.5957 6.37366 39.0617 6.28207 38.6327Z" fill="white"/>
</svg>
