<svg width="48" height="48" viewBox="0 0 48 48" fill="none" xmlns="http://www.w3.org/2000/svg">
<path d="M37.101 25.5025C37.0384 19.4199 42.0602 16.509 42.2828 16.3629C39.4624 12.2418 35.0734 11.6749 33.505 11.6123C29.7733 11.2297 26.2156 13.8102 24.3167 13.8102C22.4248 13.8102 19.4966 11.6645 16.3979 11.7201C12.3219 11.7827 8.56944 14.0919 6.46888 17.7366C2.23645 25.0816 5.38382 35.9601 9.50844 41.9244C11.5255 44.8388 13.9321 48.1114 17.0865 47.9966C20.126 47.8749 21.2737 46.0282 24.9497 46.0282C28.6257 46.0282 29.6586 47.9966 32.872 47.9375C36.1446 47.8749 38.2138 44.964 40.2135 42.0427C42.5297 38.6588 43.4826 35.3793 43.5418 35.2158C43.4653 35.1741 37.167 32.764 37.101 25.5025Z" fill="white"/>
<path d="M31.0569 7.66498C32.7297 5.63744 33.8634 2.81351 33.5539 0C31.1369 0.0973772 28.219 1.60325 26.4836 3.63426C24.9291 5.43226 23.5762 8.30141 23.9379 11.0593C26.6297 11.2714 29.3841 9.68903 31.0569 7.66498Z" fill="white"/>
</svg>
