<svg width="77" height="77" viewBox="0 0 77 77" fill="none" xmlns="http://www.w3.org/2000/svg">
<rect width="77" height="77" rx="25" fill="#342A41"/>
<g clip-path="url(#clip0)">
<path d="M38.4172 29.4506C41.3193 29.4506 43.6719 27.0981 43.6719 24.196C43.6719 21.294 41.3193 18.9414 38.4172 18.9414C35.5152 18.9414 33.1626 21.294 33.1626 24.196C33.1626 27.0981 35.5152 29.4506 38.4172 29.4506Z" fill="white"/>
<path d="M56.8118 38.6526L51.9145 37.631C50.246 37.2815 48.5987 38.0462 47.7278 39.4057C46.882 38.9713 45.9724 38.5966 45.0049 38.2857V35.3735C45.0069 33.1701 43.2031 31.3683 41.0075 31.3683H36C33.7928 31.3683 31.9968 33.1701 31.9968 35.3735V38.3011C31.0389 38.6062 30.139 38.9809 29.2874 39.4173C28.4165 38.0519 26.7672 37.2815 25.0968 37.631L20.1955 38.6526C18.0442 39.1025 16.6479 41.2365 17.0979 43.3955L18.3281 49.2719C18.7742 51.4251 20.91 52.8214 23.0633 52.3714L24.6139 52.047C25.3902 53.1941 26.464 54.2465 27.8389 55.1465C30.7028 57.0235 34.486 58.0586 38.5007 58.0586C44.6437 58.0586 49.9351 55.5887 52.3722 52.0412L53.948 52.3714C56.0993 52.8194 58.2351 51.4251 58.6812 49.2719L59.9133 43.3955C60.3613 41.2365 58.965 39.1025 56.8118 38.6526ZM38.4988 56.0522C34.8721 56.0522 31.4732 55.1388 28.9377 53.4683C28.0687 52.9005 27.3483 52.2691 26.771 51.5932L27.9586 51.344C30.1138 50.896 31.51 48.7621 31.0601 46.6069L29.9574 41.3233C30.6004 40.9776 31.2764 40.6744 31.9947 40.4157V41.3793C31.9947 43.5789 33.7946 45.3807 35.998 45.3807H41.0054C43.2031 45.3807 45.0029 43.577 45.0029 41.3793V40.3655C45.7348 40.6262 46.4223 40.9255 47.0596 41.2654L45.9414 46.6089C45.4953 48.7641 46.8896 50.898 49.0447 51.346L50.2439 51.597C48.0078 54.2447 43.5835 56.0522 38.4988 56.0522Z" fill="white"/>
<path d="M55.7456 36.3584C58.6477 36.3584 61.0002 34.0058 61.0002 31.1038C61.0002 28.2017 58.6477 25.8492 55.7456 25.8492C52.8435 25.8492 50.491 28.2017 50.491 31.1038C50.491 34.0058 52.8435 36.3584 55.7456 36.3584Z" fill="white"/>
<path d="M22.333 36.2482C25.1756 35.6534 26.9909 32.8668 26.4038 30.0261C25.8052 27.1873 23.0243 25.3643 20.1797 25.9591C17.341 26.5519 15.5179 29.3366 16.1128 32.1774C16.7057 35.02 19.4904 36.8411 22.333 36.2482Z" fill="white"/>
</g>
<defs>
<clipPath id="clip0">
<rect width="45" height="45" fill="white" transform="translate(16 16)"/>
</clipPath>
</defs>
</svg>
