<svg width="77" height="77" viewBox="0 0 77 77" fill="none" xmlns="http://www.w3.org/2000/svg">
<rect width="77" height="77" rx="25" fill="#342A41"/>
<path d="M51.2016 45.0796C49.4195 47.5272 46.5327 49.1213 43.2802 49.1213H38.7164C37.1399 49.1213 35.7974 48.1204 35.289 46.7195C34.6615 46.5323 34.0461 46.2894 33.4456 45.991C32.1739 45.3591 31.0192 44.5031 30.0028 43.4427C23.4094 44.8912 18.4747 50.7662 18.4747 57.7947V58.7133C18.4747 59.9762 19.4985 61 20.7614 61H56.2395C57.5023 61 58.5261 59.9762 58.5261 58.7133V57.7947C58.5261 52.3651 55.581 47.6238 51.2016 45.0796Z" fill="white"/>
<path d="M27.5724 38.7295C28.5552 38.7295 29.4106 38.1848 29.8538 37.3809C29.8654 37.4128 29.8773 37.4444 29.8892 37.476C29.8927 37.4855 29.8963 37.495 29.8998 37.5045C30.9394 40.2411 32.9624 42.5352 35.6299 43.5376C36.275 42.5125 37.4158 41.8307 38.7166 41.8307H43.2803C43.7355 41.8307 44.1592 41.7023 44.5306 41.4947C45.1544 41.1459 45.7154 40.261 46.0051 39.7919C46.4686 39.0414 46.8278 38.2464 47.1463 37.3796C47.3252 37.7046 47.5713 37.9873 47.8662 38.2089V39.3279C47.8662 41.8566 45.809 43.9139 43.2802 43.9139H38.7165C37.8537 43.9139 37.1542 44.6134 37.1542 45.4761C37.1542 46.339 37.8537 47.0384 38.7165 47.0384H43.2802C47.5318 47.0384 50.9907 43.5795 50.9907 39.3279V38.2089C51.6231 37.7338 52.0322 36.9776 52.0322 36.1258V31.4151V29.6087C52.0322 28.7394 51.6058 27.9702 50.9512 27.4973C50.4435 21.0726 45.0533 16 38.5004 16C31.9474 16 26.5573 21.0726 26.0496 27.4972C25.395 27.9701 24.9686 28.7394 24.9686 29.6086V36.1256C24.9686 37.5677 26.1402 38.7295 27.5724 38.7295ZM38.5004 19.1246C43.3514 19.1246 47.3525 22.8317 47.8202 27.5618C47.5132 27.8033 47.2617 28.112 47.0884 28.4662C45.6143 24.6202 42.3236 21.9425 38.5003 21.9425C34.5946 21.9425 31.3567 24.7122 29.918 28.4508C29.916 28.4559 29.9142 28.4611 29.9122 28.4663C29.7389 28.1121 29.4874 27.8034 29.1804 27.5619C29.6484 22.8317 33.6494 19.1246 38.5004 19.1246Z" fill="white"/>
</svg>
