<svg width="158" height="158" viewBox="0 0 158 158" fill="none" xmlns="http://www.w3.org/2000/svg">
<rect width="158" height="158" rx="30" fill="#1D1428"/>
<rect x="40" y="40" width="77" height="77" rx="25" fill="#342A41"/>
<g clip-path="url(#clip0)">
<path d="M78.97 60.75H76.9075C76.2887 58.5938 74.3012 57 71.9387 57C69.5762 57 67.5887 58.5938 66.97 60.75H64.9075C64.1387 60.75 63.5012 61.3875 63.5012 62.1562V64.9688C63.5012 66.7688 64.9825 68.25 66.7825 68.25H77.095C78.895 68.25 80.3762 66.7688 80.3762 64.9688V62.1562C80.3762 61.3875 79.7387 60.75 78.97 60.75Z" fill="#F8F7FC"/>
<path d="M82.7188 62.625H82.25V64.9688C82.25 67.8187 79.9438 70.125 77.0938 70.125H66.7813C63.9313 70.125 61.625 67.8187 61.625 64.9688V62.625H61.1563C58.3063 62.625 56 64.9313 56 67.7812V91.2188C56 94.0688 58.3063 96.375 61.1563 96.375H73.5125C72.575 94.3687 72.0125 92.1562 71.9563 89.8125H63.0313C62.2625 89.8125 61.625 89.175 61.625 88.4062C61.625 87.6375 62.2625 87 63.0313 87H72.1063C72.275 85.8563 72.5562 84.7687 72.9313 83.7188H63.0313C62.2625 83.7188 61.625 83.0812 61.625 82.3125C61.625 81.5438 62.2625 80.9062 63.0313 80.9062H74.2813C75.0125 79.7062 75.875 78.6 76.8875 77.625H63.0313C62.2625 77.625 61.625 76.9875 61.625 76.2188C61.625 75.45 62.2625 74.8125 63.0313 74.8125H80.7313C82.8875 73.6875 85.3063 73.0125 87.875 72.9563V67.7812C87.875 64.9313 85.5688 62.625 82.7188 62.625Z" fill="#F8F7FC"/>
<path d="M88.3438 76.6875C81.365 76.6875 75.6875 82.365 75.6875 89.3438C75.6875 96.3225 81.365 102 88.3438 102C95.3225 102 101 96.3225 101 89.3438C101 82.365 95.3225 76.6875 88.3438 76.6875ZM94.4413 86.8294L87.8788 94.3294C87.5375 94.7194 87.05 94.9519 86.5306 94.9688C86.51 94.9688 86.4894 94.9688 86.4688 94.9688C85.9719 94.9688 85.4956 94.7719 85.1431 94.4194L81.3931 90.6694C80.66 89.9363 80.66 88.7512 81.3931 88.0181C82.1263 87.285 83.3112 87.285 84.0444 88.0181L86.3769 90.3506L91.6194 84.3581C92.3019 83.5819 93.485 83.4994 94.265 84.1819C95.045 84.8644 95.1238 86.0494 94.4413 86.8294Z" fill="#F8F7FC"/>
</g>
<defs>
<clipPath id="clip0">
<rect width="45" height="45" fill="white" transform="translate(56 57)"/>
</clipPath>
</defs>
</svg>
