<svg width="77" height="77" viewBox="0 0 77 77" fill="none" xmlns="http://www.w3.org/2000/svg">
<rect width="77" height="77" rx="25" fill="#342A41"/>
<path d="M33.2266 31.9082H45.0918V17.3184C45.0918 16.5906 44.5012 16 43.7734 16H17.3184C16.5906 16 16 16.5906 16 17.3184V43.7734C16 44.5012 16.5906 45.0918 17.3184 45.0918H31.9082V33.2266C31.9082 32.4988 32.4988 31.9082 33.2266 31.9082Z" fill="white"/>
<path d="M59.6816 31.9082H45.0918V43.7734C45.0918 44.5012 44.5012 45.0918 43.7734 45.0918H31.9082V59.6816C31.9082 60.4094 32.4988 61 33.2266 61H59.6816C60.4094 61 61 60.4094 61 59.6816V33.2266C61 32.4988 60.4094 31.9082 59.6816 31.9082Z" fill="white"/>
</svg>
