<svg width="77" height="77" viewBox="0 0 77 77" fill="none" xmlns="http://www.w3.org/2000/svg">
<rect width="77" height="77" rx="25" fill="#342A41"/>
<g clip-path="url(#clip0)">
<path d="M27.7061 44.5431C27.0185 43.8557 26.7595 44.2011 26.6066 44.3542C22.647 48.3137 19.1318 57.8676 20.9901 56.9344C27.7553 53.5376 28.8825 54.549 32.8419 50.5897C32.995 50.4366 33.347 50.1843 32.6394 49.4765L27.7061 44.5431Z" fill="white"/>
<path d="M49.0516 44.4901C48.8722 43.9191 49.2481 43.6439 49.4063 43.4731C58.1455 34.0381 63.6996 21.4677 59.5837 17.3516C55.4894 13.2576 43.3067 18.974 33.8743 27.6501C33.6877 27.822 33.3199 28.1474 32.6619 28.0101L29.7231 27.3103C28.9072 27.1162 27.7543 27.4424 27.1612 28.0355L16.3779 38.8186C15.7849 39.4118 15.9776 40.0037 16.8062 40.1338L24.6054 41.3594C25.434 41.4898 26.5972 41.111 27.1902 40.5178C27.1902 40.5178 27.5926 40.1143 27.9969 40.5185C30.2275 42.7489 34.3726 46.8939 36.4978 49.0192C36.9202 49.4415 36.5156 49.8433 36.5156 49.8433C35.9224 50.4365 35.5438 51.5994 35.6741 52.4282L36.8996 60.2272C37.0299 61.0562 37.6217 61.2489 38.2148 60.6556L48.9982 49.8722C49.5912 49.2791 49.9175 48.1265 49.7232 47.3106L49.0516 44.4901ZM46.6374 30.5589C44.8109 28.7324 44.8109 25.7715 46.6374 23.9453C48.4637 22.1188 51.4247 22.1188 53.2512 23.9453C55.0774 25.7713 55.0774 28.7324 53.2512 30.5587C51.4247 32.3852 48.4636 32.3852 46.6374 30.5589Z" fill="white"/>
</g>
<defs>
<clipPath id="clip0">
<rect width="45" height="45" fill="white" transform="translate(16 16)"/>
</clipPath>
</defs>
</svg>
