<svg width="77" height="77" viewBox="0 0 77 77" fill="none" xmlns="http://www.w3.org/2000/svg">
<rect width="77" height="77" rx="25" fill="#342A41"/>
<g clip-path="url(#clip0)">
<path d="M58.9414 43.0525C58.9376 43.0487 58.9339 43.045 58.9301 43.0413L56.2939 40.6187C56.3745 39.9062 56.4139 39.1956 56.4139 38.5C56.4139 37.8044 56.3745 37.0938 56.2939 36.3813L58.9414 33.9475C60.0383 32.9162 60.2914 31.2775 59.5451 29.9444L56.4364 24.5669C55.6976 23.2562 54.1039 22.6337 52.6414 23.0894L49.2251 24.1675C48.0758 23.2994 46.8476 22.5869 45.5614 22.0412L44.7701 18.5294C44.4364 17.0406 43.1408 16 41.6183 16H35.382C33.8595 16 32.5639 17.0406 32.2301 18.5294L31.4389 22.0412C30.1526 22.5869 28.9264 23.2994 27.7751 24.1675L24.3533 23.0875C22.8926 22.63 21.2989 23.2562 20.5714 24.5519L17.4458 29.9631C16.7089 31.2775 16.962 32.9163 18.0701 33.9587L20.7064 36.3813C20.6258 37.0938 20.5845 37.8044 20.5845 38.5C20.5845 39.1956 20.6239 39.9062 20.7045 40.6187L18.057 43.0525C16.9601 44.0838 16.707 45.7225 17.4533 47.0556L20.562 52.4331C21.2989 53.7437 22.8908 54.3625 24.357 53.9106L27.7733 52.8325C28.9226 53.7006 30.1508 54.4131 31.437 54.9587L32.2283 58.4706C32.5639 59.9594 33.8595 61 35.382 61H41.6183C43.1408 61 44.4364 59.9594 44.7701 58.4706L45.5614 54.9569C46.8495 54.4113 48.0758 53.6987 49.2251 52.8306L52.647 53.9106C54.1058 54.3644 55.6995 53.74 56.4289 52.4463L59.5564 47.0369C60.2914 45.7225 60.0383 44.0838 58.9414 43.0525ZM42.3251 47.6706C42.3251 48.8144 41.3876 49.7519 40.2251 49.7519H36.7751C35.7626 49.7519 34.6751 49.0019 34.6751 47.3331V46.3206H42.3251V47.6706ZM43.8439 42.1206C43.0564 42.7581 42.5501 43.5831 42.3814 44.4456H34.6376C34.5064 43.6019 34.0376 42.8144 33.2689 42.2144C31.1876 40.5831 30.0064 38.1269 30.0626 35.4644C30.1564 31.0019 33.8876 27.3081 38.3689 27.2519C40.6376 27.1956 42.8126 28.0769 44.4439 29.6894C46.0564 31.2644 46.9376 33.3831 46.9376 35.6331C46.9376 38.1644 45.8145 40.5269 43.8439 42.1206Z" fill="white"/>
</g>
<defs>
<clipPath id="clip0">
<rect width="45" height="45" fill="white" transform="translate(16 16)"/>
</clipPath>
</defs>
</svg>
