<svg width="77" height="77" viewBox="0 0 77 77" fill="none" xmlns="http://www.w3.org/2000/svg">
<rect width="77" height="77" rx="25" fill="#342A41"/>
<g clip-path="url(#clip0)">
<path d="M57.3579 27.5867C57.3348 26.3717 57.3127 25.224 57.3127 24.1137C57.3127 23.2438 56.6077 22.5385 55.7376 22.5385C49.0014 22.5385 43.8726 20.6026 39.5975 16.446C38.986 15.8512 38.0127 15.8514 37.4014 16.446C33.1267 20.6026 27.9988 22.5385 21.263 22.5385C20.3931 22.5385 19.6879 23.2438 19.6879 24.1137C19.6879 25.2242 19.666 26.3724 19.6427 27.5875C19.4268 38.8939 19.1311 54.3786 37.9836 60.9132C38.1507 60.9711 38.325 61.0001 38.4993 61.0001C38.6737 61.0001 38.8482 60.9711 39.0151 60.9132C57.8691 54.3783 57.5738 38.8933 57.3579 27.5867ZM38.4996 57.7535C22.3311 51.88 22.5756 39.0134 22.7925 27.6476C22.8055 26.9655 22.8181 26.3043 22.827 25.6562C29.1358 25.3899 34.1808 23.4781 38.4996 19.7159C42.8187 23.4781 47.8646 25.3901 54.1738 25.6562C54.1827 26.3041 54.1953 26.9648 54.2083 27.6465C54.425 39.0128 54.6693 51.8798 38.4996 57.7535Z" fill="#F8F7FC"/>
<path d="M43.9244 33.0285L36.322 40.6304L33.0779 37.3863C32.4628 36.7714 31.4654 36.7714 30.8505 37.3863C30.2354 38.0017 30.2354 38.9988 30.8505 39.614L35.2083 43.9718C35.5158 44.2792 35.919 44.433 36.322 44.433C36.7251 44.433 37.1283 44.2792 37.4358 43.9718L46.1516 35.2561C46.7669 34.641 46.7669 33.6436 46.1518 33.0287C45.5369 32.4136 44.5395 32.4134 43.9244 33.0285Z" fill="#F8F7FC"/>
</g>
<defs>
<clipPath id="clip0">
<rect width="45" height="45" fill="white" transform="translate(16 16)"/>
</clipPath>
</defs>
</svg>
