<svg width="257" height="42" viewBox="0 0 257 42" fill="none" xmlns="http://www.w3.org/2000/svg">
<g clip-path="url(#clip0)">
<path d="M41.2562 36.6292C42.9781 35.5102 44.7002 34.2142 44.7002 31.5635V15.2467L42.0875 12.4782L41.078 13.4796L43.3345 15.8947V31.5046C43.3345 33.6841 42.5031 35.2745 41.1969 36.3936L41.2562 36.6292ZM31.1617 2.05201L31.1023 2.22871C31.8742 2.52329 32.8244 3.28901 32.8244 4.82046V28.8538L31.8742 29.7963L35.5557 32.8593L36.6246 31.9758L33.6556 29.5606L34.19 29.0895V5.0561C34.19 3.11231 32.4681 2.16976 31.1617 2.05201ZM33.3587 38.2786C37.9903 37.9252 42.6219 36.3936 42.6219 31.5046V16.1303L40.5437 14.0097L38.2279 16.248V27.7936L40.1279 29.5018L35.7339 33.3895H35.3182L30.9836 29.7374L32.1712 28.5593V5.0561C32.1712 3.28901 30.6273 2.34646 29.7365 2.11095V1.69862C30.1523 1.46298 30.8055 1.34509 31.6367 1.34509C33.1213 1.34509 34.487 2.22871 34.9027 3.23007H35.0213C35.9121 1.87531 37.3371 1.34509 38.7029 1.34509C39.1185 1.34509 39.5936 1.40403 40.0686 1.52179V1.99307C39.2967 2.2287 38.1685 3.17113 38.1685 5.46843V15.2467L43.9283 9.88637H44.3439C44.7595 10.2987 47.2535 12.537 47.7285 12.8316C47.9661 12.9494 48.2629 13.0673 48.5599 13.0673C49.0349 13.0673 49.3911 12.8906 49.7475 12.7138V13.3617C49.2725 13.774 48.7379 14.5399 48.7379 15.4823V28.7949C48.7379 34.6855 42.2063 38.2786 33.4181 38.8678V38.2786H33.3587Z" fill="#DCDCDC"/>
<path d="M59.7827 12.5958L58.5951 13.4204C59.9609 14.952 61.6235 16.9547 63.3456 18.8397L64.5331 18.015C62.8112 16.13 61.1484 14.1273 59.7827 12.5958ZM58.4171 22.0206L62.6924 19.1343C61.2079 17.426 59.664 15.6588 58.4171 14.2451V22.0206ZM61.2079 31.8577C58.5952 30.6796 56.2794 29.796 54.2606 28.6769C54.3792 27.911 54.4386 27.0274 54.4386 24.5534V14.8341L53.0728 15.541V24.5534C53.0728 27.0274 53.0135 28.618 52.776 29.3248C54.7949 30.444 57.6451 31.622 60.2578 32.8002L61.2079 31.8577ZM52.3603 15.1876C54.9136 13.9506 58.714 11.7121 61.2672 9.88611H61.7423C63.4049 11.5944 65.8395 14.3628 67.9768 16.2478V16.7191L58.4764 22.9041V26.733C59.4858 27.381 62.2173 28.7357 63.8799 29.3248L67.7395 25.6727L68.2148 26.144L60.4954 33.566H59.9609C57.3482 32.4467 54.023 31.033 51.8852 29.855C52.1228 29.0303 52.3603 27.0864 52.3603 24.6713V15.1876Z" fill="#DCDCDC"/>
<path d="M247.6 36.5702C249.321 35.4511 251.044 34.1551 251.044 31.5044V15.1876L248.431 12.4192L247.422 13.4206L249.678 15.8356V31.4455C249.678 33.625 248.847 35.2154 247.54 36.3347L247.6 36.5702ZM237.565 1.99292L237.505 2.16962C238.278 2.4642 239.227 3.22992 239.227 4.76151V28.7948L238.278 29.7372L241.959 32.8004L243.028 31.9168L240.058 29.5016L240.593 29.0304V4.99715C240.593 3.05323 238.812 2.16962 237.565 1.99292ZM239.702 38.2196C244.334 37.8661 248.965 36.3347 248.965 31.4455V16.0712L246.887 13.9506L244.571 16.1891V27.7345L246.472 29.4428L242.077 33.3304H241.661L237.327 29.6784L238.515 28.5002V4.99715C238.515 3.22992 236.97 2.2875 236.081 2.05186V1.63953C236.496 1.40389 237.149 1.28601 237.98 1.28601C239.465 1.28601 240.831 2.16962 241.246 3.17098H241.365C242.255 1.81623 243.681 1.28601 245.047 1.28601C245.462 1.28601 245.937 1.34495 246.412 1.4627V1.93398C245.64 2.16962 244.512 3.11217 244.512 5.40935V15.1876L250.213 9.76836H250.627C251.044 10.1807 253.537 12.4192 254.013 12.7136C254.25 12.8315 254.547 12.9492 254.843 12.9492C255.319 12.9492 255.675 12.7726 256.031 12.5958V13.4206C255.556 13.8329 255.021 14.5986 255.021 15.5412V28.7358C255.021 34.6264 248.491 38.2196 239.702 38.8087V38.2196Z" fill="#DCDCDC"/>
<path d="M116.253 12.5959L115.065 13.4205C116.431 14.9521 118.093 16.9549 119.815 18.8399L121.003 18.0152C119.34 16.1302 117.618 14.0685 116.253 12.5959ZM115.005 21.9618L119.281 19.0755C117.797 17.3672 116.253 15.6 115.005 14.1863V21.9618ZM117.737 31.7989C115.124 30.6208 112.809 29.7372 110.789 28.6181C110.909 27.8523 110.968 26.9688 110.968 24.4947V14.7753L109.602 15.4822V24.4947C109.602 26.9688 109.543 28.5591 109.305 29.2661C111.324 30.3852 114.174 31.5633 116.787 32.7415L117.737 31.7989ZM108.889 15.1288C111.443 13.8918 115.303 11.6533 117.797 9.82727H118.271C119.934 11.5356 122.369 14.3041 124.507 16.1891V16.6603L115.005 22.7865V26.6153C116.015 27.2632 118.747 28.6181 120.409 29.2071L124.269 25.5549L124.744 26.0262L117.025 33.4482H116.549C113.937 32.3291 110.611 30.9154 108.474 29.7372C108.711 28.9125 108.949 26.9688 108.949 24.5536V15.1288H108.889Z" fill="#DCDCDC"/>
<path d="M132.523 31.7402C130.801 31.2689 129.078 30.1496 129.078 27.7346V6.23429L127.178 4.29037L126.169 5.29174L127.713 6.88224V28.2648C127.713 30.6799 129.672 32.2703 131.513 32.6826L132.523 31.7402ZM133.117 4.46707V27.2633C133.117 28.2648 134.066 29.1483 134.957 29.325L136.322 27.9702L136.739 28.4415L131.81 33.3895H131.513C129.613 32.9772 127 31.3278 127 28.4415V7.23564L125.635 5.88077L124.209 7.29457L123.793 6.82331L129.257 1.34509H129.613L133.117 4.46707Z" fill="#DCDCDC"/>
<path d="M146.299 12.5369L145.111 13.3616C146.477 14.8932 148.139 16.8959 149.862 18.7809L151.048 17.9562C149.386 16.0713 147.665 14.0685 146.299 12.5369ZM144.933 21.9618L149.208 19.0755C147.724 17.3672 146.179 15.6 144.933 14.1863V21.9618ZM147.724 31.7989C145.111 30.6208 142.795 29.7372 140.777 28.6181C140.895 27.8523 140.955 26.9688 140.955 24.4947V14.7753L139.589 15.4822V24.4947C139.589 26.9688 139.529 28.5591 139.293 29.2661C141.311 30.3852 144.161 31.5633 146.774 32.7415L147.724 31.7989ZM138.876 15.1288C141.429 13.8918 145.29 11.6533 147.783 9.82727H148.259C149.921 11.5356 152.354 14.3041 154.492 16.1891V16.6603L144.993 22.7865V26.6153C146.001 27.2632 148.733 28.6181 150.397 29.2071L154.256 25.5549L154.73 26.0262L147.011 33.4482H146.535C143.923 32.3291 140.599 30.9154 138.461 29.7372C138.758 28.9125 138.936 26.9688 138.936 24.5536V15.1288H138.876Z" fill="#DCDCDC"/>
<path d="M187.093 14.0683C187.864 14.7752 188.933 15.7766 189.824 16.5424L190.715 15.541C189.883 14.7752 188.577 13.656 187.923 13.067L187.093 14.0683ZM184.776 31.7399C182.995 31.2686 181.273 30.1494 181.273 27.7343V14.7163L179.373 12.8313L178.305 13.8327L179.848 15.4231V28.3233C179.848 30.7385 181.807 32.3289 183.648 32.7412L184.776 31.7399ZM185.311 16.071V27.263C185.311 28.2645 186.201 29.148 187.151 29.3247L188.518 27.97L188.933 28.4412L184.005 33.3892H183.707C181.867 32.9769 179.254 31.3276 179.254 28.4412V15.6587L177.888 14.304L176.464 15.7176L175.988 15.2464L181.451 9.76831H181.867L185.369 13.1258V15.0108L189.765 9.76831H190.18C191.071 10.6518 192.436 12.0066 193.683 12.8903V12.9491L190.002 17.308H189.883C188.874 16.4246 187.449 15.1876 186.736 14.4217L185.311 16.071Z" fill="#DCDCDC"/>
<path d="M204.312 28.0879V21.1371C202.946 20.7836 201.521 20.1946 200.156 19.5466V28.1468L202.59 29.6784L204.312 28.0879ZM209.835 31.7989C208.171 31.1511 206.39 29.9729 206.39 27.6167V15.6589L199.8 12.3603C199.622 12.478 198.849 13.0082 198.612 13.1849L205.024 16.4836V28.1468C205.024 30.3852 207.103 32.1524 208.825 32.7415L209.835 31.7989ZM204.312 20.4892V16.8959L198.077 13.5973C197.603 13.9507 195.939 14.9521 195.404 15.2466C196.83 17.1905 200.75 19.6055 204.312 20.4892ZM200.571 31.6811L196.178 28.7359V22.3152L194.811 23.3166V29.5605L199.561 32.6825L200.571 31.6811ZM199.383 33.3894L194.099 29.9139V23.0221C195.465 22.0796 198.197 20.1946 199.561 19.2522C197.484 18.1329 195.702 16.7781 194.633 15.4233V14.9521C197.78 13.1849 200.037 11.5356 201.936 9.82727H202.353C202.353 9.82727 208.884 12.8903 209.181 13.0082C209.538 13.1849 209.835 13.3027 210.191 13.3027C210.666 13.3027 211.022 13.1849 211.497 12.9493V13.6562C211.022 14.0096 210.487 14.6575 210.487 15.6589V27.1455C210.487 28.3235 211.556 29.1482 212.389 29.3249L213.753 27.9701L214.168 28.4414L209.24 33.3894H208.944C207.043 32.8592 204.907 31.0331 204.55 28.8537L199.858 33.3894H199.383Z" fill="#DCDCDC"/>
<path d="M167.201 28.0878V16.13L162.807 14.2451V27.8522L165.597 29.6783L167.201 28.0878ZM169.278 14.7752L162.807 12.0656V13.4794L167.913 15.6588V28.7946C167.913 31.622 169.159 34.6852 171.06 37.0414L172.069 36.04C170.406 33.8606 169.278 31.4454 169.278 28.559V14.7752ZM162.331 32.6824L163.4 31.681L158.767 28.7357V14.7164L157.403 15.6588V29.4426L162.331 32.6824ZM160.49 38.2784C158.767 38.2784 157.283 39.0442 156.393 40.2222V40.4579C157.403 39.8688 158.649 39.5154 160.49 39.5154C162.746 39.5154 165.656 40.1633 167.318 41.0469L168.209 39.9866C166.309 39.0442 163.459 38.2784 160.49 38.2784ZM156.749 29.7372V15.1876L164.469 9.88611H164.943C166.488 10.5341 171.416 12.6547 172.069 12.8903C172.307 13.0081 172.603 13.067 172.901 13.067C173.376 13.067 173.911 12.8903 174.385 12.6547V13.4794C173.911 13.8917 173.316 14.7753 173.316 15.4821V27.7933C173.316 30.6796 173.969 32.3879 175.097 33.507V33.9783C173.376 35.6866 169.456 39.751 167.675 41.8716H167.379C165.716 40.9292 162.865 40.1633 160.549 40.1633C158.828 40.1633 156.868 40.6346 155.443 41.7538L155.086 41.4592C156.453 38.3373 159.302 35.2742 162.925 35.2742C165.181 35.2742 168.15 36.2167 170.703 37.5716C168.982 35.6276 167.379 32.0344 167.379 29.0303L162.807 33.3893H162.45L156.749 29.7372Z" fill="#DCDCDC"/>
<path d="M225.985 13.6562L228.361 15.9535V28.5591L229.727 27.7935V15.1877L227.055 12.5369L225.985 13.6562ZM226.995 33.0949C227.233 32.7415 227.708 32.2702 228.004 31.9757L223.254 30.9742V32.2702L226.995 33.0949ZM227.648 28.6181V16.1891L225.57 14.0685L223.254 16.2479V27.7935C224.264 27.9701 227.113 28.5002 227.648 28.6181ZM217.851 37.1594L216.9 38.0429L220.405 41.0471L221.472 40.1045L218.682 37.8072L219.157 37.3361V14.8343L217.197 12.8903L216.187 13.8918L217.732 15.4822V37.1594H217.851ZM223.254 15.2466L228.955 9.82727H229.371C229.786 10.2396 232.398 12.5959 232.815 12.8315C233.052 12.9493 233.349 13.0082 233.587 13.0082C234.062 13.0082 234.417 12.8315 234.773 12.6548V13.4795C234.299 13.8329 233.765 14.6575 233.765 15.6V29.5016C231.331 30.0907 229.371 31.3865 227.233 33.8605H227.055L223.254 33.0359V36.0991L225.214 37.8661L220.583 41.6951H220.345L215.951 38.0429L217.139 36.8059V31.6811C216.663 31.6222 215.772 31.4455 215.357 31.3277V30.6798C215.891 30.4441 217.257 29.1482 217.257 28.0289V15.7768L215.891 14.4219L214.466 15.8356L213.991 15.3643L219.514 9.88627H219.929L223.373 13.2439V15.2466H223.254Z" fill="#DCDCDC"/>
<path d="M13.5853 21.9617L13.526 15.9534L12.1603 16.8958V22.5507C12.1603 23.1987 12.0416 23.67 11.8634 24.0823H12.0416C12.9321 23.5521 13.5853 22.7275 13.5853 21.9617ZM6.57863 12.5369C4.6191 14.4808 2.77834 17.1904 2.77834 20.6658C2.77834 28.8537 8.36 32.977 15.3668 32.977C19.7609 32.977 22.7892 30.6207 24.5706 28.8537L24.4518 28.6769C22.3735 30.3263 19.5827 31.6221 15.3668 31.6221C9.66634 31.6221 4.20345 28.1467 4.20345 20.6658C4.20345 17.6617 5.27228 14.7164 6.6974 12.7135L6.57863 12.5369ZM21.661 9.29712C16.3762 9.29712 11.6853 6.70519 7.8256 6.70519C5.39103 6.70519 2.54082 7.70672 1.53137 10.5341L1.70951 10.5931C2.8971 8.64912 5.50979 8.00119 7.885 8.00119C11.7446 8.00119 16.4357 10.5931 21.7205 10.5931C25.9363 10.5931 28.4303 9.17925 28.8459 5.82174L28.6083 5.76279C27.9553 8.41352 25.9363 9.29712 21.661 9.29712ZM2.06578 20.6069C2.06578 15.0698 6.28173 11.2409 10.2601 9.47379L10.5571 9.82719C9.13194 11.4765 8.12247 13.0671 8.12247 16.4247C8.12247 20.2535 9.13194 22.9631 10.7352 24.7303C11.2695 24.1411 11.5665 23.1987 11.5665 22.3741V16.6014L18.692 11.5355L18.989 11.9478C18.3358 12.8314 17.9795 13.6561 17.9795 15.0109V18.6631C17.9795 21.2548 13.7635 23.9645 11.0915 25.0247C12.8135 26.7331 15.3075 27.4398 17.9201 27.4398C18.9295 27.4398 19.7609 27.381 20.5327 27.2631V11.1821C18.2169 11.0642 16.02 10.4163 14.0011 9.88612C11.8634 9.23819 9.66634 8.70805 7.7662 8.70805C4.916 8.70805 1.41261 9.70945 1.35323 13.7739C1.35323 14.1274 1.41261 14.5397 1.472 14.9521L0.937571 15.1287C0.462544 13.8328 0.165644 12.5958 0.165644 11.3588C0.106259 6.35182 3.84716 1.99284 9.78514 1.99284C12.2791 1.99284 14.6543 2.64081 16.7325 3.1709C18.989 3.81887 21.1266 4.3491 23.3831 4.3491C24.5113 4.3491 25.1643 3.76007 25.1643 2.69976C25.1643 1.63945 24.6299 1.10923 23.7987 0.873592L23.9174 0.343506C26.4707 0.814785 29.2615 2.28743 29.2615 5.46821C29.2615 9.29712 26.4707 11.1231 21.7205 11.1231H21.2453V27.0864C24.3925 26.4974 26.4114 25.0247 28.0147 22.6097L28.4897 22.9041C26.7676 28.3234 22.6705 33.5071 15.4261 33.5071C8.06314 33.6249 2.06578 29.3837 2.06578 20.6069Z" fill="#DCDCDC"/>
<path d="M91.3727 21.9617L91.3134 15.9534L89.9474 16.8958V22.5507C89.9474 23.1987 89.8287 23.67 89.6507 24.0823H89.8287C90.7194 23.5521 91.3727 22.7275 91.3727 21.9617ZM84.366 12.5369C82.406 14.4808 80.5654 17.1904 80.5654 20.6658C80.5654 28.8537 86.1474 32.977 93.154 32.977C97.548 32.977 100.577 30.6207 102.358 28.8537L102.239 28.6769C100.161 30.3263 97.37 31.6221 93.154 31.6221C87.4534 31.6221 81.9907 28.1467 81.9907 20.6658C81.9907 17.6617 83.0594 14.7164 84.4847 12.7135L84.366 12.5369ZM99.5074 9.29712C94.2227 9.29712 89.532 6.70519 85.672 6.70519C83.2374 6.70519 80.3874 7.70672 79.378 10.5341L79.556 10.5931C80.7434 8.64912 83.3567 8.00119 85.7314 8.00119C89.5914 8.00119 94.282 10.5931 99.5667 10.5931C103.783 10.5931 106.277 9.17925 106.693 5.82174L106.455 5.76279C105.743 8.41352 103.723 9.29712 99.5074 9.29712ZM79.8527 20.6069C79.8527 15.0698 84.0687 11.2409 88.0474 9.47379L88.344 9.82719C86.9194 11.4765 85.91 13.0671 85.91 16.4247C85.91 20.2535 86.9194 22.9631 88.5227 24.7303C89.0567 24.1411 89.354 23.1987 89.354 22.3741V16.6014L96.4794 11.5355L96.776 11.9478C96.1227 12.8314 95.7667 13.6561 95.7667 15.0109V18.6631C95.7667 21.2548 91.5507 23.9645 88.8787 25.0247C90.6007 26.7331 93.0947 27.4398 95.7074 27.4398C96.7167 27.4398 97.548 27.381 98.32 27.2631V11.1821C96.004 11.0642 93.8074 10.4163 91.788 9.88612C89.6507 9.23819 87.4534 8.70805 85.5534 8.70805C82.7034 8.70805 79.2 9.70945 79.1407 13.7739C79.1407 14.1274 79.2 14.5397 79.2 14.9521L78.6654 15.1287C78.19 13.8328 77.8934 12.5958 77.8934 11.3588C77.834 6.35182 81.5747 1.99284 87.5127 1.99284C90.0067 1.99284 92.382 2.64081 94.4607 3.1709C96.7167 3.81887 98.8547 4.3491 101.111 4.3491C102.239 4.3491 102.892 3.76007 102.892 2.69976C102.892 1.63945 102.358 1.10923 101.527 0.873592L101.586 0.343506C104.139 0.814785 106.93 2.28743 106.93 5.46821C106.93 9.29712 104.139 11.1231 99.3887 11.1231H98.914V27.0864C102.061 26.4974 104.08 25.0247 105.683 22.6097L106.158 22.9041C104.436 28.3234 100.339 33.5071 93.0947 33.5071C85.85 33.6249 79.8527 29.3837 79.8527 20.6069Z" fill="#DCDCDC"/>
</g>
<defs>
<clipPath id="clip0">
<rect width="256.667" height="42" fill="white"/>
</clipPath>
</defs>
</svg>
