<svg width="32" height="32" viewBox="0 0 32 32" fill="none" xmlns="http://www.w3.org/2000/svg">
<g clip-path="url(#clip0)">
<path d="M16 0C12.8355 0 9.74204 0.938384 7.11085 2.69649C4.47967 4.45459 2.42891 6.95345 1.2179 9.87707C0.00690199 12.8007 -0.309951 16.0177 0.307412 19.1214C0.924776 22.2251 2.44863 25.0761 4.68627 27.3137C6.92391 29.5513 9.77484 31.0752 12.8785 31.6926C15.9822 32.3099 19.1993 31.9931 22.1229 30.7821C25.0465 29.5711 27.5454 27.5203 29.3035 24.8891C31.0616 22.2579 32 19.1645 32 16C32 11.7565 30.3143 7.68687 27.3137 4.68629C24.3131 1.68571 20.2434 0 16 0V0ZM23.9684 11.1579C23.5902 11.726 23.1281 12.2335 22.5979 12.6632C22.531 12.7189 22.4774 12.7888 22.441 12.8678C22.4046 12.9468 22.3863 13.033 22.3873 13.12V13.1726C22.3812 14.3136 22.1716 15.4442 21.7684 16.5116C21.353 17.6318 20.7358 18.6665 19.9473 19.5642C18.8879 20.7703 17.5249 21.671 16 22.1726C14.9979 22.4979 13.9503 22.6606 12.8968 22.6547C11.2255 22.6545 9.58403 22.2122 8.13892 21.3726C8.08714 21.3432 8.04638 21.2977 8.02282 21.2429C7.99926 21.1882 7.9942 21.1273 8.0084 21.0695C8.02297 21.0126 8.05617 20.9621 8.10272 20.9263C8.14927 20.8904 8.20648 20.8712 8.26524 20.8716H8.66524C9.93521 20.8738 11.177 20.497 12.2316 19.7895C11.6033 19.6869 11.0155 19.4131 10.5327 18.9983C10.0499 18.5834 9.69071 18.0435 9.49471 17.4379C9.48469 17.4076 9.48287 17.3751 9.48944 17.3439C9.49601 17.3126 9.51073 17.2836 9.53211 17.2599C9.55349 17.2362 9.58077 17.2185 9.61117 17.2087C9.64158 17.199 9.67403 17.1974 9.70524 17.2042C9.89683 17.2403 10.0913 17.2586 10.2863 17.2589H10.36C9.75261 16.9802 9.23905 16.5314 8.88148 15.9668C8.52391 15.4022 8.33765 14.7461 8.34524 14.0779C8.34546 14.0466 8.35377 14.016 8.36936 13.9889C8.38495 13.9618 8.4073 13.9392 8.43422 13.9233C8.46114 13.9074 8.49173 13.8987 8.52299 13.8981C8.55425 13.8976 8.58512 13.9051 8.61261 13.92C8.85958 14.0579 9.1246 14.1606 9.39998 14.2253C8.85616 13.6869 8.50635 12.9833 8.40539 12.2247C8.30442 11.4662 8.45801 10.6956 8.84208 10.0337C8.85682 10.0084 8.87747 9.98705 8.90226 9.97149C8.92705 9.95592 8.95525 9.94661 8.98444 9.94433C9.01362 9.94205 9.04292 9.94689 9.06983 9.95842C9.09673 9.96994 9.12044 9.98783 9.13892 10.0105C9.90006 10.951 10.842 11.7293 11.9091 12.2996C12.9761 12.8698 14.1467 13.2204 15.3516 13.3305H15.3684C15.3861 13.33 15.4035 13.3259 15.4196 13.3184C15.4357 13.311 15.45 13.3003 15.4619 13.2871C15.4737 13.2739 15.4827 13.2585 15.4883 13.2417C15.494 13.2249 15.4961 13.2071 15.4947 13.1895C15.4478 12.767 15.4749 12.3395 15.5747 11.9263C15.7105 11.3647 15.9894 10.8477 16.3841 10.4257C16.7788 10.0037 17.276 9.69093 17.8273 9.5179C18.1811 9.4074 18.5494 9.35063 18.92 9.34947C19.7602 9.34851 20.5719 9.65474 21.2021 10.2105C21.2837 10.2836 21.3894 10.324 21.4989 10.3242C21.5345 10.3235 21.5698 10.3185 21.6042 10.3095C22.1959 10.1597 22.7631 9.92571 23.2884 9.61474C23.3198 9.59537 23.3564 9.58618 23.3933 9.58843C23.4301 9.59068 23.4653 9.60426 23.4941 9.62731C23.5229 9.65036 23.5439 9.68175 23.5542 9.71719C23.5645 9.75262 23.5636 9.79037 23.5516 9.82526C23.3764 10.3764 23.0642 10.874 22.6442 11.2716C23.0228 11.1823 23.3922 11.0576 23.7473 10.8989C23.7822 10.8859 23.8202 10.8838 23.8562 10.8931C23.8922 10.9024 23.9245 10.9226 23.9487 10.9509C23.9728 10.9792 23.9877 11.0142 23.9912 11.0513C23.9947 11.0883 23.9868 11.1255 23.9684 11.1579Z" fill="#FFFEFB"/>
</g>
<defs>
<clipPath id="clip0">
<rect width="32" height="32" fill="white"/>
</clipPath>
</defs>
</svg>
