<svg width="158" height="158" viewBox="0 0 158 158" fill="none" xmlns="http://www.w3.org/2000/svg">
<rect width="158" height="158" rx="30" fill="#1D1428"/>
<rect x="40" y="40" width="77" height="77" rx="25" fill="#342A41"/>
<g clip-path="url(#clip0)">
<path d="M95.8436 61.625H61.1564C58.3119 61.625 56 63.9369 56 66.7814V90.2186C56 93.0631 58.3119 95.375 61.1564 95.375H95.8436C98.6881 95.375 101 93.0631 101 90.2186V66.7814C101 63.9369 98.6881 61.625 95.8436 61.625V61.625ZM70.0625 69.1249C72.6463 69.1249 74.7499 71.2288 74.7499 73.8126C74.7499 76.3961 72.6463 78.5 70.0625 78.5C67.4787 78.5 65.3751 76.3961 65.3751 73.8126C65.3751 71.2288 67.4787 69.1249 70.0625 69.1249ZM78.5 86.4689C78.5 87.2451 77.87 87.8751 77.0938 87.8751H63.0312C62.255 87.8751 61.625 87.2451 61.625 86.4689V85.5312C61.625 82.6868 63.9369 80.3749 66.7814 80.3749H73.3436C76.1881 80.3749 78.5 82.6868 78.5 85.5312V86.4689ZM93.9688 87.8751H83.6564C82.8801 87.8751 82.2501 87.2451 82.2501 86.4689C82.2501 85.6926 82.8801 85.0626 83.6564 85.0626H93.9688C94.745 85.0626 95.375 85.6926 95.375 86.4689C95.375 87.2451 94.745 87.8751 93.9688 87.8751ZM93.9688 80.3749H83.6564C82.8801 80.3749 82.2501 79.7449 82.2501 78.9686C82.2501 78.1924 82.8801 77.5624 83.6564 77.5624H93.9688C94.745 77.5624 95.375 78.1924 95.375 78.9686C95.375 79.7449 94.745 80.3749 93.9688 80.3749ZM93.9688 72.875H83.6564C82.8801 72.875 82.2501 72.245 82.2501 71.4688C82.2501 70.6925 82.8801 70.0625 83.6564 70.0625H93.9688C94.745 70.0625 95.375 70.6925 95.375 71.4688C95.375 72.245 94.745 72.875 93.9688 72.875Z" fill="white"/>
</g>
<defs>
<clipPath id="clip0">
<rect width="45" height="45" fill="white" transform="translate(56 56)"/>
</clipPath>
</defs>
</svg>
