<svg width="77" height="77" viewBox="0 0 77 77" fill="none" xmlns="http://www.w3.org/2000/svg">
<rect width="77" height="77" rx="25" fill="#342A41"/>
<path d="M56.0781 23.0312H20.9219C18.208 23.0312 16 25.2392 16 27.9531V49.0469C16 51.7608 18.208 53.9688 20.9219 53.9688H56.0781C58.792 53.9688 61 51.7608 61 49.0469V27.9531C61 25.2392 58.792 23.0312 56.0781 23.0312ZM20.9219 25.8438H56.0781C57.2412 25.8438 58.1875 26.7901 58.1875 27.9531V30.7656H18.8125V27.9531C18.8125 26.7901 19.7588 25.8438 20.9219 25.8438ZM56.0781 51.1562H20.9219C19.7588 51.1562 18.8125 50.2099 18.8125 49.0469V33.5781H58.1875V49.0469C58.1875 50.2099 57.2412 51.1562 56.0781 51.1562Z" fill="#FFFEFB"/>
<path d="M25.8438 46.9375H24.4375C23.6609 46.9375 23.0312 46.3079 23.0312 45.5312V44.125C23.0312 43.3484 23.6609 42.7188 24.4375 42.7188H25.8438C26.6204 42.7188 27.25 43.3484 27.25 44.125V45.5312C27.25 46.3079 26.6204 46.9375 25.8438 46.9375Z" fill="#FFFEFB"/>
</svg>
